<mxfile host="app.diagrams.net" modified="2023-11-11T16:49:42.644Z" agent="Mozilla/5.0 (Windows NT 10.0; Win64; x64) AppleWebKit/537.36 (KHTML, like Gecko) Chrome/118.0.0.0 Safari/537.36" etag="ZP1Mj_hn_21ljUswdGhJ" version="22.1.0" type="device" pages="2">
  <diagram name="Page-1" id="HiGCrW5jWgtQCYCvVuER">
    <mxGraphModel dx="2524" dy="1858" grid="1" gridSize="10" guides="1" tooltips="1" connect="1" arrows="1" fold="1" page="1" pageScale="1" pageWidth="850" pageHeight="1100" math="0" shadow="0">
      <root>
        <mxCell id="0" />
        <mxCell id="1" parent="0" />
        <UserObject label="" plantUmlData="{&quot;data&quot;:&quot;&#39;###########################################################################################\n&#39; Author - Murthy pothapragada\n&#39;Plant UML script to generate flow diagram\n&#39;###########################################################################################\n@startuml\ntitle PDE CYCLE Automation\n&#39;skinparam Style strictuml\nskinparam backgroundColor #EEEBDC\n&#39;skinparam handwritten true\n\nskinparam interface {\n  backgroundColor RosyBrown\n  borderColor orange\n}\n\nskinparam component {\n  FontSize 15\n  BackgroundColor&lt;&lt;Apache&gt;&gt; LightCoral\n  BorderColor  #FFFFF0\n  FontName Courier\n  BorderColor black\n  BackgroundColor gold\n  ArrowFontName Impact\n  ArrowColor #0000FF\n  ArrowFontColor #Purple\n}\n\n&#39; Uncomment the line below for \&quot;dark mode\&quot; styling\n&#39;!$AWS_DARK = true\n!define AWSPuml https://raw.githubusercontent.com/awslabs/aws-icons-for-plantuml/v16.0/dist\n!include AWSPuml/AWSCommon.puml\n!include AWSPuml/Analytics/KinesisDataStreams.puml\n!include AWSPuml/ApplicationIntegration/SimpleQueueService.puml\n!include AWSPuml/ApplicationIntegration/SimpleNotificationService.puml\n!include AWSPuml/ApplicationIntegration/EventBridge.puml\n!include AWSPuml/Analytics/EMRCluster.puml\n!include AWSPuml/ManagementGovernance/CloudWatch.puml\n&#39;!includeurl AWSPuml/Compute/Lambda.puml\n!include AWSPuml/Compute/Lambda.puml\n!include AWSPuml/Compute/EC2.puml\n!includeurl AWSPuml/ApplicationIntegration/APIGateway.puml\n!include AWSPuml/BusinessApplications/all.puml\n!include AWSPuml/Storage/SimpleStorageService.puml\n!define sqspng https://github.com/gitbhas/awsicons.git\\sqs.PNG\nSimpleStorageServiceParticipant(S3Bucket, ,)\nSimpleQueueServiceParticipant(SQS, ,)\nCloudWatchParticipant(Alarm,,\&quot;Alarm\&quot;)\nEventBridgeParticipant(EventBridge, ,)\nSimpleNotificationServiceParticipant(SNS, ,) \nLambdaParticipant(Lambda,,\&quot;Function\&quot;) \nEC2Participant(EC2,,\&quot;App Server\&quot;)\nEMRClusterParticipant(DBX,,\&quot;Databricks\&quot;)\ngroup#Gold PDE Cycle Process\ngroup#Yellow #LightBlue 1-PDE Files from Palmetto --&gt;\n\n&#39;S3Bucket --&gt; SQS: Add message (PDECOPY.*) Files         (/prd:/landing/pdecopy/CNTL.*)\nS3Bucket --&gt; SQS: Add message (PDECOPY.*)Files(/prd:/landing/pdecopy/CNTL.*)\nS3Bucket --&gt; Lambda: Trigger Lambda to bring up EC2 if not up\n\n    Lambda --&gt; EC2:Start App Server\nEventBridge --&gt; Alarm: Activate Alarm when EC2 app server is up\nend  \ngroup#Yellow #LightGreen 2-TriggerLambda-poll SQS-Invoke PDE Cycle Scripts\ngroup#Gold  Trigger Lambda\n     group#Gold  Trigger Lambda by SNS event\n\tAlarm --&gt; SNS : Generate SNS notification  \n       SNS --&gt; Lambda : Trigger Lambda by SNS event\n     end\n      group#Gold #LightBlue Trigger Lambda by S3 event\n       S3Bucket -&gt; Lambda: Trigger Lambda by S3 event  \n      end\nend\n \ngroup#Gold Poll SQS  \n Lambda -&gt; SQS  : Poll SQS Queue (SNS/S3 eventS) \n\nend \ngroup#Yellow 3-Invoke Scripts(By SQS message Type)\nLambda -&gt; EC2 -- #Yellow : Trigger R&amp;C or BOL scripts    \nend\nend\ngroup#Yellow 4-Application run  \ngroup#Gold (1.1)Receipt&amp;Control\n    \n    EC2 --&gt; EC2: Start R&amp;C script (PDECOPY)\n    EC2 --&gt; EC2: EFT Response files\n group#Gold #Pink (1.2)Databricks (PDE EDITS)\n    EC2 -&gt; DBX --:R&amp;C process Trigger PDE EDITS Workflow\nend\nend\n&#39;group#Gold #LightPink  (1.3)After DBX S3 event\ngroup#Gold #LightBlue (s3 event-(1.3) DBX.done file)\n DBX -&gt;  S3Bucket: Put CNTL/PDEPLS.* files to S3  \nend \n&#39;end\n    \n\ngroup#Gold #LightYellow (1.4) PDEPLS files from Databricks  \n   group#Gold #LightYellow (1.5) B O L \n  EC2 --&gt; EC2 : Start BOL script (PDEPLS)\n  EC2 --&gt; EC2 : Bene Link key file processing)(Cycle3)\n  EC2 --&gt; EC2 : EFT Out bound files\n     end\n  S3Bucket -&gt; SQS: Add message (PDEPLS.*)Files(/prd:/landing/CNTL.*)\nend\nend\n&#39;group#Gold #LightYellow  (1.6) After BOL S3 event\ngroup#Gold #LightBlue (s3 event -(1.6) EFT.done file)    \n   EC2 -&gt; S3Bucket --: Put EFT done file to s3    \nend\n&#39;end\nend\n\n@enduml&quot;,&quot;format&quot;:&quot;svg&quot;}" id="U6NYjKyzwwUGawbsVeQF-1">
          <mxCell style="shape=image;noLabel=1;verticalAlign=top;aspect=fixed;imageAspect=0;image=data:image/svg+xml,PD94bWwgdmVyc2lvbj0iMS4wIiBlbmNvZGluZz0idXMtYXNjaWkiIHN0YW5kYWxvbmU9Im5vIj8+PHN2ZyB4bWxucz0iaHR0cDovL3d3dy53My5vcmcvMjAwMC9zdmciIHhtbG5zOnhsaW5rPSJodHRwOi8vd3d3LnczLm9yZy8xOTk5L3hsaW5rIiBjb250ZW50U3R5bGVUeXBlPSJ0ZXh0L2NzcyIgaGVpZ2h0PSIxNDg1cHgiIHByZXNlcnZlQXNwZWN0UmF0aW89Im5vbmUiIHN0eWxlPSJ3aWR0aDoxNTA5cHg7aGVpZ2h0OjE0ODVweDtiYWNrZ3JvdW5kOiNGRkZGRkY7IiB2ZXJzaW9uPSIxLjEiIHZpZXdCb3g9IjAgMCAxNTA5IDE0ODUiIHdpZHRoPSIxNTA5cHgiIHpvb21BbmRQYW49Im1hZ25pZnkiPjxkZWZzLz48Zz48dGV4dCBmaWxsPSIjMDAwMDAwIiBmb250LWZhbWlseT0ic2Fucy1zZXJpZiIgZm9udC1zaXplPSIxNCIgZm9udC13ZWlnaHQ9ImJvbGQiIGxlbmd0aEFkanVzdD0ic3BhY2luZyIgdGV4dExlbmd0aD0iMTQxIiB4PSI2ODUuNzUiIHk9IjI4LjIzNDQiPlBERSBDWUNMRSBBdXRvbWF0aW9uPC90ZXh0PjxyZWN0IGZpbGw9Im5vbmUiIGhlaWdodD0iMTE2Mi43MTA5IiBzdHlsZT0ic3Ryb2tlOiM3RDg5OTg7c3Ryb2tlLXdpZHRoOjEuNTsiIHdpZHRoPSIxNDkzLjUiIHg9IjEwIiB5PSIxNzkuNzk2OSIvPjxyZWN0IGZpbGw9IiNBREQ4RTYiIGhlaWdodD0iMTYxLjgyMDMiIHN0eWxlPSJzdHJva2U6IzdEODk5ODtzdHJva2Utd2lkdGg6MS41OyIgd2lkdGg9IjEyNzkiIHg9IjQwIiB5PSIyMDIuNzEwOSIvPjxyZWN0IGZpbGw9IiM5MEVFOTAiIGhlaWdodD0iMzYzLjkyMTkiIHN0eWxlPSJzdHJva2U6IzdEODk5ODtzdHJva2Utd2lkdGg6MS41OyIgd2lkdGg9IjEzNTYuNSIgeD0iMjAiIHk9IjM3OC41MzEzIi8+PHJlY3QgZmlsbD0ibm9uZSIgaGVpZ2h0PSIxOTQuODA0NyIgc3R5bGU9InN0cm9rZTojN0Q4OTk4O3N0cm9rZS13aWR0aDoxLjU7IiB3aWR0aD0iMTE0Ni41IiB4PSIzMCIgeT0iNDAxLjQ0NTMiLz48cmVjdCBmaWxsPSJub25lIiBoZWlnaHQ9Ijk1LjI4OTEiIHN0eWxlPSJzdHJva2U6IzdEODk5ODtzdHJva2Utd2lkdGg6MS41OyIgd2lkdGg9IjYyMC41IiB4PSI1NDYiIHk9IjQyNC4zNTk0Ii8+PHJlY3QgZmlsbD0iI0FERDhFNiIgaGVpZ2h0PSI1NS42MDE2IiBzdHlsZT0ic3Ryb2tlOiM3RDg5OTg7c3Ryb2tlLXdpZHRoOjEuNTsiIHdpZHRoPSIxMTI2LjUiIHg9IjQwIiB5PSI1MzMuNjQ4NCIvPjxyZWN0IGZpbGw9Im5vbmUiIGhlaWdodD0iNTUuNjAxNiIgc3R5bGU9InN0cm9rZTojN0Q4OTk4O3N0cm9rZS13aWR0aDoxLjU7IiB3aWR0aD0iNzkxLjUiIHg9IjM3NSIgeT0iNjEwLjI1Ii8+PHJlY3QgZmlsbD0ibm9uZSIgaGVpZ2h0PSI1NS42MDE2IiBzdHlsZT0ic3Ryb2tlOiM3RDg5OTg7c3Ryb2tlLXdpZHRoOjEuNTsiIHdpZHRoPSIzMDIiIHg9IjEwNjQuNSIgeT0iNjc5Ljg1MTYiLz48cmVjdCBmaWxsPSJub25lIiBoZWlnaHQ9IjUyMi4yOTY5IiBzdHlsZT0ic3Ryb2tlOiM3RDg5OTg7c3Ryb2tlLXdpZHRoOjEuNTsiIHdpZHRoPSIxNDYzLjUiIHg9IjMwIiB5PSI3NTYuNDUzMSIvPjxyZWN0IGZpbGw9Im5vbmUiIGhlaWdodD0iMTc4LjA0NjkiIHN0eWxlPSJzdHJva2U6IzdEODk5ODtzdHJva2Utd2lkdGg6MS41OyIgd2lkdGg9IjI5My41IiB4PSIxMTkwIiB5PSI3NzkuMzY3MiIvPjxyZWN0IGZpbGw9IiNGRkMwQ0IiIGhlaWdodD0iNTUuNjAxNiIgc3R5bGU9InN0cm9rZTojN0Q4OTk4O3N0cm9rZS13aWR0aDoxLjU7IiB3aWR0aD0iMjczLjUiIHg9IjEyMDAiIHk9Ijg5NC44MTI1Ii8+PHJlY3QgZmlsbD0iI0FERDhFNiIgaGVpZ2h0PSI1NS42MDE2IiBzdHlsZT0ic3Ryb2tlOiM3RDg5OTg7c3Ryb2tlLXdpZHRoOjEuNTsiIHdpZHRoPSIxNDMzLjUiIHg9IjQwIiB5PSI5NzEuNDE0MSIvPjxyZWN0IGZpbGw9IiNGRkZGRTAiIGhlaWdodD0iMjMwLjczNDQiIHN0eWxlPSJzdHJva2U6IzdEODk5ODtzdHJva2Utd2lkdGg6MS41OyIgd2lkdGg9IjEzNzMuNSIgeD0iNDAiIHk9IjEwNDEuMDE1NiIvPjxyZWN0IGZpbGw9IiNGRkZGRTAiIGhlaWdodD0iMTYxLjEzMjgiIHN0eWxlPSJzdHJva2U6IzdEODk5ODtzdHJva2Utd2lkdGg6MS41OyIgd2lkdGg9IjIwMy41IiB4PSIxMjAwIiB5PSIxMDYzLjkyOTciLz48cmVjdCBmaWxsPSIjQUREOEU2IiBoZWlnaHQ9IjQyLjc1NzgiIHN0eWxlPSJzdHJva2U6IzdEODk5ODtzdHJva2Utd2lkdGg6MS41OyIgd2lkdGg9IjEyNzkiIHg9IjQwIiB5PSIxMjkyLjc1Ii8+PGxpbmUgc3R5bGU9InN0cm9rZTojMDAwMDAwO3N0cm9rZS13aWR0aDowLjU7c3Ryb2tlLWRhc2hhcnJheTo1LjAsNS4wOyIgeDE9IjEzNyIgeDI9IjEzNyIgeTE9IjE2Mi43OTY5IiB5Mj0iMTM1OS41MDc4Ii8+PGxpbmUgc3R5bGU9InN0cm9rZTojMDAwMDAwO3N0cm9rZS13aWR0aDowLjU7c3Ryb2tlLWRhc2hhcnJheTo1LjAsNS4wOyIgeDE9IjQ2NSIgeDI9IjQ2NSIgeTE9IjE2Mi43OTY5IiB5Mj0iMTM1OS41MDc4Ii8+PGxpbmUgc3R5bGU9InN0cm9rZTojMDAwMDAwO3N0cm9rZS13aWR0aDowLjU7c3Ryb2tlLWRhc2hhcnJheTo1LjAsNS4wOyIgeDE9IjYwOCIgeDI9IjYwOCIgeTE9IjE2Mi43OTY5IiB5Mj0iMTM1OS41MDc4Ii8+PGxpbmUgc3R5bGU9InN0cm9rZTojMDAwMDAwO3N0cm9rZS13aWR0aDowLjU7c3Ryb2tlLWRhc2hhcnJheTo1LjAsNS4wOyIgeDE9Ijc4MC41IiB4Mj0iNzgwLjUiIHkxPSIxNjIuNzk2OSIgeTI9IjEzNTkuNTA3OCIvPjxsaW5lIHN0eWxlPSJzdHJva2U6IzAwMDAwMDtzdHJva2Utd2lkdGg6MC41O3N0cm9rZS1kYXNoYXJyYXk6NS4wLDUuMDsiIHgxPSI5NTEuNSIgeDI9Ijk1MS41IiB5MT0iMTYyLjc5NjkiIHkyPSIxMzU5LjUwNzgiLz48bGluZSBzdHlsZT0ic3Ryb2tlOiMwMDAwMDA7c3Ryb2tlLXdpZHRoOjAuNTtzdHJva2UtZGFzaGFycmF5OjUuMCw1LjA7IiB4MT0iMTExNS41IiB4Mj0iMTExNS41IiB5MT0iMTYyLjc5NjkiIHkyPSIxMzU5LjUwNzgiLz48bGluZSBzdHlsZT0ic3Ryb2tlOiMwMDAwMDA7c3Ryb2tlLXdpZHRoOjAuNTtzdHJva2UtZGFzaGFycmF5OjUuMCw1LjA7IiB4MT0iMTI1OSIgeDI9IjEyNTkiIHkxPSIxNjIuNzk2OSIgeTI9IjEzNTkuNTA3OCIvPjxsaW5lIHN0eWxlPSJzdHJva2U6IzAwMDAwMDtzdHJva2Utd2lkdGg6MC41O3N0cm9rZS1kYXNoYXJyYXk6NS4wLDUuMDsiIHgxPSIxNDExLjUiIHgyPSIxNDExLjUiIHkxPSIxNjIuNzk2OSIgeTI9IjEzNTkuNTA3OCIvPjxyZWN0IGZpbGw9IiNGRkZGRkYiIGhlaWdodD0iMTIwLjgxMjUiIHN0eWxlPSJzdHJva2U6IzdEODk5ODtzdHJva2Utd2lkdGg6MS4yNTsiIHdpZHRoPSIxNzEiIHg9IjUyIiB5PSI0MC45ODQ0Ii8+PHRleHQgZmlsbD0iIzAwMDAwMCIgZm9udC1mYW1pbHk9InNhbnMtc2VyaWYiIGZvbnQtc2l6ZT0iMTQiIGZvbnQtc3R5bGU9Iml0YWxpYyIgbGVuZ3RoQWRqdXN0PSJzcGFjaW5nIiB0ZXh0TGVuZ3RoPSIxNTciIHg9IjU5IiB5PSI2MS4yMTg4Ij4mIzE3MTtTaW1wbGVTdG9yYWdlU2VydmljZSYjMTg3OzwvdGV4dD48dGV4dCBmaWxsPSIjMDAwMDAwIiBmb250LWZhbWlseT0ic2Fucy1zZXJpZiIgZm9udC1zaXplPSIxNCIgbGVuZ3RoQWRqdXN0PSJzcGFjaW5nIiB0ZXh0TGVuZ3RoPSI3IiB4PSIxMzQiIHk9Ijc2LjIwMzEiPiYjMTYwOzwvdGV4dD48aW1hZ2UgaGVpZ2h0PSI2NCIgd2lkdGg9IjY0IiB4PSIxMDUuNSIgeGxpbms6aHJlZj0iZGF0YTppbWFnZS9wbmc7YmFzZTY0LGlWQk9SdzBLR2dvQUFBQU5TVWhFVWdBQUFFQUFBQUJBQ0FJQUFBQWxDK2FKQUFBR2NFbEVRVlI0WHUyWjZXOVVWUmpHK1N2Yzk3akhHS0tDQ2hpajBTOHVNY1lsS2w5Y3dCQlFZNHpyZ0pTdENnS2xCbEZRV1ZxNjc3VFEwdEpDTjJoTEZ6clFRdW0rRjJpbk1LWExkSnZycnoyaGFmck96TDEzWnBLUlpHNmVUTzZjNTczUGU1OTd6NXp6bmpQekxCRzMzTlNZSjV0dUxnUU5CQnBCQTRGRzBFQ2dFVFFRYVBoa1lIWGtiZUZwU3hLTFZ1VlZiNjFvaUduc0xyeHlyZjdhWU5lUW8zOXNZc1Rwbk9TVGMxcG9oeVdHU09LNWltdWxvQmZ3eHNEdjZTOW1WNFcyWEM0WkhSL1N2RDI0RmdWMFVKTXBqTU9FZ1EyeER4MHBYMnNiYUptNUNhZm03TFUzV3B0VGNzOXNTU3IrYW0vT096dlNGbTlKbkw4cDdwR1FxSHQ0eG54eVRndnRzTVFRU1R4WGNlMk1UdDlBTThyb3k2UzZNR1JnVGVUdG1lVWhvK09ES2g5ZG9yUnVYMFRlMHZVeEQ4aGdnK0JhRk5CQlRjbWlUeFp5eVdBUDBEZXdMdnErMXN1bEtzZUZqcHo5eDk3M1YvZFZRQTFObEZVSytoVVpaWmc3NkJzNDA1U29UYi9sUFZsdlNOYVBRSjhzNUtwcVNwQ3NPK2diR0JzZlJuUnI4dE9TOGp1MnBTd2tGeGtsNVE3NkJrWkc3WWlXTjBUL2ZQQk95Zm9SYTZQdVVtOTdaUFNhWk4xQjMwQ1g3YXpxbmIzMkJvYVJ0VkYzeXhnZndXQ1ZmUEpyMVg4NHVteFdHZU1PK2dacTJnNGpPajR4cXRRZFk5ZXJtNU1UaWxiNjNxbTJKaitUV1B3Rm8rck0rS2F5bkd0Tmw4SHVvRytncVBaUFJBdHFkc1lYcm1pL1VxRXlxV05nK0ZKRGQvNnBDLytrbC80WWZlS1QzWm12MDRsRDR4L2ZFUHNnL1dGMXhLMThjazRMN2JERXBKZjlSSHhqZHdIWHpwWkNHWDJ5YU5PNTVHMjRnNzZCUTZVL0lHcHRTVlZmdDZjOG0xYnlIWS9OUHRROSt3NjhPRkJBQnpVMGxUaFphRThyK1ZiZWhqdm9HemlRK3lHaTdiMlZrcUlQUk9SK3hPTXZyTmxWMDVyUjBWdEZ6WE4xc0hQSVlXTWttYXFGeG9jNXA0VjJXR0tJSko2cnVGWUtrb1ZjKzNMZWs1UTc2QnNJUzEyRTZPQklyNlQ4RHJLUWExdktBa201Zzc0QmhoMVZ0NFJFM3l0WlB3Sjlza3c2SjlaRTNpRlpkOUEzQU94RFBVaUhIM3BCVWg1Z3FpSUE2Sk9sLzNxYnBEekFrQUZWQzBYbUxaV1VTMUJYdGwwcDV4TDYvY2E0aDJXQVM2RFBKU3diSk9VQmhneFFuQ0ROQ0NncGw2REtueHBscG84ODZ6WVo0QklaWlJiaVQ5Y2ZsSlFIR0RMQU1ncnA0dHEvSk9VU3N3M3crem5mbnNVa0lNUG1vTGgyTi9GSEt6ZEt5Z01NR1VncS9oTHAycllqa25JSjFZVzQ5YzYrYWxhVnlnbERaR3pCY2c4LzBOcjJUTUppOHBkSnlnTU1HZmo3NkZ0SWQ5dk9TY29EcUhENFpCbytidDNPeWxqWllQbkNNdzZOZjB6R2QvZlhFTkJuYnpxUSs0RmszY0dRQWRhRTJsU1JhSmVVUVRCRUhpcjlubkpRMmFEbXFXNUttclBBY0l3TktKYURHZHJnY3MrUUFSWk5FNU5qNkc2TU5UcWt1QVRWRVUvM1FrYzJnNzI2VVdib25LclEzNUtlWXJEU3BpckZBUmJIcXJiRDdhOEpUMGlST1RCa0FQQm1FZjBqNHhWSmVZRXRTZk9QVzhObTZqbCtMVDM5dFp4YzZqOXZtVnJXTEtDNzhyWDUwa2w1N1J3WU5WRGZkUnpGNlB4UEplVTErRUZUYUZHY3o5NmV1VHJZUVRsZDJSaXJ2dXB1VlJnMVVIYnhBSEtaNVNHUzhoM00yZXFPWisrMWFQNTlBMWtWNjFFc3Fkc3JLYitndEc0LytvZFBydzVQV3hKWDhEbVRXdFNKajQwc1lvMGFpTW4vakFSMW5jY2s1UmRjN016VHpGUXJNekJxWU5maFY3WHBRVU5TZm9FYVljM1dpeGJqQmhoQVNjQzBLaW5md2ZBNlB1RkEzMndCYXpGdXdISmpmOFhJMkd3V214T2YxTHhkTTVrd29QWlhkbWUrSmlrZndaU3N1Vm0xNnNLRUFiVy9FbCs0UWxJK0lxRm9wVFpyMzhBVVRCaFEreXZNL0pMeUVjZk9iRVk1LzJ5NHBIUmh3b0RhWHltdmo1S1VqNmhvaUVFNTlkUTNrdEtGQ1FOcWY4WHNrczhJbW50T29ydzM1MTFKNmNLRWdSMXBpMGxqRzJpVmxJK2cvdEdtZGxNV1Nrb1hKZ3lvL1pWSjU3alpQMUU4ZzVLTzZ0cnBuRFJTT0VpWU1HQzVzYjlpYXVOSkYyR3B6MnZUS3pWSkdZRTVBeFVOMFdxODgrNXBTZkJXYTFvejBDeTdHQ0ZaSXpCbmdLYzE3TGlxVFZmdExKMVlsOGdZZzJBVmxsV3hUdjNETitTd2VmY0RzSmcxQUxhblB0ZGxzMm8zanI2QlpsYTNPVlcveEJZc1owSU5TMTIwS2U3UmRkSDM4NHFvY1Bqa25CYmE5MlM5U1F5UnJHQVlDV1lVT25xclhHNzBHb1JwQXdvTWVXZGIwdFRiOE83Z3FiTnkvemY3YlNsdUNsNGFVR0N4dnpQalpaNXJkdVVtSnJpbW5pSmVDRFVaUmF0YXR2UEpPUzIwTTRHY3JqOUlaRXorc3AzcEwvbnJ2MXFmRFB3ZkVEUVFhQVFOQkJwQkE0RkcwRUNnY2RNYitBOXpNdXV2cGpsVFV3QUFBQUJKUlU1RXJrSmdnZz09IiB5PSI3Ny45NTMxIi8+PHRleHQgZmlsbD0iIzAwMDAwMCIgZm9udC1mYW1pbHk9InNhbnMtc2VyaWYiIGZvbnQtc2l6ZT0iMTIiIGxlbmd0aEFkanVzdD0ic3BhY2luZyIgdGV4dExlbmd0aD0iMTIiIHg9IjEzMS41IiB5PSIxNTMuMjk2OSI+W108L3RleHQ+PHJlY3QgZmlsbD0iI0ZGRkZGRiIgaGVpZ2h0PSIxMjAuODEyNSIgc3R5bGU9InN0cm9rZTojN0Q4OTk4O3N0cm9rZS13aWR0aDoxLjI1OyIgd2lkdGg9IjE3MSIgeD0iNTIiIHk9IjEzNTguNTA3OCIvPjx0ZXh0IGZpbGw9IiMwMDAwMDAiIGZvbnQtZmFtaWx5PSJzYW5zLXNlcmlmIiBmb250LXNpemU9IjE0IiBmb250LXN0eWxlPSJpdGFsaWMiIGxlbmd0aEFkanVzdD0ic3BhY2luZyIgdGV4dExlbmd0aD0iMTU3IiB4PSI1OSIgeT0iMTM3OC43NDIyIj4mIzE3MTtTaW1wbGVTdG9yYWdlU2VydmljZSYjMTg3OzwvdGV4dD48dGV4dCBmaWxsPSIjMDAwMDAwIiBmb250LWZhbWlseT0ic2Fucy1zZXJpZiIgZm9udC1zaXplPSIxNCIgbGVuZ3RoQWRqdXN0PSJzcGFjaW5nIiB0ZXh0TGVuZ3RoPSI3IiB4PSIxMzQiIHk9IjEzOTMuNzI2NiI+JiMxNjA7PC90ZXh0PjxpbWFnZSBoZWlnaHQ9IjY0IiB3aWR0aD0iNjQiIHg9IjEwNS41IiB4bGluazpocmVmPSJkYXRhOmltYWdlL3BuZztiYXNlNjQsaVZCT1J3MEtHZ29BQUFBTlNVaEVVZ0FBQUVBQUFBQkFDQUlBQUFBbEMrYUpBQUFHY0VsRVFWUjRYdTJaNlc5VVZSakcrU3ZjOTdqSEdLS0NDaGlqMFM4dU1jWWxLbDljd0JCUVk0enJnSlN0Q2dLbEJsRlFXVnE2NzdUUTB0SkNOMmhMRnpyUVF1bStGMmluTUtYTGRKdnJyejJoYWZyT3pMMTNacEtSWkc2ZVRPNmM1NzNQZTU5N3o1enpualB6TEJHMzNOU1lKNXR1TGdRTkJCcEJBNEZHMEVDZ0VUUVFhUGhrWUhYa2JlRnBTeEtMVnVWVmI2MW9pR25zTHJ4eXJmN2FZTmVRbzM5c1lzVHBuT1NUYzFwb2h5V0dTT0s1aW11bG9CZnd4c0R2NlM5bVY0VzJYQzRaSFIvU3ZEMjRGZ1YwVUpNcGpNT0VnUTJ4RHgwcFgyc2JhSm01Q2FmbTdMVTNXcHRUY3M5c1NTcithbS9PT3p2U0ZtOUpuTDhwN3BHUXFIdDR4bnh5VGd2dHNNUVFTVHhYY2UyTVR0OUFNOHJveTZTNk1HUmdUZVR0bWVVaG8rT0RLaDlkb3JSdVgwVGUwdlV4RDhoZ2crQmFGTkJCVGNtaVR4Wnl5V0FQMERld0x2cSsxc3VsS3NlRmpwejl4OTczVi9kVlFBMU5sRlVLK2hVWlpaZzc2QnM0MDVTb1RiL2xQVmx2U05hUFFKOHM1S3BxU3BDc08rZ2JHQnNmUm5Scjh0T1M4anUycFN3a0Z4a2w1UTc2QmtaRzdZaVdOMFQvZlBCT3lmb1JhNlB1VW05N1pQU2FaTjFCMzBDWDdhenFuYjMyQm9hUnRWRjN5eGdmd1dDVmZQSnIxWDg0dW14V0dlTU8rZ1pxMmc0ak9qNHhxdFFkWTllcm01TVRpbGI2M3FtMkpqK1RXUHdGbytyTStLYXluR3RObDhIdW9HK2dxUFpQUkF0cWRzWVhybWkvVXFFeXFXTmcrRkpEZC82cEMvK2tsLzRZZmVLVDNabXYwNGxENHgvZkVQc2cvV0YxeEsxOGNrNEw3YkRFcEpmOVJIeGpkd0hYenBaQ0dYMnlhTk81NUcyNGc3NkJRNlUvSUdwdFNWVmZ0NmM4bTFieUhZL05QdFE5K3c2OE9GQkFCelUwbFRoWmFFOHIrVmJlaGp2b0d6aVEreUdpN2IyVmtxSVBST1IreE9NdnJObFYwNXJSMFZ0RnpYTjFzSFBJWVdNa21hcUZ4b2M1cDRWMldHS0lKSjZydUZZS2tvVmMrM0xlazVRNzZCc0lTMTJFNk9CSXI2VDhEcktRYTF2S0FrbTVnNzRCaGgxVnQ0UkUzeXRaUHdKOXNrdzZKOVpFM2lGWmQ5QTNBT3hEUFVpSEgzcEJVaDVncWlJQTZKT2wvM3FicER6QWtBRlZDMFhtTFpXVVMxQlh0bDBwNXhMNi9jYTRoMldBUzZEUEpTd2JKT1VCaGd4UW5DRE5DQ2dwbDZES254cGxwbzg4NnpZWjRCSVpaUmJpVDljZmxKUUhHRExBTWdycDR0cS9KT1VTc3czdyt6bmZuc1VrSU1QbW9MaDJOL0ZIS3pkS3lnTU1HVWdxL2hMcDJyWWprbklKMVlXNDljNithbGFWeWdsRFpHekJjZzgvME5yMlRNSmk4cGRKeWdNTUdmajc2RnRJZDl2T1Njb0RxSEQ0WkJvK2J0M095bGpaWVBuQ013Nk5mMHpHZC9mWEVOQm5ienFRKzRGazNjR1FBZGFFMmxTUmFKZVVRVEJFSGlyOW5uSlEyYURtcVc1S21yUEFjSXdOS0phREdkcmdjcytRQVJaTkU1Tmo2RzZNTlRxa3VBVFZFVS8zUWtjMmc3MjZVV2JvbktyUTM1S2VZckRTcGlyRkFSYkhxcmJEN2E4SlQwaVJPVEJrQVBCbUVmMGo0eFZKZVlFdFNmT1BXOE5tNmpsK0xUMzl0WnhjNmo5dm1WcldMS0M3OHJYNTBrbDU3UndZTlZEZmRSekY2UHhQSmVVMStFRlRhRkdjejk2ZXVUcllRVGxkMlJpcnZ1cHVWUmcxVUhieEFIS1o1U0dTOGgzTTJlcU9aKysxYVA1OUExa1Y2MUVzcWRzcktiK2d0RzQvK29kUHJ3NVBXeEpYOERtVFd0U0pqNDBzWW8wYWlNbi9qQVIxbmNjazVSZGM3TXpUekZRck16QnFZTmZoVjdYcFFVTlNmb0VhWWMzV2l4YmpCaGhBU2NDMEtpbmZ3ZkE2UHVGQTMyd0JhekZ1d0hKamY4WEkyR3dXbXhPZjFMeGRNNWt3b1BaWGRtZStKaWtmd1pTc3VWbTE2c0tFQWJXL0VsKzRRbEkrSXFGb3BUWnIzOEFVVEJoUSt5dk0vSkx5RWNmT2JFWTUvMnk0cEhSaHdvRGFYeW12ajVLVWo2aG9pRUU1OWRRM2t0S0ZDUU5xZjhYc2tzOEltbnRPb3J3MzUxMUo2Y0tFZ1IxcGkwbGpHMmlWbEkrZy90R21kbE1XU2tvWEpneW8vWlZKNTdqWlAxRThnNUtPNnRycG5EUlNPRWlZTUdDNXNiOWlhdU5KRjJHcHoydlRLelZKR1lFNUF4VU4wV3E4OCs1cFNmQldhMW96MEN5N0dDRlpJekJuZ0tjMTdMaXFUVmZ0TEoxWWw4Z1lnMkFWbGxXeFR2M0ROK1N3ZWZjRHNKZzFBTGFuUHRkbHMybzNqcjZCWmxhM09WVy94QllzWjBJTlMxMjBLZTdSZGRIMzg0cW9jUGprbkJiYTkyUzlTUXlSckdBWUNXWVVPbnFyWEc3MEdvUnBBd29NZVdkYjB0VGI4TzdncWJOeS96ZjdiU2x1Q2w0YVVHQ3h2elBqWlo1cmR1VW1KcmltbmlKZUNEVVpSYXRhdHZQSk9TMjBNNEdjcmo5SVpFeitzcDNwTC9ucnYxcWZEUHdmRURRUWFBUU5CQnBCQTRGRzBFQ2djZE1iK0E5ek11dXZwamxUVXdBQUFBQkpSVTVFcmtKZ2dnPT0iIHk9IjEzOTUuNDc2NiIvPjx0ZXh0IGZpbGw9IiMwMDAwMDAiIGZvbnQtZmFtaWx5PSJzYW5zLXNlcmlmIiBmb250LXNpemU9IjEyIiBsZW5ndGhBZGp1c3Q9InNwYWNpbmciIHRleHRMZW5ndGg9IjEyIiB4PSIxMzEuNSIgeT0iMTQ3MC44MjAzIj5bXTwvdGV4dD48cmVjdCBmaWxsPSIjRkZGRkZGIiBoZWlnaHQ9IjEyMC44MTI1IiBzdHlsZT0ic3Ryb2tlOiM3RDg5OTg7c3Ryb2tlLXdpZHRoOjEuMjU7IiB3aWR0aD0iMTU3IiB4PSIzODciIHk9IjQwLjk4NDQiLz48dGV4dCBmaWxsPSIjMDAwMDAwIiBmb250LWZhbWlseT0ic2Fucy1zZXJpZiIgZm9udC1zaXplPSIxNCIgZm9udC1zdHlsZT0iaXRhbGljIiBsZW5ndGhBZGp1c3Q9InNwYWNpbmciIHRleHRMZW5ndGg9IjE0MyIgeD0iMzk0IiB5PSI2MS4yMTg4Ij4mIzE3MTtTaW1wbGVRdWV1ZVNlcnZpY2UmIzE4Nzs8L3RleHQ+PHRleHQgZmlsbD0iIzAwMDAwMCIgZm9udC1mYW1pbHk9InNhbnMtc2VyaWYiIGZvbnQtc2l6ZT0iMTQiIGxlbmd0aEFkanVzdD0ic3BhY2luZyIgdGV4dExlbmd0aD0iNyIgeD0iNDYyIiB5PSI3Ni4yMDMxIj4mIzE2MDs8L3RleHQ+PGltYWdlIGhlaWdodD0iNjQiIHdpZHRoPSI2NCIgeD0iNDMzLjUiIHhsaW5rOmhyZWY9ImRhdGE6aW1hZ2UvcG5nO2Jhc2U2NCxpVkJPUncwS0dnb0FBQUFOU1VoRVVnQUFBRUFBQUFCQUNBSUFBQUFsQythSkFBQUYzMGxFUVZSNFh1MVo2WE1VUlJUbm56QmdJaXBxZVVieEt0R3l5aStlV0JKakxFdjlwRkFXNVlIbFZTcWFPeGdJaDBoUnhSRnpBQ3JoQ3JrMW1Db1ZNQmdoaEpqTFlDV1FnNFE5WjYvc2ZZMi9ucG5zems2VDNabmRUUTJwbXFuZmg5bDlyMS8zci92MWU2OTdGdWx1eUYvUVdFVC90YkNnRVZBYkdnRzFvUkZRR3hvQnRhRVJVQnNhQWJXUlpnS0c3QXJieHcyZTQzMitzK1BCTVNiczhvVm52TUZMWmwvWG1QdG9yKzI5WTRZN3krbFdxU0JOQkpZVTJqNDg3dStiWnNOaFZ2eElmdUlKaGYzbkpxeXI2M1FaQlZJalNTRmxBaGtGMW5jT0IwWk0vUERDZG8rbnFkKzJydDc4M0c3ajhzMjZ6Q0o5VnJIeG9hM201L2ZZUDJ2eXRnOWpUWGhOc0xXOGNVQnFUVGxTSXFCZlZ1WnQvNWNmVU9DaXdicW1UbmRqSWEwVzB5U3JHR3NWbkxUd3JkeDFQZmlIVnBPUDVBa1lWMndQL0dmRUlFSm1wKzM5WTdyRlNsd2lzOGorUlF1MkIxbUtuaXVHK3l1a0NyS1JKQUh6MDd0Q05nL3ZDZkFRV2tFT1RFL3V3UDRtVTZCM0dCL2JUaXZJUVRJRWpJOXNDNW1jNk5qVE1xaGZXa0lyeUlmaGpnMitVNk13Rlp5d0dPN2RSQ3NraEhJQ1N3cjkzUk5rN3M5UDZyT0twRkxsd0JRZzVzS2c3K1JJRXFGSk1RRjdmaHUvNktrNHJnU0dlemFHakRNd2l4eENTK05ER1FHRW5SRGpRazlwaVlCaUlETVFSeHBqc01LME5BNlVFYkN2YnlWci9kY1lMWEwvZEI1aDN2akFabG9raHVHK1RaNjJJZmV4WHFrb293Q0JHTWF0N3g2Vml1SkNHUUh2SHlPa2o3Y1AwaUtTaHVGYWpNditkWnYrMWxKYVFYOUxxZjNMRnQ1Vk1GWmFBWVdHc0JNb1VSd29JNEI1WWxaVlhUTmJtWjdhR1hiN1dlNEplL3krenN2T1BXY2M1UjJPYnpxY3V6dDlweTlGcGI0QW9qQnRBV2FabkNwbCtVUW1BU1JMODhwSzJ3ZjE1aGYyeG9rOHpoMG55UUQ5d2JBdnlJODE1dkVIQ1ZnV3hPaTJRa2MzRlRNdmZXLzdxQUhUaEhkYWdVWmlBckNGdlJVWkJsS1ArY1ZLcWM0ck5TQ0dVaFRWRzZaZmYvc0c1dVZxaEJSSDZRbEgyYTk0SVFyTHl2alVhM3g0bTlBcWo3U0tHc21wQ282TE9wcTBNTG5WOUhna1NFQUFDWkpmZXYvQVZmZVAzWUVoSGQ3RFRoOXlXVVJuWnN0ditCUFRqM2RlQWJOSW0wSjVCMUZnMUNTMDJ2cDdwRlZNUjMzVHJ2MW4vZitRSFlXNU1EMytIVzFLakFRRVBLMkRNT1Q2b1Z0SU1Zc0wzSWQ2OEkrbm9TK2lnMHFURFlZQXZMZ1BYNEFVNVJwdHlycjJDR25ZMkUrM0loMDE5VU9LT1JJNnlpZ0FEYUxmTmtTYkVpTUJBU1FzV0JIbkxGUStaSDJ2V1BHTzdjZ1BndVVlVEw5ejE1OTRjUlMzMDZiNEVPeXE3aUk3SkxZVnBNRXBHOTZORDI2SjZCT0g1REltYlVxTVJBUzRxQ2V1VXRBSElUQnQxeEVDUVJ4UUNQaWhYRFRFSS9DVlFJQnNaWEVybnNDMGZWNEk4T1crcTZwTCtBY3J1NDliMlpiQmlFN1VHVlpXdW84azYwTE5BNlNqQStlaUxsVDdOOUgvT1RVWFFzVWI5Z1pZcm1xSFJmK0ZLWmJhVzhJbTNubEtsOG9tWGpHN2lYdW5YRFdpanA1SWJSTURsdGYyOGV2TFAvQitKcTlXb3NNRnhPS1lNSnBUaFhCT3dtanBDUkxYYzZ1allYVDIvQ0FObzduVjBqQ2FWME9QUjRMRUJIUmNGY0M4V212L3ZCbEQxOTljUWl2d1NFTWlXMXBDRXNnbmpZU3d2Sk9HTEFKUm9KU0FlOGdzSmZaeXBVUjVCMFljVTBwNDV5NGxWczFQS1JHQnJHSXV2dzNlUWl1UVltNTlhK0ppcnZNeUxZb0RaUVQ0VU9nN2M0MCtoSEo2ZWFKeU9ydGl6bko2V0EvampxSmZwS0s0VUVaQWYxdFp5TUlkYUY3ZlQwdFRnZld0Zy93Q0lnRFEwamhRUmdEQURKR2VjS1RNVHQrUjh1Nk5JUU54TGZnWUxZMFB4UVN3MVpBVDJQazQxSjhlVmJxRGRja1FRTko1OUZ2aFdxVjVRR2F3bXd0d0dCekJXQzdxNDdSSkt5UkVNZ1FBOHpPaWl5MVJBYU1JU1BOSXpMeERJaFBUQ25LUUpBRUExWVJ3dFdoeUlnSXFXLzNNSXFURnlOVml3cXVBT0VpZWdFNjQzQjFtdVlkYzdxNldkN203cmo0NE1YdTVlMGk5eTEwQnNkZnI4Q3ZoZXYxWjZucjkwMGJVdHRIcjlmNnJsamZUY0xtVU1nRWVTajl3ckxsK1BuREVRdmpFMU1COVlocG5VUDlJUHpIZGRYMStZbElQR2dHMW9SRlFHeG9CdGFFUlVCc2FBYldoRVZBYkM1N0EvODNvelNHbW5MaXZBQUFBQUVsRlRrU3VRbUNDIiB5PSI3Ny45NTMxIi8+PHRleHQgZmlsbD0iIzAwMDAwMCIgZm9udC1mYW1pbHk9InNhbnMtc2VyaWYiIGZvbnQtc2l6ZT0iMTIiIGxlbmd0aEFkanVzdD0ic3BhY2luZyIgdGV4dExlbmd0aD0iMTIiIHg9IjQ1OS41IiB5PSIxNTMuMjk2OSI+W108L3RleHQ+PHJlY3QgZmlsbD0iI0ZGRkZGRiIgaGVpZ2h0PSIxMjAuODEyNSIgc3R5bGU9InN0cm9rZTojN0Q4OTk4O3N0cm9rZS13aWR0aDoxLjI1OyIgd2lkdGg9IjE1NyIgeD0iMzg3IiB5PSIxMzU4LjUwNzgiLz48dGV4dCBmaWxsPSIjMDAwMDAwIiBmb250LWZhbWlseT0ic2Fucy1zZXJpZiIgZm9udC1zaXplPSIxNCIgZm9udC1zdHlsZT0iaXRhbGljIiBsZW5ndGhBZGp1c3Q9InNwYWNpbmciIHRleHRMZW5ndGg9IjE0MyIgeD0iMzk0IiB5PSIxMzc4Ljc0MjIiPiYjMTcxO1NpbXBsZVF1ZXVlU2VydmljZSYjMTg3OzwvdGV4dD48dGV4dCBmaWxsPSIjMDAwMDAwIiBmb250LWZhbWlseT0ic2Fucy1zZXJpZiIgZm9udC1zaXplPSIxNCIgbGVuZ3RoQWRqdXN0PSJzcGFjaW5nIiB0ZXh0TGVuZ3RoPSI3IiB4PSI0NjIiIHk9IjEzOTMuNzI2NiI+JiMxNjA7PC90ZXh0PjxpbWFnZSBoZWlnaHQ9IjY0IiB3aWR0aD0iNjQiIHg9IjQzMy41IiB4bGluazpocmVmPSJkYXRhOmltYWdlL3BuZztiYXNlNjQsaVZCT1J3MEtHZ29BQUFBTlNVaEVVZ0FBQUVBQUFBQkFDQUlBQUFBbEMrYUpBQUFGMzBsRVFWUjRYdTFaNlhNVVJSVG5uekJnSWlwcWVVYnhLdEd5eWkrZVdCSmpMRXY5cEZBVzVZSGxWU3FhT3hnSWgwaFJ4UkZ6QUNyaENyazFtQ29WTUJnaGhKakxZQ1dRZzRROVo2L3NmWTIvbnBuc3prNlQzWm5kVFEycG1xbmZoOWw5cjEvM3IvdjFlNjk3RnVsdXlGL1FXRVQvdGJDZ0VWQWJHZ0cxb1JGUUd4b0J0YUVSVUJzYUFiV1JaZ0tHN0FyYnh3MmU0MzIrcytQQk1TYnM4b1Zudk1GTFpsL1htUHRvcisyOVk0WTd5K2xXcVNCTkJKWVUyajQ4N3UrYlpzTmhWdnhJZnVJSmhmM25KcXlyNjNRWkJWSWpTU0ZsQWhrRjFuY09CMFpNL1BEQ2RvK25xZCsycnQ3ODNHN2o4czI2ekNKOVZySHhvYTNtNS9mWVAydnl0ZzlqVFhoTnNMVzhjVUJxVFRsU0lxQmZWdVp0LzVjZlVPQ2l3YnFtVG5kaklhMFcweVNyR0dzVm5MVHdyZHgxUGZpSFZwT1A1QWtZVjJ3UC9HZkVJRUptcCszOVk3ckZTbHdpczhqK1JRdTJCMW1Lbml1Ryt5dWtDcktSSkFIejA3dENOZy92Q2ZBUVdrRU9URS91d1A0bVU2QjNHQi9iVGl2SVFUSUVqSTlzQzVtYzZOalRNcWhmV2tJcnlJZmhqZzIrVTZNd0ZaeXdHTzdkUkNza2hISUNTd3I5M1JOazdzOVA2ck9LcEZMbHdCUWc1c0tnNytSSUVxRkpNUUY3Zmh1LzZLazRyZ1NHZXphR2pETXdpeHhDUytOREdRR0VuUkRqUWs5cGlZQmlJRE1RUnhwanNNSzBOQTZVRWJDdmJ5VnIvZGNZTFhML2RCNWgzdmpBWmxva2h1RytUWjYySWZleFhxa29vd0NCR01hdDd4NlZpdUpDR1FIdkh5T2tqN2NQMGlLU2h1RmFqTXYrZFp2KzFsSmFRWDlMcWYzTEZ0NVZNRlphQVlXR3NCTW9VUndvSTRCNVlsWlZYVE5ibVo3YUdYYjdXZTRKZS95K3pzdk9QV2NjNVIyT2J6cWN1enQ5cHk5RnBiNEFvakJ0QVdhWm5DcGwrVVFtQVNSTDg4cEsyd2YxNWhmMnhvazh6aDBueVFEOXdiQXZ5STgxNXZFSENWZ1d4T2kyUWtjM0ZUTXZmVy83cUFIVGhIZGFnVVppQXJDRnZSVVpCbEtQK2NWS3FjNHJOU0NHVWhUVkc2WmZmL3NHNXVWcWhCUkg2UWxIMmE5NElRckx5dmpVYTN4NG05QXFqN1NLR3NtcENvNkxPcHEwTUxuVjlIZ2tTRUFBQ1pKZmV2L0FWZmVQM1lFaEhkN0RUaDl5V1VSblpzdHYrQlBUajNkZUFiTkltMEo1QjFGZzFDUzAydnA3cEZWTVIzM1RydjFuL2YrUUhZVzVNRDMrSFcxS2pBUUVQSzJETU9UNm9WdElNWXNMM0lkNjhJK25vUytpZzBxVERZWUF2TGdQWDRBVTVScHR5cnIyQ0duWTJFKzNJaDAxOVVPS09SSTZ5aWdBRGFMZk5rU2JFaU1CQVNRc1dCSG5MRlErWkgydldQR083Y2dQZ3VVZVRMOXoxNTk0Y1JTMzA2YjRFT3lxN2lJN0pMWVZwTUVwRzk2TkQyNko2Qk9INURJbWJVcU1SQVM0cUNldVV0QUhJVEJ0MXhFQ1FSeFFDUGloWERURUkvQ1ZRSUJzWlhFcm5zQzBmVjRJOE9XK3E2cEwrQWNydTQ5YjJaYkJpRTdVR1ZaV3VvOGs2MExOQTZTakErZWlMbFQ3TjlIL09UVVhRc1ViOWdaWXJtcUhSZitGS1piYVc4SW0zbmxLbDhvbVhqRzdpWHVuWERXaWpwNUliUk1EbHRmMjhldkxQL0IrSnE5V29zTUZ4T0tZTUpwVGhYQk93bWpwQ1JMWGM2dWpZWFQyL0NBTm83blYwakNhVjBPUFI0TEVCSFJjRmNDOFdtdi92QmxEMTk5Y1FpdndTRU1pVzFwQ0VzZ25qWVN3dkpPR0xBSlJvSlNBZThnc0pmWnlwVVI1QjBZY1UwcDQ1eTRsVnMxUEtSR0JyR0l1dnczZVFpdVFZbTU5YStKaXJ2TXlMWW9EWlFUNFVPZzdjNDAraEhKNmVhSnlPcnRpem5KNldBL2pqcUpmcEtLNFVFWkFmMXRaeU1JZGFGN2ZUMHRUZ2ZXdGcvd0NJZ0RRMGpoUVJnREFESkdlY0tUTVR0K1I4dTZOSVFOeExmZ1lMWTBQeFFTdzFaQVQyUGs0MUo4ZVZicURkY2tRUU5KNTlGdmhXcVY1UUdhd213dHdHQnpCV0M3cTQ3UkpLeVJFTWdRQTh6T2lpeTFSQWFNSVNQTkl6THhESWhQVENuS1FKQUVBMVlSd3RXaHlJZ0lxVy8zTUlxVEZ5TlZpd3F1QU9FaWVnRTY0M0IxbXVZZGM3cTZXZDdtN3JqNDRNWHU1ZTBpOXkxMEJzZGZyOEN2aGV2MVo2bnI5MDBiVXR0SHI5ZjZybGpmVGNMbVVNZ0VlU2o5d3JMbCtQbkRFUXZqRTFNQjlZaHBuVVA5SVB6SGRkWDErWWxJUEdnRzFvUkZRR3hvQnRhRVJVQnNhQWJXaEVWQWJDNTdBLzgzb3pTR21uTGl2QUFBQUFFbEZUa1N1UW1DQyIgeT0iMTM5NS40NzY2Ii8+PHRleHQgZmlsbD0iIzAwMDAwMCIgZm9udC1mYW1pbHk9InNhbnMtc2VyaWYiIGZvbnQtc2l6ZT0iMTIiIGxlbmd0aEFkanVzdD0ic3BhY2luZyIgdGV4dExlbmd0aD0iMTIiIHg9IjQ1OS41IiB5PSIxNDcwLjgyMDMiPltdPC90ZXh0PjxyZWN0IGZpbGw9IiNGRkZGRkYiIGhlaWdodD0iMTIwLjgxMjUiIHN0eWxlPSJzdHJva2U6IzdEODk5ODtzdHJva2Utd2lkdGg6MS4yNTsiIHdpZHRoPSIxMDAiIHg9IjU1OCIgeT0iNDAuOTg0NCIvPjx0ZXh0IGZpbGw9IiMwMDAwMDAiIGZvbnQtZmFtaWx5PSJzYW5zLXNlcmlmIiBmb250LXNpemU9IjE0IiBmb250LXN0eWxlPSJpdGFsaWMiIGxlbmd0aEFkanVzdD0ic3BhY2luZyIgdGV4dExlbmd0aD0iODYiIHg9IjU2NSIgeT0iNjEuMjE4OCI+JiMxNzE7Q2xvdWRXYXRjaCYjMTg3OzwvdGV4dD48dGV4dCBmaWxsPSIjMDAwMDAwIiBmb250LWZhbWlseT0ic2Fucy1zZXJpZiIgZm9udC1zaXplPSIxNCIgbGVuZ3RoQWRqdXN0PSJzcGFjaW5nIiB0ZXh0TGVuZ3RoPSI3IiB4PSI2MDQuNSIgeT0iNzYuMjAzMSI+JiMxNjA7PC90ZXh0PjxpbWFnZSBoZWlnaHQ9IjY0IiB3aWR0aD0iNjQiIHg9IjU3NiIgeGxpbms6aHJlZj0iZGF0YTppbWFnZS9wbmc7YmFzZTY0LGlWQk9SdzBLR2dvQUFBQU5TVWhFVWdBQUFFQUFBQUJBQ0FJQUFBQWxDK2FKQUFBR3NFbEVRVlI0WHUxWjk0OFVkUlRubjVCRHNBYkZYcUt4eEJLeHhCNS9RQk94S3pHMjJLSkVJK3dkNWVoU1RnOUVRSUVEN3FTREZEa0k1VHhGUWp0S2dBTXBVZzUyWjh0c245MmR0bjdlZnJsbG1YZnM3Tjdlc3BEczVKUEw3TDQzMzMyZjcvZlZ1VzdPS3daZjF1akd2N3E4VUNaUWFwUUpsQnBsQXFWR21VQ3BVU1pRYW5RQkFkZFZRL3p2MUN2elc3VDlUak1VVDZxNjRZbW9PMDVHYXBxOFQwN2grbDJMd2dqMHFBd09XZ1Z6azVtWGFXWitTdng5elB2NFpPdURYWWZPRTVCdUdnbmpoSlhxM2pPaDZyWGVKeWE3ZWxjN0t4eFNuNUcrZmpPajAvOHhZeXFKTlNNMGNoMWZvVXZRU1FLdXE0ZkNTV0NiNFZjQ1h5emxDZ0xTYmFPanYyd1JaNkxNM2M0VkNrZW5DRlE0WXF2Mnd5YjltQmNtV3FVTS9yZm5tZEVFOU1Qak5uQnBnZWdNZ1pCak5lMjlISFUvTUpGTE80VDhXbDNTb0hQd3ZUS0xTd3RCM2dSY3ZZWVlyaEJNa1YrZnc2VlpFQjY3bnNMaGtCdnVGL3hxV1d6RlBqaWhzcURGLy81OHJwdzc4aVlRSFBnN1JXMUxHeGZaNE1wSy9ZUXN3a2FFZnZwS05CK1Yrb3l3NnVlR3ZBbG9CMXo0U2JnMUY5a2lPSEM1c0ZnLzZzVzk5L2xwK0d0SVlYd1RYM2ZRMmQzQkg3RkZmZ1NRSHltbG1LYnJtcUZjYWd1NEg0NHU4ZWNSckpQK1VycGxsT0FRK0hReGY4UVcrUkh3UGpPVjl1K0V6RVdGSVBESklqcUV0UWU1eUJiNUVaRDcxNUhMTmgzbW9rSWczVGdDcDRxcTU3cCtPSmRtUjg0RUtoeitBUTNxbnRNaTVxelNncUVkbExDeUVZaEZaMjNOcTRQS2lRQjJLTDdwc0lnL001SUlmTDZFNnhRSS8zc05XaXVsaDlSdm1PRUptOUJvY1RVT2V3TFM3V1AwLzN5MFBYSTA4T1ZTMTdYRHVFNVhRYnBqVEhUR0ZqT2hpM05HeGVBNkZ0Z1R3RUpZVHQxOUdreTR0Qmp3UERoSlZBeWxmZ2VYV21CRHdQZnlURHJTbUlwRnViUjR3TTlSSjJ1YW5yNjFYSm9KR3dMWUF4QUlmNytSaS9KR2owclB3elZvcytWWFozc2VxOFVZWkZVNEg1R3BtL0hUNk1tNUtCTTJCTFFqSHF5Q1JwK0xjb2Y3L29uS3ZCMkdMM28yUmxNWCt0UFl5bjNlNTZaeGZRSHZzejlERFpITlJabXdJVUFqWWpKSll3b1Q1WVFLUjJSU0U0Wk1ZVFNTQVdwSWZQMGhTamp0ZzF0czhlNE9Fd01HcG1RcXNYSlJKdXdJSkRRaWtIOTlJZlNzaWplMmtvMmFFWjI5elJKRlNBa1lENUNVU2I3UENYTXRqOFBISURMam1uWFo4MkZEUUQ4VHhDcWRHMnBoTkcyaE4rSjdjVG8rdXU4YUd4cldxQ3phRlZ1Mk56eCtvK2VSSCtqTCt5YUlFcGJZZkF5RU14OTMzenVlRHMydWJiRWhJTFlRNlorTHNnT0RDKzJmb29xeUd2eDZ1UmttYnp4MzZRYTh5OVdyU3JwMXRONFd3QmVoSVdzeVY4Q2ttaFJkS2xzOEV6WUVBaDlUbTBXUmxHZXZpN3FSdGdtdUlteEcxQWEvV1lGQ0hwMnpYUVFHUmxObk8xdERWbHpYdFFkRGowcXhnbTJMYWtNQUMySHc1ZHVUSFhCM01zZ1hSZitNRTBBTUFQSmJjek4xNEpZaUwvay9Xb2lQNnJZVGREK2dRVWdqTlUzSmxQL1k5dTEyQk5DQnZqbVh4bG5EeFBEQnBSMGkrTjFLL0x6eTIwN2NpL0VmQm5FMS93Y0x5TXFqWHR5SHF2NmdSMUp2TG53dnphRHowZ3hmdjEvNVV4YllFd0NDZzFmUml2RElOUWNRa2ZEYUN3RjVFL3FSS1grbEQwMjg5dkk4K2lOZkZsRXJzaHdlRkY2VWJ0U1ZocDN5R3puTjNEa1JBUHdmTHJCR1lVZVgrNTd4VUViWlNyYUh2dkQxYzg1OVBrVFA0M21veHZ2MFQ3aFJkNTdpT3RtUkt3Rm5hdmFESjZpNzJqQUJYZ2p1dThjNTJ6MDROSUxleHVtbi9MaEhXZVVMb3J5UWMySkE3VjJOL1U2bVRwaXJaVWNlQkhKSDRMTWxaRTFqcTVPcXdkWmtLdjl3TlpHZEVsdVAwLzNFVGJpSDczRzE3Q2dLQVp3VnRoWkZGRGZ3Ynd3U1pOemtabVQ5dEE2OW5vRjM2UWFjSjUzcmZDOVF5Y3NMUlNFQXhGWlQ4a0V4eHIzLzNYb1JDU2hZc1NWN0VLRGFJWGN5ZFltWHZpZ085RUhWM1hlTzVVdGxSN0VJSUM2RjBTaUY5TEZ2TFJvZVliUzQwS1RJL2V1Y3FUY2RPS3V6WDU3eTQwRytXaFlVaTRBejFUNlFVWVlaR3RwSTZiWENnZVlaeFNUNDdRb2tUZUZPR0lWRlA0ZkJBOEZBNm5JMFM0L05VVVFDUUdqNFd0RTJhd2RjeUtycG9WUzZvUnBGTjlGOFJHdzhaZ09JTUFFakM5SEhtSXJxeVZmckVNVWw0RXk5bHhidkJNN2FHdGZFbG9zTFpVNC9TYVVBT3VoTUVjM1JPdXBoRWR3NWRwQkZKMERvV1lXZUxMNm1WYVFqbkFtaUdkdVBmaFBOa25UektMV2xUWkR4UGtXdGE3cjVRL1cwTHNWd1VRaGtBQmJ6YVJnVFdYekR2MFF0a2hEL1FBZ09vdVlGeDhKWHNPQmlFN2dnZWxZcEMzZlJ0cXM2K20zMHFzUW5hRE5QT2k4aEFrQjNSNlMyV1RpUHVKVDVMVllkaGt1SlFBcUlGdjI0ei9BclNLeTV6T0tYSElGOFVTWlFhcFFKbEJwbEFxVkdtVUNwVVNaUWF2d1A3UGpIdk9WRnNtZ0FBQUFBU1VWT1JLNUNZSUk9IiB5PSI3Ny45NTMxIi8+PHRleHQgZmlsbD0iIzAwMDAwMCIgZm9udC1mYW1pbHk9InNhbnMtc2VyaWYiIGZvbnQtc2l6ZT0iMTIiIGxlbmd0aEFkanVzdD0ic3BhY2luZyIgdGV4dExlbmd0aD0iNDUiIHg9IjU4NS41IiB5PSIxNTMuMjk2OSI+W0FsYXJtXTwvdGV4dD48cmVjdCBmaWxsPSIjRkZGRkZGIiBoZWlnaHQ9IjEyMC44MTI1IiBzdHlsZT0ic3Ryb2tlOiM3RDg5OTg7c3Ryb2tlLXdpZHRoOjEuMjU7IiB3aWR0aD0iMTAwIiB4PSI1NTgiIHk9IjEzNTguNTA3OCIvPjx0ZXh0IGZpbGw9IiMwMDAwMDAiIGZvbnQtZmFtaWx5PSJzYW5zLXNlcmlmIiBmb250LXNpemU9IjE0IiBmb250LXN0eWxlPSJpdGFsaWMiIGxlbmd0aEFkanVzdD0ic3BhY2luZyIgdGV4dExlbmd0aD0iODYiIHg9IjU2NSIgeT0iMTM3OC43NDIyIj4mIzE3MTtDbG91ZFdhdGNoJiMxODc7PC90ZXh0Pjx0ZXh0IGZpbGw9IiMwMDAwMDAiIGZvbnQtZmFtaWx5PSJzYW5zLXNlcmlmIiBmb250LXNpemU9IjE0IiBsZW5ndGhBZGp1c3Q9InNwYWNpbmciIHRleHRMZW5ndGg9IjciIHg9IjYwNC41IiB5PSIxMzkzLjcyNjYiPiYjMTYwOzwvdGV4dD48aW1hZ2UgaGVpZ2h0PSI2NCIgd2lkdGg9IjY0IiB4PSI1NzYiIHhsaW5rOmhyZWY9ImRhdGE6aW1hZ2UvcG5nO2Jhc2U2NCxpVkJPUncwS0dnb0FBQUFOU1VoRVVnQUFBRUFBQUFCQUNBSUFBQUFsQythSkFBQUdzRWxFUVZSNFh1MVo5NDhVZFJUbm41QkRzQWJGWHFLeHhCS3h4QjUvUUJPeEt6RzIyS0pFSSt3ZDVlaFNUZzlFUUlFRDdxU0RGRGtJNVR4RlFqdEtnQU1wVWc1Mlo4dHNuOTJkdG43ZWZybGxtWGZzN043ZXNwRHM1SlBMN0w0MzMzMmY3L2ZWdVc3T0t3WmYxdWpHdjdxOFVDWlFhcFFKbEJwbEFxVkdtVUNwVVNaUWFuUUJBZGRWUS96djFDdnpXN1Q5VGpNVVQ2cTY0WW1vTzA1R2FwcThUMDdoK2wyTHdnajBxQXdPV2dWems1bVhhV1orU3Z4OXpQdjRaT3VEWFlmT0U1QnVHZ25qaEpYcTNqT2g2clhlSnlhN2VsYzdLeHhTbjVHK2ZqT2owLzh4WXlxSk5TTTBjaDFmb1V2UVNRS3VxNGZDU1dDYjRWY0NYeXpsQ2dMU2JhT2p2MndSWjZMTTNjNFZDa2VuQ0ZRNFlxdjJ3eWI5bUJjbVdxVU0vcmZubWRFRTlNUGpObkJwZ2VnTWdaQmpOZTI5SEhVL01KRkxPNFQ4V2wzU29IUHd2VEtMU3d0QjNnUmN2WVlZcmhCTWtWK2Z3NlZaRUI2N25zTGhrQnZ1Ri94cVdXekZQamloc3FERi8vNThycHc3OGlZUUhQZzdSVzFMR3hmWjRNcEsvWVFzd2thRWZ2cEtOQitWK295dzZ1ZUd2QWxvQjF6NFNiZzFGOWtpT0hDNXNGZy82c1c5OS9scCtHdElZWHdUWDNmUTJkM0JIN0ZGZmdTUUh5bWxtS2JybXFGY2FndTRINDR1OGVjUnJKUCtVcnBsbE9BUStIUXhmOFFXK1JId1BqT1Y5dStFekVXRklQREpJanFFdFFlNXlCYjVFWkQ3MTVITE5oM21va0lnM1RnQ3A0cXE1N3ArT0pkbVI4NEVLaHorQVEzcW50TWk1cXpTZ3FFZGxMQ3lFWWhGWjIzTnE0UEtpUUIyS0w3cHNJZy9NNUlJZkw2RTZ4UUkvM3NOV2l1bGg5UnZtT0VKbTlCb2NUVU9ld0xTN1dQMC8zeTBQWEkwOE9WUzE3WER1RTVYUWJwalRIVEdGak9oaTNOR3hlQTZGdGdUd0VKWVR0MTlHa3k0dEJqd1BEaEpWQXlsZmdlWFdtQkR3UGZ5VERyU21JcEZ1YlI0d005UkoydWFucjYxWEpvSkd3TFlBeEFJZjcrUmkvSkdqMHJQd3pWb3MrVlhaM3NlcThVWVpGVTRINUdwbS9IVDZNbTVLQk0yQkxRakhxeUNScCtMY29mNy9vbkt2QjJHTDNvMlJsTVgrdFBZeW4zZTU2WnhmUUh2c3o5RERaSE5SWm13SVVBallqSkpZd29UNVlRS1IyUlNFNFpNWVRTU0FXcElmUDBoU2pqdGcxdHM4ZTRPRXdNR3BtUXFzWEpSSnV3SUpEUWlrSDk5SWZTc2lqZTJrbzJhRVoyOXpSSkZTQWtZRDVDVVNiN1BDWE10ajhQSElETGptblhaODJGRFFEOFR4Q3FkRzJwaE5HMmhOK0o3Y1RvK3V1OGFHeHJXcUN6YUZWdTJOengrbytlUkgrakwreWFJRXBiWWZBeUVNeDkzM3p1ZURzMnViYkVoSUxZUTZaK0xzZ09EQysyZm9vcXlHdng2dVJrbWJ6eDM2UWE4eTlXclNycDF0TjRXd0JlaElXc3lWOENrbWhSZEtsczhFellFQWg5VG0wV1JsR2V2aTdxUnRnbXVJbXhHMUFhL1dZRkNIcDJ6WFFRR1JsTm5PMXREVmx6WHRRZERqMHF4Z20yTGFrTUFDMkh3NWR1VEhYQjNNc2dYUmYrTUUwQU1BUEpiY3pOMTRKWWlML2svV29pUDZyWVRkRCtnUVVnak5VM0psUC9ZOXUxMkJOQ0J2am1YeGxuRHhQREJwUjBpK04xSy9MenkyMDdjaS9FZkJuRTEvd2NMeU1xalh0eUhxdjZnUjFKdkxud3Z6YUR6MGd4ZnYxLzVVeGJZRXdDQ2cxZlJpdkRJTlFjUWtmRGFDd0Y1RS9xUktYK2xEMDI4OXZJOCtpTmZGbEVyc2h3ZUZGNlVidFNWaHAzeUd6bk4zRGtSQVB3ZkxyQkdZVWVYKzU3eFVFYlpTcmFIdnZEMWM4NTlQa1RQNDNtb3h2djBUN2hSZDU3aU90bVJLd0ZuYXZhREo2aTcyakFCWGdqdXU4YzUyejA0TklMZXh1bW4vTGhIV2VVTG9yeVFjMkpBN1YyTi9VNm1UcGlyWlVjZUJISkg0TE1sWkUxanE1T3F3ZFprS3Y5d05aR2RFbHVQMC8zRVRiaUg3M0cxN0NnS0Fad1Z0aFpGRkRmd2J3d1NaTnprWm1UOXRBNjlub0YzNlFhY0o1M3JmQzlReWNzTFJTRUF4RlpUOGtFeHhyMy8zWG9SQ1NoWXNTVjdFS0RhSVhjeWRZbVh2aWdPOUVIVjNYZU81VXRsUjdFSUlDNkYwU2lGOUxGdkxSb2VZYlM0MEtUSS9ldWNxVGNkT0t1elg1N3k0MEcrV2hZVWk0QXoxVDZRVVlZWkd0cEk2YlhDZ2VZWnhTVDQ3UW9rVGVGT0dJVkZQNGZCQThGQTZuSTBTNC9OVVVRQ1FHajRXdEUyYXdkY3lLcnBvVlM2b1JwRk45RjhSR3c4WmdPSU1BRWpDOUhIbUlycXlWZnJFTVVsNEV5OWx4YnZCTTdhR3RmRWxvc0xaVTQvU2FVQU91aE1FYzNST3VwaEVkdzVkcEJGSjBEb1dZV2VMTDZtVmFRam5BbWlHZHVQZmhQTmtuVHpLTFdsVFpEeFBrV3RhN3I1US9XMExzVndVUWhrQUJiemFSZ1RXWHpEdjBRdGtoRC9RQWdPb3VZRng4SlhzT0JpRTdnZ2VsWXBDM2ZSdHFzNittMzBxc1FuYUROUE9pOGhBa0IzUjZTMldUaVB1SlQ1TFZZZGhrdUpRQXFJRnYyNHovQXJTS3k1ek9LWEhJRjhVU1pRYXBRSmxCcGxBcVZHbVVDcFVTWlFhdndQN1BqSHZPVkZzbWdBQUFBQVNVVk9SSzVDWUlJPSIgeT0iMTM5NS40NzY2Ii8+PHRleHQgZmlsbD0iIzAwMDAwMCIgZm9udC1mYW1pbHk9InNhbnMtc2VyaWYiIGZvbnQtc2l6ZT0iMTIiIGxlbmd0aEFkanVzdD0ic3BhY2luZyIgdGV4dExlbmd0aD0iNDUiIHg9IjU4NS41IiB5PSIxNDcwLjgyMDMiPltBbGFybV08L3RleHQ+PHJlY3QgZmlsbD0iI0ZGRkZGRiIgaGVpZ2h0PSIxMjAuODEyNSIgc3R5bGU9InN0cm9rZTojN0Q4OTk4O3N0cm9rZS13aWR0aDoxLjI1OyIgd2lkdGg9IjEwNyIgeD0iNzI3LjUiIHk9IjQwLjk4NDQiLz48dGV4dCBmaWxsPSIjMDAwMDAwIiBmb250LWZhbWlseT0ic2Fucy1zZXJpZiIgZm9udC1zaXplPSIxNCIgZm9udC1zdHlsZT0iaXRhbGljIiBsZW5ndGhBZGp1c3Q9InNwYWNpbmciIHRleHRMZW5ndGg9IjkzIiB4PSI3MzQuNSIgeT0iNjEuMjE4OCI+JiMxNzE7RXZlbnRCcmlkZ2UmIzE4Nzs8L3RleHQ+PHRleHQgZmlsbD0iIzAwMDAwMCIgZm9udC1mYW1pbHk9InNhbnMtc2VyaWYiIGZvbnQtc2l6ZT0iMTQiIGxlbmd0aEFkanVzdD0ic3BhY2luZyIgdGV4dExlbmd0aD0iNyIgeD0iNzc3LjUiIHk9Ijc2LjIwMzEiPiYjMTYwOzwvdGV4dD48aW1hZ2UgaGVpZ2h0PSI2NCIgd2lkdGg9IjY0IiB4PSI3NDkiIHhsaW5rOmhyZWY9ImRhdGE6aW1hZ2UvcG5nO2Jhc2U2NCxpVkJPUncwS0dnb0FBQUFOU1VoRVVnQUFBRUFBQUFCQUNBSUFBQUFsQythSkFBQUdSMGxFUVZSNFh1MlorVzlVVlJUSCtTZEF0Q3J1eG9Vb2lhSWh4aVZ1dUNYcUw4WXRjUWxxM0kwaGd0QkNXYVNVV1BaTndTRDdKbGhhUlNsVlZrRnBBWlVLcmJRZ2kvTm1uK2xzblhtYjMvdGVaM3A3ejd5Wk42OHRFOHk4Zkg2WmU4NTc5Mzd2ZHM2OU04ZzFlTUpGelNCYWRIRlJFbEJzU2dLS1RVbEFzU2tKS0RaOUVoQjY3NXZrdmc0MWxKQlBldU5ybXR6RHE2alBRT05Vd0pDSmlXM0g5TjRQbFBpZitFTDBIR0FjQ2dpUHEyTXQ5c2VDYjJ4d1h6ZlZPMnFPcVVmNUp5QmRWVW45Qnc2SEF1UTJENW9iZUhGbFQrSFE4dFNSY3lnTXZyYVcrZzhjVGdSSXd5cDFWZE1TS1RTYUw0L01hSUNBNk56ZGduOWs1czVlVTQxL1VrcDRiQzJ0d2o1T0JLRGRXandGRGRMVlUvank2T0w5YUZMbnBPMkNmeTRCdXE0bFplKzk4OFFxYk9OSXdPQUp5YjN0cUR1NllFK214RE5pbGhxTW85QTNlZ24xdHlLKzZoQmVrVnRjVWxrRnRkckJvUURmZ3d0MVdVWGRYUTJ0NGZGMTBkbTcxQUJyZldMelVlcWNBNng0NVpSZjZJdUNjQ2dBWUxHcWdSZy9HZkJBR1BYTWplL3hwYnFpWWtJbWQ1OVVmVkhsWENoUjMrSzlmejcxeklwekFjQjkwMmVoRDdiRWxoMklWRGQyN1RqQkJtUm5LM1hMQzk0U09nS0xHMUdTZWxMNkpJREhmZk1NTFp4QTFZR1hWMU5yRHZ4UGZhbHJtcFpVT2l1K1I0OTRicStPenR1TjcyQ2Y4SXlzb2Y0Qy9TWUFoQ2ZVNjJZc3Uzd1N0VnFSMlBvSDNzSVd6QmZHMXphendwcWZxYjlBZndwd1hWb3UveVd4aXFzYlJaTTF5S1B3aXZlZXVYd2hRaVFLdXhyYnFMOUFZUUo4RHk5QzdrRExNMkQrOU16amJBK2E2NzVoR3Y5S3F2a3N5djFQOWtxaVF1OXNSaUhXRmExQ29CQUJReWFhbFlVLzJTYWEwc1EzSFJGYVRKL1k4b1A4SzJiNFk1MmRqdXZTbFpQTmtld3MvNDVXSVZDQUFHd0wrS2dxZFZxbGE3N0hsaHJMVWZiYzhUbTFBa1JjdG1NcUtoOTYzVGRPVnowUmZEbDE5RHlpZU9mMEhVcUhqLzFzUGl1VjVWOUxkZ1VnYTFEZHJCb01MclV5TUQ2SFdUSVhuYk5MTkhIRXZqb0lId1J5dnREMzZHS2xuVFdhZjVEaDB0Y3BkZ1VnVXVwR3I2Q2gxQXBDN3h2ajQ3SWNIeE1zQURObUIxL3RsYlJLVjB3T3Zya2h1bkJ2ZE5FKytaZ0xEdEg1dG1LekxRR2V1MnF3VDJONm9LdW9GVWpYVERHblFlanRUZFFxZ0NVRVQrV001VzZMV3N6SWdIcXBWY0NXZ0s0ZldaU05yMnVtSmhQMEhCdWZwak5XNDlPTG9lbmR0bXFuYUVxRHV1Q0FlcWxKSUwrQXdITXI4QzB0MHVXK1pRYTFBdS9kczd2SDU1RkYxSm9WL3pQTDJUY1JhMitiU2EwQWRhRkcrS0IyYXVYSkwwQStidXhvbFQ5UWs0bDVtRVRzcEtZY0pPcU10MVkzVVpNSmFvUURhcWNtbnY0UVVQdW5Fd0gxTFJkSXdJQk1vV2N2NEJSeVpSYngrc1BVWkZMd0lqWkdWVWpnZUZDWDNsK0wyUFUvMkVaZDZVQW0vKzFON21sSDNpKzNlV0lyRCtFTWtISG9ZeURySVoxeDlXY2dBKzdycDVtSFlQN0JrUkw1YWJkUEpwVWcxeW84V1ZNSkhqTVBSZG9pWEhsWVlWY0Fqa3ZzdTU0SWVrNjZkaXJTOTY3dHgxR0NvY2pNQk4vb0pkM0ozSjBXeWR4OTgya3lKNENGaE0rRzNyWEl1QWgyQlNqL2h2RmQ3QjQ5aFpkVm1Hc3g4RUxQL1Z4OFkvNTBPdm5yYWZyOURPaU84TWZmMnRvTURHd0pRTWFyRzNlM1Fqa1NUNVJIWnZaa0JPNWJxNVN6UWJISjVQRS92WXpXNGd4YkFwQ1g2eWtGQ0FsNmJNVnZhQTB5ZVBxS0ZlWXRuWHpDamZNbnRUckFsZ0JYK3VBWG1mVlRwc1F6c3NhTU5WWjdhMVl3UTVUVDdDYkx6bW5MRG5ZRnNPc25WVVBGV0x2aGNYWFlhc3hMRkF3Q2RjNU40S1ZWZUZIcnRBenRCV0ZYQUFpK3RSSExJRE9QMlV4QW91Sm9KblRmZ2pXMFJxb2JZOHNPaEQ3Y3dvZVVnaWhBZ010WW82R1B0dUpVenJaekRJaWlZbVNvVzE1OER5emdPMEpuSVNVZWZIMGQ5Y3hMWVFKNEVDbFJzWExLbnp2MFpzVzh2RUNqbzdOM2hjZlhtUU9DUU9sN3FPQ3JWZWNDcExJS3VZVWRYdU9yRGxGckRsaXFZMnpLbmhHek1vVm1keVQzZDFELzNEZ1g0REt1U1JCM3VZa2dQbnlJeUlEOUI2YlkwbC80UWd4ajFuOTk4dEluQVNBOHRwYUZDSXNucXdCTW15eW1TeWF5ZjMwMHJkQUoyVmNCRGdpK3NnWUNVcitmNXpzNzhQelh1cEh0VXYvY0ZFR0FOS3o3WHhrY2k3Mmo1aUExREk1WnIvclpmeVhoVCt1cGYyNktJTUJsWEVLYWY2anhEMDdKOW5PNERNVVJBTnpEcStKcm1qQm5FTkd4K2VBOFJIM3NVRFFCL1VWSlFMRXBDU2cySlFIRnBpU2cyRnowQXY0RHJWRUgwRXpMQ3UwQUFBQUFTVVZPUks1Q1lJST0iIHk9Ijc3Ljk1MzEiLz48dGV4dCBmaWxsPSIjMDAwMDAwIiBmb250LWZhbWlseT0ic2Fucy1zZXJpZiIgZm9udC1zaXplPSIxMiIgbGVuZ3RoQWRqdXN0PSJzcGFjaW5nIiB0ZXh0TGVuZ3RoPSIxMiIgeD0iNzc1IiB5PSIxNTMuMjk2OSI+W108L3RleHQ+PHJlY3QgZmlsbD0iI0ZGRkZGRiIgaGVpZ2h0PSIxMjAuODEyNSIgc3R5bGU9InN0cm9rZTojN0Q4OTk4O3N0cm9rZS13aWR0aDoxLjI1OyIgd2lkdGg9IjEwNyIgeD0iNzI3LjUiIHk9IjEzNTguNTA3OCIvPjx0ZXh0IGZpbGw9IiMwMDAwMDAiIGZvbnQtZmFtaWx5PSJzYW5zLXNlcmlmIiBmb250LXNpemU9IjE0IiBmb250LXN0eWxlPSJpdGFsaWMiIGxlbmd0aEFkanVzdD0ic3BhY2luZyIgdGV4dExlbmd0aD0iOTMiIHg9IjczNC41IiB5PSIxMzc4Ljc0MjIiPiYjMTcxO0V2ZW50QnJpZGdlJiMxODc7PC90ZXh0Pjx0ZXh0IGZpbGw9IiMwMDAwMDAiIGZvbnQtZmFtaWx5PSJzYW5zLXNlcmlmIiBmb250LXNpemU9IjE0IiBsZW5ndGhBZGp1c3Q9InNwYWNpbmciIHRleHRMZW5ndGg9IjciIHg9Ijc3Ny41IiB5PSIxMzkzLjcyNjYiPiYjMTYwOzwvdGV4dD48aW1hZ2UgaGVpZ2h0PSI2NCIgd2lkdGg9IjY0IiB4PSI3NDkiIHhsaW5rOmhyZWY9ImRhdGE6aW1hZ2UvcG5nO2Jhc2U2NCxpVkJPUncwS0dnb0FBQUFOU1VoRVVnQUFBRUFBQUFCQUNBSUFBQUFsQythSkFBQUdSMGxFUVZSNFh1MlorVzlVVlJUSCtTZEF0Q3J1eG9Vb2lhSWh4aVZ1dUNYcUw4WXRjUWxxM0kwaGd0QkNXYVNVV1BaTndTRDdKbGhhUlNsVlZrRnBBWlVLcmJRZ2kvTm1uK2xzblhtYjMvdGVaM3A3ejd5Wk42OHRFOHk4Zkg2WmU4NTc5Mzd2ZHM2OU04ZzFlTUpGelNCYWRIRlJFbEJzU2dLS1RVbEFzU2tKS0RaOUVoQjY3NXZrdmc0MWxKQlBldU5ybXR6RHE2alBRT05Vd0pDSmlXM0g5TjRQbFBpZitFTDBIR0FjQ2dpUHEyTXQ5c2VDYjJ4d1h6ZlZPMnFPcVVmNUp5QmRWVW45Qnc2SEF1UTJENW9iZUhGbFQrSFE4dFNSY3lnTXZyYVcrZzhjVGdSSXd5cDFWZE1TS1RTYUw0L01hSUNBNk56ZGduOWs1czVlVTQxL1VrcDRiQzJ0d2o1T0JLRGRXandGRGRMVlUvank2T0w5YUZMbnBPMkNmeTRCdXE0bFplKzk4OFFxYk9OSXdPQUp5YjN0cUR1NllFK214RE5pbGhxTW85QTNlZ24xdHlLKzZoQmVrVnRjVWxrRnRkckJvUURmZ3d0MVdVWGRYUTJ0NGZGMTBkbTcxQUJyZldMelVlcWNBNng0NVpSZjZJdUNjQ2dBWUxHcWdSZy9HZkJBR1BYTWplL3hwYnFpWWtJbWQ1OVVmVkhsWENoUjMrSzlmejcxeklwekFjQjkwMmVoRDdiRWxoMklWRGQyN1RqQkJtUm5LM1hMQzk0U09nS0xHMUdTZWxMNkpJREhmZk1NTFp4QTFZR1hWMU5yRHZ4UGZhbHJtcFpVT2l1K1I0OTRicStPenR1TjcyQ2Y4SXlzb2Y0Qy9TWUFoQ2ZVNjJZc3Uzd1N0VnFSMlBvSDNzSVd6QmZHMXphendwcWZxYjlBZndwd1hWb3UveVd4aXFzYlJaTTF5S1B3aXZlZXVYd2hRaVFLdXhyYnFMOUFZUUo4RHk5QzdrRExNMkQrOU16amJBK2E2NzVoR3Y5S3F2a3N5djFQOWtxaVF1OXNSaUhXRmExQ29CQUJReWFhbFlVLzJTYWEwc1EzSFJGYVRKL1k4b1A4SzJiNFk1MmRqdXZTbFpQTmtld3MvNDVXSVZDQUFHd0wrS2dxZFZxbGE3N0hsaHJMVWZiYzhUbTFBa1JjdG1NcUtoOTYzVGRPVnowUmZEbDE5RHlpZU9mMEhVcUhqLzFzUGl1VjVWOUxkZ1VnYTFEZHJCb01MclV5TUQ2SFdUSVhuYk5MTkhIRXZqb0lId1J5dnREMzZHS2xuVFdhZjVEaDB0Y3BkZ1VnVXVwR3I2Q2gxQXBDN3h2ajQ3SWNIeE1zQURObUIxL3RsYlJLVjB3T3Zya2h1bkJ2ZE5FKytaZ0xEdEg1dG1LekxRR2V1MnF3VDJONm9LdW9GVWpYVERHblFlanRUZFFxZ0NVRVQrV001VzZMV3N6SWdIcXBWY0NXZ0s0ZldaU05yMnVtSmhQMEhCdWZwak5XNDlPTG9lbmR0bXFuYUVxRHV1Q0FlcWxKSUwrQXdITXI4QzB0MHVXK1pRYTFBdS9kczd2SDU1RkYxSm9WL3pQTDJUY1JhMitiU2EwQWRhRkcrS0IyYXVYSkwwQStidXhvbFQ5UWs0bDVtRVRzcEtZY0pPcU10MVkzVVpNSmFvUURhcWNtbnY0UVVQdW5Fd0gxTFJkSXdJQk1vV2N2NEJSeVpSYngrc1BVWkZMd0lqWkdWVWpnZUZDWDNsK0wyUFUvMkVaZDZVQW0vKzFON21sSDNpKzNlV0lyRCtFTWtISG9ZeURySVoxeDlXY2dBKzdycDVtSFlQN0JrUkw1YWJkUEpwVWcxeW84V1ZNSkhqTVBSZG9pWEhsWVlWY0Fqa3ZzdTU0SWVrNjZkaXJTOTY3dHgxR0NvY2pNQk4vb0pkM0ozSjBXeWR4OTgya3lKNENGaE0rRzNyWEl1QWgyQlNqL2h2RmQ3QjQ5aFpkVm1Hc3g4RUxQL1Z4OFkvNTBPdm5yYWZyOURPaU84TWZmMnRvTURHd0pRTWFyRzNlM1Fqa1NUNVJIWnZaa0JPNWJxNVN6UWJISjVQRS92WXpXNGd4YkFwQ1g2eWtGQ0FsNmJNVnZhQTB5ZVBxS0ZlWXRuWHpDamZNbnRUckFsZ0JYK3VBWG1mVlRwc1F6c3NhTU5WWjdhMVl3UTVUVDdDYkx6bW5MRG5ZRnNPc25WVVBGV0x2aGNYWFlhc3hMRkF3Q2RjNU40S1ZWZUZIcnRBenRCV0ZYQUFpK3RSSExJRE9QMlV4QW91Sm9KblRmZ2pXMFJxb2JZOHNPaEQ3Y3dvZVVnaWhBZ010WW82R1B0dUpVenJaekRJaWlZbVNvVzE1OER5emdPMEpuSVNVZWZIMGQ5Y3hMWVFKNEVDbFJzWExLbnp2MFpzVzh2RUNqbzdOM2hjZlhtUU9DUU9sN3FPQ3JWZWNDcExJS3VZVWRYdU9yRGxGckRsaXFZMnpLbmhHek1vVm1keVQzZDFELzNEZ1g0REt1U1JCM3VZa2dQbnlJeUlEOUI2YlkwbC80UWd4ajFuOTk4dEluQVNBOHRwYUZDSXNucXdCTW15eW1TeWF5ZjMwMHJkQUoyVmNCRGdpK3NnWUNVcitmNXpzNzhQelh1cEh0VXYvY0ZFR0FOS3o3WHhrY2k3Mmo1aUExREk1WnIvclpmeVhoVCt1cGYyNktJTUJsWEVLYWY2anhEMDdKOW5PNERNVVJBTnpEcStKcm1qQm5FTkd4K2VBOFJIM3NVRFFCL1VWSlFMRXBDU2cySlFIRnBpU2cyRnowQXY0RHJWRUgwRXpMQ3UwQUFBQUFTVVZPUks1Q1lJST0iIHk9IjEzOTUuNDc2NiIvPjx0ZXh0IGZpbGw9IiMwMDAwMDAiIGZvbnQtZmFtaWx5PSJzYW5zLXNlcmlmIiBmb250LXNpemU9IjEyIiBsZW5ndGhBZGp1c3Q9InNwYWNpbmciIHRleHRMZW5ndGg9IjEyIiB4PSI3NzUiIHk9IjE0NzAuODIwMyI+W108L3RleHQ+PHJlY3QgZmlsbD0iI0ZGRkZGRiIgaGVpZ2h0PSIxMjAuODEyNSIgc3R5bGU9InN0cm9rZTojN0Q4OTk4O3N0cm9rZS13aWR0aDoxLjI1OyIgd2lkdGg9IjIwNiIgeD0iODQ4LjUiIHk9IjQwLjk4NDQiLz48dGV4dCBmaWxsPSIjMDAwMDAwIiBmb250LWZhbWlseT0ic2Fucy1zZXJpZiIgZm9udC1zaXplPSIxNCIgZm9udC1zdHlsZT0iaXRhbGljIiBsZW5ndGhBZGp1c3Q9InNwYWNpbmciIHRleHRMZW5ndGg9IjE5MiIgeD0iODU1LjUiIHk9IjYxLjIxODgiPiYjMTcxO1NpbXBsZU5vdGlmaWNhdGlvblNlcnZpY2UmIzE4Nzs8L3RleHQ+PHRleHQgZmlsbD0iIzAwMDAwMCIgZm9udC1mYW1pbHk9InNhbnMtc2VyaWYiIGZvbnQtc2l6ZT0iMTQiIGxlbmd0aEFkanVzdD0ic3BhY2luZyIgdGV4dExlbmd0aD0iNyIgeD0iOTQ4IiB5PSI3Ni4yMDMxIj4mIzE2MDs8L3RleHQ+PGltYWdlIGhlaWdodD0iNjQiIHdpZHRoPSI2NCIgeD0iOTE5LjUiIHhsaW5rOmhyZWY9ImRhdGE6aW1hZ2UvcG5nO2Jhc2U2NCxpVkJPUncwS0dnb0FBQUFOU1VoRVVnQUFBRUFBQUFCQUNBSUFBQUFsQythSkFBQUZYVWxFUVZSNFh1MlorMjhVVlJUSCtTZktvL2lLR0o4L3FNUjNpQnFqTVRIR0h3ajZnNGthRXlVeHhrUU5KaVo5SXBZRzZNTzJvQUxSRWdJTm9BSXEyRXFoMEJKckFKc2lXZ3FsbGRaV2RuWm0zek83TzdQejhrelB1dDNPMlc3dlRKY2RTZmJtazJaNno3MXp6L2ZPUGZlZW1WM2tLNnU0b1ZsRXEyNHNTZ0s4cGlUQWEwb0N2S1lrd0d0S0FyeW04QUw4ZDJ3SXY5a1IzM1ZXNlJ0Vmh6azlHRGRWWFk4a3RjbHc2bzlyaVc4R294VkhBczkvUVR1Nm8zQUNsbFNHMSs1WHpveWJtbTR5Rk8ydmdGamY3Yjluby8wK0RpbUVnS1ZWa2ZjUGFtTUI5TXhRVktWdkxMYStLN2o2YTJGVmkvK3VPdCt5S203RkJ2NkJ6WUhuUG85OGNDamVmZ2FlUnJweFRJNVYvK1FycjdiZms1bUZDdUJYTnFUT1RxQTM2cWdBU3JoYmFta3pPMHNxUVo3Y05Zd2RRNi90c1RkZ1prRUNJdThjZ0NrRUQ3U3BTUGl0ZmVBV2JaT2YwTXZ0VW1zdnJXZkh2WUJZYlJmT1gvTGc3eEM0dElGamxsVkoyMDVEME90Y0RGUnh5NW5XbFVzQnNacE95M2ZkaUg1NGlGcmRJYlgxNFl4Z1lYd3liZ1JBSUtMM2tYZS9wVlpIeU4yWHM1MkdFbnAxTjJEZG5vdlI5aFRIQW9USG00MWtDZ2FJdlBjZHRUckY1cjE1M1FXVVY2Y0dwK0R1aVk0QnU4a1Y2RFJlRjJNSndlNXVUcDlCM0czcnFkVUYyUUt1ZXhCek45WG92QWpqQmRlMFU2czdaZ2x3aFFNQjBYWGZ3MkNwZ1VscXNnNm1OZTFpMDBtbGQxVDdPMlJFazFiK0UwNW80MEg1K0dWeFMwOXc5VmUreFRsT2lhSUtnSlZqNWpvMUE4OXNWYThJNkVxZW9sN3lDMCszMmZxaWlZN0ZEcXNBNFluUFlDUmRrT2hFWWhha1hRMktqU2REcit6aUg5eGlSY2pTS3U3MlQvaUhHMkZMa1ZwNjRiRllHa1lGVzkvaUNZaCsvQ09NQk1rd05lSDBzd2hJWGJobTYxczhBWExuUlJnSmtoOXFpbjE2RFAyWXQ5Q0REK3ZwUGRsaEVBQzdXMnV2b1dnd1VueDdQMDE5L2ZmVlE4aUNOWEZnVURsMUJWSmxLOFBUZFBnTEV5K2ZHRW1kL3dlc3NOTGdzZGo2NWhEZ2NET2RYNEMwZGRiNUlqYjAwRGJKSTBOZ2l0VWRveVp3R3FPZlRyOHZsd0NueDluOEF2U0FaR2FkOExUNHByTml1TkFtUWpURXdXL0w5Ti8wMi9yT1ZkZ1Rpc0lJQUwvQmU3aUdJSjdWblV5L3ZmTWNwWkFDV0pZUUFPc0hyTENXc2l0dDAwL0JlMmJYRkg0SldWSFZrZzVpNmN0ZmFCQWo2VkJXZGJoSVY4TDBUeDhST1ZjL1FnVVVQb2dSZkg4TnI5MVBUUmxzb1R6djlQdHlDbkFJcTRCWTVWRVlLYkgzTjJyS2tBN2w4U0QrcTQ3dythZmZWMHdCa01aWXprMkdxV21HeFpYWkRxV3Y1NTcrbVRha25oMVdBZUFjNXRMNVA2cmxFRURhek5YZUhjd0N5aW9nSzRiQmtqLzhTVTBaL3RjQy9QZldHNG9LT1FML1VDTzFJaG1IaE1lYVdaeGphWk1mQndJQUNHTFR5a25QVXhPQ0RvWGYzbWU5MDBENmVXNkN0cUh0MC84NjNFQVJad0w0bFEyR3BKaTVYbXNRZEFoTDh2QUY3dFo1WHAyekJUZzl3aEJuQW9Eb1I5YUxwZTRYL1hmV1VTdCs1NEhOS3JydU1MVlNzajNHd3A1RUlJNEZ3SGFrbkI2REFaVCtxOXpOdFhhclF6ejRzQVh3OTIvQzcrUHd3czY0VWxrbzBoSkMrRWViOEZpUWY3N0VyU2pFbDkyeW9nUnhOc0pUYlhvb1lVN25Eb0ZudDlFR2pBUmYyaWsxbjZMMWpMZ1g0TU5mTndZbVRldFhHUTNTYktjZjJmMTNiMHgwRE9DQ0NiK3hselpnWVVFQ0FIalE4S0tNVHVpUnBManArRXc2UFRmQ3FwYjQ3blA0a2RpUVZiRyttM0hCVUJZcUFJRUVTZTRaUVJtbVlhUUdwOFROSitEdERKYVo5VE5lZVRXYzRzS1RyZUhYOThSMzlLc1h1VXhMdVhPWWY2U0ozcENkd2doQUFpOXNUeDRkTXVMV1NaZS9HS0ljMy9rcjdBVDBKazRwcEFDRVcxNERjdzh6RGM5RUhmTHBnbVNtSUg4U1llS2hCdFpZOE1VZHJoY01wZkFDaWt4SmdOZVVCSGhOU1lEWGxBUjRUVW1BMS93THNrdzFPbVhFNndZQUFBQUFTVVZPUks1Q1lJST0iIHk9Ijc3Ljk1MzEiLz48dGV4dCBmaWxsPSIjMDAwMDAwIiBmb250LWZhbWlseT0ic2Fucy1zZXJpZiIgZm9udC1zaXplPSIxMiIgbGVuZ3RoQWRqdXN0PSJzcGFjaW5nIiB0ZXh0TGVuZ3RoPSIxMiIgeD0iOTQ1LjUiIHk9IjE1My4yOTY5Ij5bXTwvdGV4dD48cmVjdCBmaWxsPSIjRkZGRkZGIiBoZWlnaHQ9IjEyMC44MTI1IiBzdHlsZT0ic3Ryb2tlOiM3RDg5OTg7c3Ryb2tlLXdpZHRoOjEuMjU7IiB3aWR0aD0iMjA2IiB4PSI4NDguNSIgeT0iMTM1OC41MDc4Ii8+PHRleHQgZmlsbD0iIzAwMDAwMCIgZm9udC1mYW1pbHk9InNhbnMtc2VyaWYiIGZvbnQtc2l6ZT0iMTQiIGZvbnQtc3R5bGU9Iml0YWxpYyIgbGVuZ3RoQWRqdXN0PSJzcGFjaW5nIiB0ZXh0TGVuZ3RoPSIxOTIiIHg9Ijg1NS41IiB5PSIxMzc4Ljc0MjIiPiYjMTcxO1NpbXBsZU5vdGlmaWNhdGlvblNlcnZpY2UmIzE4Nzs8L3RleHQ+PHRleHQgZmlsbD0iIzAwMDAwMCIgZm9udC1mYW1pbHk9InNhbnMtc2VyaWYiIGZvbnQtc2l6ZT0iMTQiIGxlbmd0aEFkanVzdD0ic3BhY2luZyIgdGV4dExlbmd0aD0iNyIgeD0iOTQ4IiB5PSIxMzkzLjcyNjYiPiYjMTYwOzwvdGV4dD48aW1hZ2UgaGVpZ2h0PSI2NCIgd2lkdGg9IjY0IiB4PSI5MTkuNSIgeGxpbms6aHJlZj0iZGF0YTppbWFnZS9wbmc7YmFzZTY0LGlWQk9SdzBLR2dvQUFBQU5TVWhFVWdBQUFFQUFBQUJBQ0FJQUFBQWxDK2FKQUFBRlhVbEVRVlI0WHUyWisyOFVWUlRIK1NmS28vaUtHSjgvcU1SM2lCcWpNVEhHSHdqNmc0a2FFeVV4eGtRTkppWjlJcFlHNk1PMm9BTFJFZ0lOb0FJcTJFcWgwQkpyQUpzaVdncWxsZFpXZG5abTN6TzdPN1B6OGt6UHV0M08yVzd2VEpjZFNmYm1rMlo2ejcxenovZk9QZmVlbVYza0s2dTRvVmxFcTI0c1NnSzhwaVRBYTBvQ3ZLWWt3R3RLQXJ5bThBTDhkMndJdjlrUjMzVlc2UnRWaHprOUdEZFZYWThrdGNsdzZvOXJpVzhHb3hWSEFzOS9RVHU2bzNBQ2xsU0cxKzVYem95Ym1tNHlGTzJ2Z0ZqZjdiOW5vLzArRGltRWdLVlZrZmNQYW1NQjlNeFFWS1Z2TExhK0s3ajZhMkZWaS8rdU90K3lLbTdGQnY2QnpZSG5Qbzk4Y0NqZWZnYWVScnB4VEk1Vi8rUXJyN2JmazVtRkN1QlhOcVRPVHFBMzZxZ0FTcmhiYW1rek8wc3FRWjdjTll3ZFE2L3RzVGRnWmtFQ0l1OGNnQ2tFRDdTcFNQaXRmZUFXYlpPZjBNdnRVbXN2cldmSHZZQlliUmZPWC9MZzd4QzR0SUZqbGxWSjIwNUQwT3RjREZSeHk1bldsVXNCc1pwT3kzZmRpSDU0aUZyZEliWDE0WXhnWVh3eWJnUkFJS0wza1hlL3BWWkh5TjJYczUyR0VucDFOMkRkbm92UjloVEhBb1RIbTQxa0NnYUl2UGNkdFRyRjVyMTUzUVdVVjZjR3ArRHVpWTRCdThrVjZEUmVGMk1Kd2U1dVRwOUIzRzNycWRVRjJRS3VleEJ6TjlYb3ZBampCZGUwVTZzN1pnbHdoUU1CMFhYZncyQ3BnVWxxc2c2bU5lMWkwMG1sZDFUN08yUkVrMWIrRTA1bzQwSDUrR1Z4UzA5dzlWZSt4VGxPaWFJS2dKVmo1am8xQTg5c1ZhOEk2RXFlb2w3eUMwKzMyZnFpaVk3RkRxc0E0WW5QWUNSZGtPaEVZaGFrWFEyS2pTZERyK3ppSDl4aVJjalNLdTcyVC9pSEcyRkxrVnA2NGJGWUdrWUZXOS9pQ1loKy9DT01CTWt3TmVIMHN3aElYYmhtNjFzOEFYTG5SUmdKa2g5cWluMTZEUDJZdDlDREQrdnBQZGxoRUFDN1cydXZvV2d3VW54N1AwMTkvZmZWUThpQ05YRmdVRGwxQlZKbEs4UFRkUGdMRXkrZkdFbWQvd2Vzc05MZ3NkajY1aERnY0RPZFg0QzBkZGI1SWpiMDBEYkpJME5naXRVZG95WndHcU9mVHI4dmx3Q254OW44QXZTQVpHYWQ4TFQ0cHJOaXVOQW1RalRFd1cvTDlOLzAyL3JPVmRnVGlzSUlBTC9CZTdpR0lKN1ZuVXkvdmZNY3BaQUNXSllRQU9zSHJMQ1dzaXR0MDAvQmUyYlhGSDRKV1ZIVmtnNWk2Y3RmYUJBajZWQldkYmhJVjhMMFR4OFJPVmMvUWdVVVBvZ1JmSDhOcjkxUFRSbHNvVHp2OVB0eUNuQUlxNEJZNVZFWUtiSDNOMnJLa0E3bDhTRCtxNDd3K2FmZlYwd0JrTVpZemsyR3FXbUd4WlhaRHFXdjU1NyttVGFrbmgxV0FlQWM1dEw1UDZybEVFRGF6TlhlSGN3Q3lpb2dLNGJCa2ovOFNVMFovdGNDL1BmV0c0b0tPUUwvVUNPMUlobUhoTWVhV1p4amFaTWZCd0lBQ0dMVHlrblBVeE9DRG9YZjNtZTkwMEQ2ZVc2Q3RxSHQwLzg2M0VBUlp3TDRsUTJHcEppNVhtc1FkQWhMOHZBRjd0WjVYcDJ6QlRnOXdoQm5Bb0RvUjlhTHBlNFgvWGZXVVN0KzU0SE5LcnJ1TUxWU3NqM0d3cDVFSUk0RndIYWtuQjZEQVpUK3E5ek50WGFyUXp6NHNBWHc5Mi9DNytQd3dzNjRVbGtvMGhKQytFZWI4RmlRZjc3RXJTakVsOTJ5b2dSeE5zSlRiWG9vWVU3bkRvRm50OUVHakFSZjJpazFuNkwxakxnWDRNTmZOd1ltVGV0WEdRM1NiS2NmMmYxM2IweDBET0NDQ2IreGx6WmdZVUVDQUhqUThLS01UdWlScExqcCtFdzZQVGZDcXBiNDduUDRrZGlRVmJHK20zSEJVQllxQUlFRVNlNFpRUm1tWWFRR3A4VE5KK0R0REphWjlUTmVlVFdjNHNLVHJlSFg5OFIzOUtzWHVVeEx1WE9ZZjZTSjNwQ2R3Z2hBQWk5c1R4NGRNdUxXU1plL0dLSWMzL2tyN0FUMEprNHBwQUNFVzE0RGN3OHpEYzlFSGZMcGdtU21JSDhTWWVLaEJ0Wlk4TVVkcmhjTXBmQUNpa3hKZ05lVUJIaE5TWURYbEFSNFRVbUExL3dMc2t3MU9tWEU2d1lBQUFBQVNVVk9SSzVDWUlJPSIgeT0iMTM5NS40NzY2Ii8+PHRleHQgZmlsbD0iIzAwMDAwMCIgZm9udC1mYW1pbHk9InNhbnMtc2VyaWYiIGZvbnQtc2l6ZT0iMTIiIGxlbmd0aEFkanVzdD0ic3BhY2luZyIgdGV4dExlbmd0aD0iMTIiIHg9Ijk0NS41IiB5PSIxNDcwLjgyMDMiPltdPC90ZXh0PjxyZWN0IGZpbGw9IiNGRkZGRkYiIGhlaWdodD0iMTIwLjgxMjUiIHN0eWxlPSJzdHJva2U6IzdEODk5ODtzdHJva2Utd2lkdGg6MS4yNTsiIHdpZHRoPSI3OCIgeD0iMTA3Ni41IiB5PSI0MC45ODQ0Ii8+PHRleHQgZmlsbD0iIzAwMDAwMCIgZm9udC1mYW1pbHk9InNhbnMtc2VyaWYiIGZvbnQtc2l6ZT0iMTQiIGZvbnQtc3R5bGU9Iml0YWxpYyIgbGVuZ3RoQWRqdXN0PSJzcGFjaW5nIiB0ZXh0TGVuZ3RoPSI1OSIgeD0iMTA4NiIgeT0iNjEuMjE4OCI+JiMxNzE7TGFtYmRhJiMxODc7PC90ZXh0Pjx0ZXh0IGZpbGw9IiMwMDAwMDAiIGZvbnQtZmFtaWx5PSJzYW5zLXNlcmlmIiBmb250LXNpemU9IjE0IiBsZW5ndGhBZGp1c3Q9InNwYWNpbmciIHRleHRMZW5ndGg9IjciIHg9IjExMTIiIHk9Ijc2LjIwMzEiPiYjMTYwOzwvdGV4dD48aW1hZ2UgaGVpZ2h0PSI2NCIgd2lkdGg9IjY0IiB4PSIxMDgzLjUiIHhsaW5rOmhyZWY9ImRhdGE6aW1hZ2UvcG5nO2Jhc2U2NCxpVkJPUncwS0dnb0FBQUFOU1VoRVVnQUFBRUFBQUFCQUNBSUFBQUFsQythSkFBQUZtVWxFUVZSNFh0V1pXMndVVlJqSEFSVzhFSTIzZUZjMHhuaUpDY1lIWStJbFhoNjh2SWd2bUhoNzBCZnd3VkJhMm1xaDBxSldyTEZBS1ZFaldHd0pwQkJJV2tFd1lFcEZrYmJCZ0ZiUUFpMFNLYVV6ZTcvTXp1Nk0zN2RuZHBoKzMzYjM3TTQ4T0pQZnkvLzh6NXc5Mzh5Wk9mOXBweW1McHZrYXFuMEgxYjZEYXQ5QnRlK2cybmRRN1R1bzloMVUrdzZxZlFmVmtpVDJyeklOdzVRNERDMGFibnVHaitBVlZFdVNQdjgzbmVuVWh6N3lDeC9CSzZpV1JCUVFXSEVYdDV5b1N5NHpJdVBRTTdUbWNlNTZBdFdTU0JZQXhIY3RnNTZwUDdxNTVRbFVTNUtaR01ZQ0d1L2tGa0d0dTliUVl2REFCRDk1Z0x2dW9Wb1MrUUlVOGNTYlp2TFFOOXh5RDlXU2xGUkFvSEdPbWRITmRDcnd3UzNjZFFuVmtwUlVBS0FOZGtML3hJL04zSElKMVpMa0NwakRyYndFbStkQ2Z5TVpWbXV2NHE0YnFKWWtNM0ZDdk9QSm9aL3VWeXBuOHY1QTZ0aHU2QkRycWVHV0c2aVdKTkczaHM0OWQwUTN2OFg3QTdBZmc1c0puMVdxWm5HM2JLaDJRMlRqS3pERjlMay9sWXJwM0FYMGZ3YXd3aTF2YzZ0c3FIYkY0b3N5eWttWVltVDlTOVRLRW1tZm42M3dtRkl4Zzd2bFFiVkxvbHNYd2hUMVV6OXpDNEVLc3c5UFpQMDhhcFVMMVM3QjhCTTlEMU1NdFQ3QlhjV3UwTHQ0UjdWNzRydVdtaGgrZXJpbE9DdjBLTjVSN1I3MS9XdmdHNkJBK1BFMjNsRmRCbXJOYkgyNE43Nm4wVzVKOUxiQUZKUDk3Ynd6OXJmalhkUDkzQzBWcXNzZzFyMEUzLytaZFBERHUwVkxvT0VPSy93c3Y0MzNWekRlcmNZS0QyM2dWcWxRWFNwcTFhV3dOMkVCTUtHRFg5dnQyc0MzMEpMby9aeWZvbmdhNzZndWxXalhBcGhvZXZ3NDNBR2NVTVB0b2oyNDhrRVR3MDlFZmU5cWZwYUM4VzRUVnJqdlUyNlZCTldsc2ZqaTNNNDFMOW0vRVNmVTEycTdxYUh2b0NXK3M0NmVsY1dyZUVkMVNVUTZYc1BMUHpZRTJTSFlkSjlwWkF3OUVWaDJvM0JEclUvaW94RTVCOHVNbjZ0NEZPK29Mb0dLNmVtenY4TU1vcDF2aUJidHR5NnlLdlRSWDdGRDF3SjZiaFpQNGgzVjhrRGd3WjlYUjJBaGlaYmNxb2pBVm1EMTJmQXk5cGtZaGhEQlIxQXczZzFpaFM3aUhkWHlXRmQzNjBKbkkyekF1TzUzTjFndEZUUHcrWWFIcEgwK0gwR1pGTy95QjlpaVVDMUo3dTZQa2ZVZFd2VW8zb1I0UUsyOVVyVEExWVVXQ05KOEVPUkN2TXNmWUl0Q3RTU3B2L2JDcjhhNnE2ZXk0ajIxVmt2VkxMRlJoTmM5eXpzRHNXM3ZZSVZUQmRoaVVDMURxT1VSY3BtZGhOYytoVzVrWEsyK1hMUkFuZENTT3I2SGQxYWM4VzcxWTl3dEN0VXlhRWQzNERYK1lRVzNCUHJJUVZ3VkhhOEtDVzk2SXhHQ2xtRHpRN3d6RVArK0hpc3NLOTVSWFJUSW1KRERJSTJwZGRkeEY2bThKS09PNHByNTRqbTdNYkZ2SmJSb2h6ZlR6bG5jeER1cWk2SU5kSmdZY2xxNEpZaHVlaE02cFA4OTZueXhCT3B2TnRNYXhJMnAvcFJVZHJ5anVqRHc4MWJtV1g0cmR4SFkzY2FHbk92SEJxSWVUdkdudGZTVUxObDRseDI1eEhoSGRXR1NCOWJoSkJ5cGsyRHRic29wZTNlekNYNThMNjY5VkZ4ZGVqMC9VY25GTytjQmFZcDNJMUJkZ0VEOVRhYWVoTUFUL09nZTdncnk3bTQyMnBIdHBuT2Jtd3c4QUVaMGd0VEF1eEdvTGtEdVFkekNMVUc0N1dtellIcXp0cm1Zb2xaZndWMENYQ2t2QzRCWUQ5SFh4RmZoWE80SzRFMXZPcmV3Zk9nbjlrT2YyUFozdVVYd3VBRHJTM3hvSjdjRW9jOGV4cXViQ0JYTzkrR3ZYc1M3cEk3eWg0VGdaUUZ3eDhYcUxMQlpXbGw2YnhPM0puRWhoTDlPcmNsNFdVQnN4eUlZU3ovWnh5MEJQTmE1cjVrYnVFdUE3d2NUTjRvajNITGlYUUdWTXpQQk16QlcrTXZucVpYRGVzY2ZhT05XSG1DckRwek9EdmdDdFJ4NFZvREl3K2t6aDdrbGdLM0gybVVsL21rcHNHN3BjQyszYkR3ckFMNDJUSWxERyt6azUwNkZXalBiaUt0MGlId0hQNWRBTlFldUV4MlZIWkNIWWFQbDV4WUEzcVQ0cDZHQ2g4Yzc4ZjhUcW4wSDFiNkRhdDlCdGUrZzJuZFE3VHVvOWgxVSt3NnFmY2Qvc1RWS0d3OC9ZUFVBQUFBQVNVVk9SSzVDWUlJPSIgeT0iNzcuOTUzMSIvPjx0ZXh0IGZpbGw9IiMwMDAwMDAiIGZvbnQtZmFtaWx5PSJzYW5zLXNlcmlmIiBmb250LXNpemU9IjEyIiBsZW5ndGhBZGp1c3Q9InNwYWNpbmciIHRleHRMZW5ndGg9IjY0IiB4PSIxMDgzLjUiIHk9IjE1My4yOTY5Ij5bRnVuY3Rpb25dPC90ZXh0PjxyZWN0IGZpbGw9IiNGRkZGRkYiIGhlaWdodD0iMTIwLjgxMjUiIHN0eWxlPSJzdHJva2U6IzdEODk5ODtzdHJva2Utd2lkdGg6MS4yNTsiIHdpZHRoPSI3OCIgeD0iMTA3Ni41IiB5PSIxMzU4LjUwNzgiLz48dGV4dCBmaWxsPSIjMDAwMDAwIiBmb250LWZhbWlseT0ic2Fucy1zZXJpZiIgZm9udC1zaXplPSIxNCIgZm9udC1zdHlsZT0iaXRhbGljIiBsZW5ndGhBZGp1c3Q9InNwYWNpbmciIHRleHRMZW5ndGg9IjU5IiB4PSIxMDg2IiB5PSIxMzc4Ljc0MjIiPiYjMTcxO0xhbWJkYSYjMTg3OzwvdGV4dD48dGV4dCBmaWxsPSIjMDAwMDAwIiBmb250LWZhbWlseT0ic2Fucy1zZXJpZiIgZm9udC1zaXplPSIxNCIgbGVuZ3RoQWRqdXN0PSJzcGFjaW5nIiB0ZXh0TGVuZ3RoPSI3IiB4PSIxMTEyIiB5PSIxMzkzLjcyNjYiPiYjMTYwOzwvdGV4dD48aW1hZ2UgaGVpZ2h0PSI2NCIgd2lkdGg9IjY0IiB4PSIxMDgzLjUiIHhsaW5rOmhyZWY9ImRhdGE6aW1hZ2UvcG5nO2Jhc2U2NCxpVkJPUncwS0dnb0FBQUFOU1VoRVVnQUFBRUFBQUFCQUNBSUFBQUFsQythSkFBQUZtVWxFUVZSNFh0V1pXMndVVlJqSEFSVzhFSTIzZUZjMHhuaUpDY1lIWStJbFhoNjh2SWd2bUhoNzBCZnd3VkJhMm1xaDBxSldyTEZBS1ZFaldHd0pwQkJJV2tFd1lFcEZrYmJCZ0ZiUUFpMFNLYVV6ZTcvTXp1Nk0zN2RuZHBoKzMzYjM3TTQ4T0pQZnkvLzh6NXc5Mzh5Wk9mOXBweW1McHZrYXFuMEgxYjZEYXQ5QnRlK2cybmRRN1R1bzloMVUrdzZxZlFmVmtpVDJyeklOdzVRNERDMGFibnVHaitBVlZFdVNQdjgzbmVuVWh6N3lDeC9CSzZpV1JCUVFXSEVYdDV5b1N5NHpJdVBRTTdUbWNlNTZBdFdTU0JZQXhIY3RnNTZwUDdxNTVRbFVTNUtaR01ZQ0d1L2tGa0d0dTliUVl2REFCRDk1Z0x2dW9Wb1MrUUlVOGNTYlp2TFFOOXh5RDlXU2xGUkFvSEdPbWRITmRDcnd3UzNjZFFuVmtwUlVBS0FOZGtML3hJL04zSElKMVpMa0NwakRyYndFbStkQ2Z5TVpWbXV2NHE0YnFKWWtNM0ZDdk9QSm9aL3VWeXBuOHY1QTZ0aHU2QkRycWVHV0c2aVdKTkczaHM0OWQwUTN2OFg3QTdBZmc1c0puMVdxWm5HM2JLaDJRMlRqS3pERjlMay9sWXJwM0FYMGZ3YXd3aTF2YzZ0c3FIYkY0b3N5eWttWVltVDlTOVRLRW1tZm42M3dtRkl4Zzd2bFFiVkxvbHNYd2hUMVV6OXpDNEVLc3c5UFpQMDhhcFVMMVM3QjhCTTlEMU1NdFQ3QlhjV3UwTHQ0UjdWNzRydVdtaGgrZXJpbE9DdjBLTjVSN1I3MS9XdmdHNkJBK1BFMjNsRmRCbXJOYkgyNE43Nm4wVzVKOUxiQUZKUDk3Ynd6OXJmalhkUDkzQzBWcXNzZzFyMEUzLytaZFBERHUwVkxvT0VPSy93c3Y0MzNWekRlcmNZS0QyM2dWcWxRWFNwcTFhV3dOMkVCTUtHRFg5dnQyc0MzMEpMby9aeWZvbmdhNzZndWxXalhBcGhvZXZ3NDNBR2NVTVB0b2oyNDhrRVR3MDlFZmU5cWZwYUM4VzRUVnJqdlUyNlZCTldsc2ZqaTNNNDFMOW0vRVNmVTEycTdxYUh2b0NXK3M0NmVsY1dyZUVkMVNVUTZYc1BMUHpZRTJTSFlkSjlwWkF3OUVWaDJvM0JEclUvaW94RTVCOHVNbjZ0NEZPK29Mb0dLNmVtenY4TU1vcDF2aUJidHR5NnlLdlRSWDdGRDF3SjZiaFpQNGgzVjhrRGd3WjlYUjJBaGlaYmNxb2pBVm1EMTJmQXk5cGtZaGhEQlIxQXczZzFpaFM3aUhkWHlXRmQzNjBKbkkyekF1TzUzTjFndEZUUHcrWWFIcEgwK0gwR1pGTy95QjlpaVVDMUo3dTZQa2ZVZFd2VW8zb1I0UUsyOVVyVEExWVVXQ05KOEVPUkN2TXNmWUl0Q3RTU3B2L2JDcjhhNnE2ZXk0ajIxVmt2VkxMRlJoTmM5eXpzRHNXM3ZZSVZUQmRoaVVDMURxT1VSY3BtZGhOYytoVzVrWEsyK1hMUkFuZENTT3I2SGQxYWM4VzcxWTl3dEN0VXlhRWQzNERYK1lRVzNCUHJJUVZ3VkhhOEtDVzk2SXhHQ2xtRHpRN3d6RVArK0hpc3NLOTVSWFJUSW1KRERJSTJwZGRkeEY2bThKS09PNHByNTRqbTdNYkZ2SmJSb2h6ZlR6bG5jeER1cWk2SU5kSmdZY2xxNEpZaHVlaE02cFA4OTZueXhCT3B2TnRNYXhJMnAvcFJVZHJ5anVqRHc4MWJtV1g0cmR4SFkzY2FHbk92SEJxSWVUdkdudGZTVUxObDRseDI1eEhoSGRXR1NCOWJoSkJ5cGsyRHRic29wZTNlekNYNThMNjY5VkZ4ZGVqMC9VY25GTytjQmFZcDNJMUJkZ0VEOVRhYWVoTUFUL09nZTdncnk3bTQyMnBIdHBuT2Jtd3c4QUVaMGd0VEF1eEdvTGtEdVFkekNMVUc0N1dtellIcXp0cm1Zb2xaZndWMENYQ2t2QzRCWUQ5SFh4RmZoWE80SzRFMXZPcmV3Zk9nbjlrT2YyUFozdVVYd3VBRHJTM3hvSjdjRW9jOGV4cXViQ0JYTzkrR3ZYc1M3cEk3eWg0VGdaUUZ3eDhYcUxMQlpXbGw2YnhPM0puRWhoTDlPcmNsNFdVQnN4eUlZU3ovWnh5MEJQTmE1cjVrYnVFdUE3d2NUTjRvajNITGlYUUdWTXpQQk16QlcrTXZucVpYRGVzY2ZhT05XSG1DckRwek9EdmdDdFJ4NFZvREl3K2t6aDdrbGdLM0gybVVsL21rcHNHN3BjQyszYkR3ckFMNDJUSWxERyt6azUwNkZXalBiaUt0MGlId0hQNWRBTlFldUV4MlZIWkNIWWFQbDV4WUEzcVQ0cDZHQ2g4Yzc4ZjhUcW4wSDFiNkRhdDlCdGUrZzJuZFE3VHVvOWgxVSt3NnFmY2Qvc1RWS0d3OC9ZUFVBQUFBQVNVVk9SSzVDWUlJPSIgeT0iMTM5NS40NzY2Ii8+PHRleHQgZmlsbD0iIzAwMDAwMCIgZm9udC1mYW1pbHk9InNhbnMtc2VyaWYiIGZvbnQtc2l6ZT0iMTIiIGxlbmd0aEFkanVzdD0ic3BhY2luZyIgdGV4dExlbmd0aD0iNjQiIHg9IjEwODMuNSIgeT0iMTQ3MC44MjAzIj5bRnVuY3Rpb25dPC90ZXh0PjxyZWN0IGZpbGw9IiNGRkZGRkYiIGhlaWdodD0iMTIwLjgxMjUiIHN0eWxlPSJzdHJva2U6IzdEODk5ODtzdHJva2Utd2lkdGg6MS4yNTsiIHdpZHRoPSI5NSIgeD0iMTIxMiIgeT0iNDAuOTg0NCIvPjx0ZXh0IGZpbGw9IiMwMDAwMDAiIGZvbnQtZmFtaWx5PSJzYW5zLXNlcmlmIiBmb250LXNpemU9IjE0IiBmb250LXN0eWxlPSJpdGFsaWMiIGxlbmd0aEFkanVzdD0ic3BhY2luZyIgdGV4dExlbmd0aD0iMzciIHg9IjEyNDEiIHk9IjYxLjIxODgiPiYjMTcxO0VDMiYjMTg3OzwvdGV4dD48dGV4dCBmaWxsPSIjMDAwMDAwIiBmb250LWZhbWlseT0ic2Fucy1zZXJpZiIgZm9udC1zaXplPSIxNCIgbGVuZ3RoQWRqdXN0PSJzcGFjaW5nIiB0ZXh0TGVuZ3RoPSI3IiB4PSIxMjU2IiB5PSI3Ni4yMDMxIj4mIzE2MDs8L3RleHQ+PGltYWdlIGhlaWdodD0iNjQiIHdpZHRoPSI2NCIgeD0iMTIyNy41IiB4bGluazpocmVmPSJkYXRhOmltYWdlL3BuZztiYXNlNjQsaVZCT1J3MEtHZ29BQUFBTlNVaEVVZ0FBQUVBQUFBQkFDQUlBQUFBbEMrYUpBQUFDRUVsRVFWUjRYdTJZTVU0Rk1Rd0ZPU2RIb09OTXRCUWNqQlVGSHlTYUR5dForcGp4MnZHdWc4Q0NhSW9kSjNsT3l1elZjbnZWR25vNzZPMmd0NFBlRG5vNzZPMmd0NFBlRG5vNzZCTjV2cnMrbng3ZkMyUGR2b2JZWkExOUlzWFR5MWhEYkxLR1BoRTVnYTNueVNUUUo1SnBINU5Kb0U4azB6NG1rMENmU0taOVRDYUIvcXY0djBBT3ROR2ErUTdJTEtNZkFHMjhnM3JmQVpsbDlBT2dqWGRRN3pzZ3M0eStpNWVIMi9QYlNkb2NHT3ZlTmNIR1hwQmx0cTZoNzZKeWVobHJnbzI5SUd0c1hVTlBvZzloWjVQb2tNMGNyNjZoSjRrYko5RWhtemxlWFVQZlJhWkJ3SEQ3Y01IeWR5OGcwWmtHQVRwa004ZXJhK2hKNHNaSmRNaG1qbGZYMEhlUmFSQXczRDVjc0F3dllOKzFldFpXZGpIY1BseXdEQzlnMzdWU3Q1VUQ2SkROSEsrdW9RTXY0clB0MW13U0hYTEpRYkg2cUpjVVc4L01EdG5jTGtVWkUzNnJiUFpJemc0cGJoZm9JTzRSenc0cGJoZm93T3NoZFc4MmlRNDVuRU1IWG5TOThmS3pGOGpNRGlsdUYrZ2c3aEhQRGlsdUYrakE2eUYxYnphSkRqbWNRd2RlOU5mV2M0YnRrb0VPNHVqVC9jMzU5ZW5yTVhhTWRlK2FZR04zUVFmU3lkYUROVm96MzBYb0lOTUphN3lEZXQ5RjZDRFRDV3U4ZzNyZlJlaGdZcWR2Z2c3K0x6QWhJWVlPNnUzckNURjBVRzlmVDRpaGczcjdla0lNSGRoSC9ZRXhmTmRXb0FQN1cyWHZ5THhySzlEYlFXOEh2UjMwZHREYlFXOEh2UjMwZHREYlFXL0hCd3BJNzgxYXNPOEdBQUFBQUVsRlRrU3VRbUNDIiB5PSI3Ny45NTMxIi8+PHRleHQgZmlsbD0iIzAwMDAwMCIgZm9udC1mYW1pbHk9InNhbnMtc2VyaWYiIGZvbnQtc2l6ZT0iMTIiIGxlbmd0aEFkanVzdD0ic3BhY2luZyIgdGV4dExlbmd0aD0iODEiIHg9IjEyMTkiIHk9IjE1My4yOTY5Ij5bQXBwIFNlcnZlcl08L3RleHQ+PHJlY3QgZmlsbD0iI0ZGRkZGRiIgaGVpZ2h0PSIxMjAuODEyNSIgc3R5bGU9InN0cm9rZTojN0Q4OTk4O3N0cm9rZS13aWR0aDoxLjI1OyIgd2lkdGg9Ijk1IiB4PSIxMjEyIiB5PSIxMzU4LjUwNzgiLz48dGV4dCBmaWxsPSIjMDAwMDAwIiBmb250LWZhbWlseT0ic2Fucy1zZXJpZiIgZm9udC1zaXplPSIxNCIgZm9udC1zdHlsZT0iaXRhbGljIiBsZW5ndGhBZGp1c3Q9InNwYWNpbmciIHRleHRMZW5ndGg9IjM3IiB4PSIxMjQxIiB5PSIxMzc4Ljc0MjIiPiYjMTcxO0VDMiYjMTg3OzwvdGV4dD48dGV4dCBmaWxsPSIjMDAwMDAwIiBmb250LWZhbWlseT0ic2Fucy1zZXJpZiIgZm9udC1zaXplPSIxNCIgbGVuZ3RoQWRqdXN0PSJzcGFjaW5nIiB0ZXh0TGVuZ3RoPSI3IiB4PSIxMjU2IiB5PSIxMzkzLjcyNjYiPiYjMTYwOzwvdGV4dD48aW1hZ2UgaGVpZ2h0PSI2NCIgd2lkdGg9IjY0IiB4PSIxMjI3LjUiIHhsaW5rOmhyZWY9ImRhdGE6aW1hZ2UvcG5nO2Jhc2U2NCxpVkJPUncwS0dnb0FBQUFOU1VoRVVnQUFBRUFBQUFCQUNBSUFBQUFsQythSkFBQUNFRWxFUVZSNFh1MllNVTRGTVF3Rk9TZEhvT05NdEJRY2pCVUZIeVNhRHl0Witwangydkd1ZzhDQ2FJb2RKM2xPeXV6VmNudlZHbm83Nk8yZ3Q0UGVEbm83Nk8yZ3Q0UGVEbm83NkJONXZycytueDdmQzJQZHZvYllaQTE5SXNYVHkxaERiTEtHUGhFNWdhM255U1RRSjVKcEg1TkpvRThrMHo0bWswQ2ZTS1o5VENhQi9xdjR2MEFPdE5HYStRN0lMS01mQUcyOGczcmZBWmxsOUFPZ2pYZFE3enNnczR5K2k1ZUgyL1BiU2RvY0dPdmVOY0hHWHBCbHRxNmg3Nkp5ZWhscmdvMjlJR3RzWFVOUG9nOWhaNVBva00wY3I2NmhKNGtiSjlFaG16bGVYVVBmUmFaQndIRDdjTUh5ZHk4ZzBaa0dBVHBrTThlcmEraEo0c1pKZE1obWpsZlgwSGVSYVJBdzNENWNzQXd2WU4rMWV0WldkakhjUGx5d0RDOWczN1ZTdDVVRDZKRE5ISyt1b1FNdjRyUHQxbXdTSFhMSlFiSDZxSmNVVzgvTUR0bmNMa1VaRTM2cmJQWkl6ZzRwYmhmb0lPNFJ6dzRwYmhmb3dPc2hkVzgyaVE0NW5FTUhYblM5OGZLekY4ak1EaWx1RitnZzdoSFBEaWx1RitqQTZ5RjFiemFKRGptY1F3ZGU5TmZXYzRidGtvRU80dWpUL2MzNTllbnJNWGFNZGUrYVlHTjNRUWZTeWRhRE5Wb3ozMFhvSU5NSmE3eURldDlGNkNEVENXdThnM3JmUmVoZ1lxZHZnZzcrTHpBaElZWU82dTNyQ1RGMFVHOWZUNGloZzNyN2VrSU1IZGhIL1lFeGZOZFdvQVA3VzJYdnlMeHJLOURiUVc4SHZSMzBkdERiUVc4SHZSMzBkdERiUVcvSEJ3cEk3ODFhc084R0FBQUFBRWxGVGtTdVFtQ0MiIHk9IjEzOTUuNDc2NiIvPjx0ZXh0IGZpbGw9IiMwMDAwMDAiIGZvbnQtZmFtaWx5PSJzYW5zLXNlcmlmIiBmb250LXNpemU9IjEyIiBsZW5ndGhBZGp1c3Q9InNwYWNpbmciIHRleHRMZW5ndGg9IjgxIiB4PSIxMjE5IiB5PSIxNDcwLjgyMDMiPltBcHAgU2VydmVyXTwvdGV4dD48cmVjdCBmaWxsPSIjRkZGRkZGIiBoZWlnaHQ9IjEyMC44MTI1IiBzdHlsZT0ic3Ryb2tlOiM3RDg5OTg7c3Ryb2tlLXdpZHRoOjEuMjU7IiB3aWR0aD0iMTAwIiB4PSIxMzYxLjUiIHk9IjQwLjk4NDQiLz48dGV4dCBmaWxsPSIjMDAwMDAwIiBmb250LWZhbWlseT0ic2Fucy1zZXJpZiIgZm9udC1zaXplPSIxNCIgZm9udC1zdHlsZT0iaXRhbGljIiBsZW5ndGhBZGp1c3Q9InNwYWNpbmciIHRleHRMZW5ndGg9Ijg2IiB4PSIxMzY4LjUiIHk9IjYxLjIxODgiPiYjMTcxO0VNUkNsdXN0ZXImIzE4Nzs8L3RleHQ+PHRleHQgZmlsbD0iIzAwMDAwMCIgZm9udC1mYW1pbHk9InNhbnMtc2VyaWYiIGZvbnQtc2l6ZT0iMTQiIGxlbmd0aEFkanVzdD0ic3BhY2luZyIgdGV4dExlbmd0aD0iNyIgeD0iMTQwOCIgeT0iNzYuMjAzMSI+JiMxNjA7PC90ZXh0PjxpbWFnZSBoZWlnaHQ9IjY0IiB3aWR0aD0iNjQiIHg9IjEzNzkuNSIgeGxpbms6aHJlZj0iZGF0YTppbWFnZS9wbmc7YmFzZTY0LGlWQk9SdzBLR2dvQUFBQU5TVWhFVWdBQUFFQUFBQUJBQ0FZQUFBQ3FhWEhlQUFBSEtFbEVRVlI0WHUxYmVZaFZWUmkzZmFHTlZvaHNwY1VXb3BVZ0twUDJmSnZPSkJXVkVkZ0NyVlJHRm8yQnpuYm16V0Q1UjVnR0lpUVRVV0NMRkdSWlpKdjF4MGdUVVUxUktlV00xcFNUcGVQWDc3djNuRHZmKytiZDkrNWJycjQzemc5K3pQT2U3M3ozZkwrem4zT2RNR0VjNDlpbGFFdlRLU1pKZDBSaGU1cHV5amJTNGRwSDNhSTlRMGViRkEyQlZBSS8xWDdxRnRrMFhad253R0w4VS91cFd5Z0JsdXNtbjhNVTlZeHBBVHBTOUtoT2w0RE55bkVCeGdVSXVzdWlwZ1FkcUczcURoVUl3RnlYVGRCWjJxNnVVS0VBbkdjTDFnWjNhZHU2UVRrQ2NOQ1lGVllvTVpZdGJLU0RkSjZhQjRLWlVhb0F4ZzZDK1BzdytKOFFvVGVib25OMHZwb0ZDbnlmQ21BQTdDdEF0MklNWmdHVG9JdHNtdk14MUo2aU8rVjdhZzVOamJRdkNycElGTG9rdGlmcGQrbXZNMDJIZGFUcDlSeTdOQzF1bWt6N1M3dWFRRmVTamtGVC8wZ1U5bC93WmZBN00xTFRNdUQxNGptekI4SE5rajQ3TW5SYVI1S2VRZHFQS3U5WC9Id1UwelJkNXQ5cFFNRXZRS0YrRmdYYzBKYWtTL1BZTFhZMktQQ0xPbDJEQTFXQlIrR1oyazlCY0FhTXZGZnptaHdLM2h1b2lZSEwyNlltYUVwcmtvN1YrUnhnYzZzUnV6NzAwODlicDlGeDJvNng0SG82eElqYVJBMVAxVFlTc1BrMVQ0QUZpYWx6c3ZhVEE2OFFTYm9IeGl1OWFTZVBreEJ1QUpkeU0ydHFvajI3RzJrdi9MdE4yU3pEbnY0QS9VNEppSHNsN0lhZHova1pPa0xiT0JnckFJdUs4ZURFTUNLZXAxd1pRZ1dnQ2JRSFh2NElqQVpWb1V0bm1yN0Yzdy9FcyswWXdCN1Q3d3dEOG5jSlg5MDYzY0ZZQVhoczBXa1MzSEtkdjFBQmtQaThDb1JyWVEweVA4Y3R3cXNaVEQyc0tKcm11ZXlJbXlqVWZ3QjJTOEIxS3Ivalp2QmEvYjVDNEZhQ1BMMkJqelRkTE5OZm1FWDdzRTlqSzZ0aUFRejM4eFR0c0VaL3dlR2NRdjA2REowWm1vVDhDOEh0N29Vc2xyYUxBcnRTM0diOURKaHBkSUlObXNYbWRVTWdjc1VDY0w4VkRnZWcrUDA4eDJxN1lrQkJKcUsxdEJwL2l2TmZtS0NUdEYxVW9OczhLOHJsS21nVUt4WUFDUTNhS2JnVlFyeGovSUdzZ1RQeWN0TU5MQnlZMXczU05OUDIyVFY1ZkJBZmZPcjNGUUkzYitTNXhrNkpPVFV0eUd1SGVjYnZYckVKVUJWR0VTQmkwSTROTHArcDFpRElUcDBCRzhQb0lidHEyNXFuQUdFY3hJRDROb0s0VFk3aVlRSkVETnFyYWZodGQ4OVFydFU4emJJUEU0Y0EvTnM5eDVwZ1B4Nk0rRXdlaFpodEYwQXRzSm5MdjFrb0JKRG1nWTZuVVpjUEw1enYvRWtCc0ViZk8yclE4SDlla0E4QlkyejUwTm00M2FPcDFrTEloQWhRTHFRQW1FMU9GMEgzNndKWmpncGF3N3RFd1F4bDdmL2hFeUZVeXRkNWZCVmtXNExPMTc1akZRRDhXeGZDWTVLK3g5OTVlUXNVQXRUODNTNC8zckcyTFVXWEdUc1FNakZydkkrL0w0VXlTUTlxbng1TXZBTGtCTTFwcFFTdDRZMHp1UUg3djlFYXl0NEd4eXBBRllLVzRBVWEvRzVTNG03alZhcTJqWXc0QlFpYkJTb0JhdnNXSmNCY2JWTVM2azBBdTFzTkJNRGcyYWx0U2tLY0FvRDlmTGpCWndvOERXcmJVcUZtQThmaHZOTmJWTVFzZ0dSRll1ajFBUGlhK04zSFp4azZUeVRFTEFDZjdXa2h5aEtEenhSY2ZsNFJacE4wblpIVG9MOHVXQlZHM2x6SkJWc0FFNk1BWHBQMXp3U2I3ZHl2aFlna1JudUd6allqUy9QQnp1bDBzajE0MGI0S2tsZTIybmZzQXNpMHFHS2dOcTl5WXRnRGtDOERHM3M2Yk9waEthd0ZrSWdneGthdlpZalRZdGkrRmVTUGV6TlVMcUlLSUJHSWthSWZSRmxHRWNIZTdscUdHVXNDU0dCd3U5QVVGbU9qOFcrWVlqa1EyZVVDT01oekJSTzJxYXFHQUpnZWJoUU9uOURwcFlDbkdSUzhPM2hoZ3Fab215aFE5d1ByK1g2QVc0WTlqOGhwR1JVTHNLQ1Jqakx5bTcwa3JVREJVNlY4aXNJRnhJdG1nbXRWNGJZWWRheGRERkZ1aUd3M3FVNFhZUERnWW5LdnJKazg3MzRCTGpWOENtU3Z3NWo0UGNmV3huSXo4aG1icFBiVjdJNnlpc0g0Ujk5KzhBWHVDRTIxQmtHSGpnUmRZdnhWa3c2bUZBNXpGL0JPamxNMDI0ZzdBcDdDV2hycFVQMWVDZVJKQ0Y5OTJQNGVyRzBjek1nNm9JY0RDeU52bHB6UGdnSTRHUCtpNUVrVTVrM2pqN2c2U0VrK3IrOUYwSy95QndyOENhejBwWmVyNERmWXU1OGhiUnp3L0VqajN6RjZRbVl6ZElXMmtURFZXZ2dWQXc5czNuMUFoaVk1VlhuZTVtZjgwWU8yMStCN2ZDT3Z1bEwwQjVydERkb096MThSTmxtZHJnR2JUM1NBUlRqY05wVk8xWDUyQ3V6QTlvWXNEUGl1c1I5QVFKQ2ZWR0YvY1drQjAvUzQ5SWs4RTNtRHhGK095THg0dnRvN3djNzlPT0xwWWkwcWRuamJXZjlHUjlkTVZQWkxmL1o0VE41QzcrQ0JtYS9tcFYzTkFZV2M0VTJQSXdYblkvRlZCZWp1RUlLUHBMeWo5aFQ5Sm54c1JrMG41WHRxR25LMDUrbFZwMHNZOFprYzd3UHNTdE10a25oMytCbVBSenBmVGFPY0R5WEJJWjd6UmExejhGMjhYZFo1YWg1bENpQzVpVmVyMnJadVVLRUFIN2NrNkhodFYxY29Vd0R1OTgxaHgyWjFoVElGMk8zL3c4VFlGTURzanY5cHluN3RMUWUyS0J3N0F2QUJpc25kSlViaGU5cFBYWU8vSU5kNzl6Q2lLMXhlOXYzL09NYVJGLzhEOVd0YlQ4clRWaXNBQUFBQVNVVk9SSzVDWUlJPSIgeT0iNzcuOTUzMSIvPjx0ZXh0IGZpbGw9IiMwMDAwMDAiIGZvbnQtZmFtaWx5PSJzYW5zLXNlcmlmIiBmb250LXNpemU9IjEyIiBsZW5ndGhBZGp1c3Q9InNwYWNpbmciIHRleHRMZW5ndGg9Ijc4IiB4PSIxMzcyLjUiIHk9IjE1My4yOTY5Ij5bRGF0YWJyaWNrc108L3RleHQ+PHJlY3QgZmlsbD0iI0ZGRkZGRiIgaGVpZ2h0PSIxMjAuODEyNSIgc3R5bGU9InN0cm9rZTojN0Q4OTk4O3N0cm9rZS13aWR0aDoxLjI1OyIgd2lkdGg9IjEwMCIgeD0iMTM2MS41IiB5PSIxMzU4LjUwNzgiLz48dGV4dCBmaWxsPSIjMDAwMDAwIiBmb250LWZhbWlseT0ic2Fucy1zZXJpZiIgZm9udC1zaXplPSIxNCIgZm9udC1zdHlsZT0iaXRhbGljIiBsZW5ndGhBZGp1c3Q9InNwYWNpbmciIHRleHRMZW5ndGg9Ijg2IiB4PSIxMzY4LjUiIHk9IjEzNzguNzQyMiI+JiMxNzE7RU1SQ2x1c3RlciYjMTg3OzwvdGV4dD48dGV4dCBmaWxsPSIjMDAwMDAwIiBmb250LWZhbWlseT0ic2Fucy1zZXJpZiIgZm9udC1zaXplPSIxNCIgbGVuZ3RoQWRqdXN0PSJzcGFjaW5nIiB0ZXh0TGVuZ3RoPSI3IiB4PSIxNDA4IiB5PSIxMzkzLjcyNjYiPiYjMTYwOzwvdGV4dD48aW1hZ2UgaGVpZ2h0PSI2NCIgd2lkdGg9IjY0IiB4PSIxMzc5LjUiIHhsaW5rOmhyZWY9ImRhdGE6aW1hZ2UvcG5nO2Jhc2U2NCxpVkJPUncwS0dnb0FBQUFOU1VoRVVnQUFBRUFBQUFCQUNBWUFBQUNxYVhIZUFBQUhLRWxFUVZSNFh1MWJlWWhWVlJpM2ZhR05Wb2hzcGNVV29wVWdLcFAyZkp2T0pCV1ZFZGdDclZSR0ZvMkJ6bmJteldENVI1Z0dJaVFUVVdDTEZHUlpaSnYxeDBnVFVVMVJLZVdNMXBTVHBlUFg3N3YzbkR2ZisrYmQ5KzVicnI0M3pnOSt6UE9lNzN6M2ZMK3puM09kTUdFYzQ5aWxhRXZUS1NaSmQwUmhlNXB1eWpiUzRkcEgzYUk5UTBlYkZBMkJWQUkvMVg3cUZ0azBYWndud0dMOFUvdXBXeWdCbHVzbW44TVU5WXhwQVRwUzlLaE9sNEROeW5FQnhnVUl1c3VpcGdRZHFHM3FEaFVJd0Z5WFRkQloycTZ1VUtFQW5HY0wxZ1ozYWR1NlFUa0NjTkNZRlZZb01aWXRiS1NEZEo2YUI0S1pVYW9BeGc2QytQc3crSjhRb1RlYm9uTjB2cG9GQ255ZkNtQUE3Q3RBdDJJTVpnR1RvSXRzbXZNeDFKNmlPK1Y3YWc1TmpiUXZDcnBJRkxva3RpZnBkK212TTAySGRhVHA5Unk3TkMxdW1rejdTN3VhUUZlU2prRlQvMGdVOWwvd1pmQTdNMUxUTXVEMTRqbXpCOEhOa2o0N01uUmFSNUtlUWRxUEt1OVgvSHdVMHpSZDV0OXBRTUV2UUtGK0ZnWGMwSmFrUy9QWUxYWTJLUENMT2wyREExV0JSK0daMms5QmNBYU12RmZ6bWh3SzNodW9pWUhMMjZZbWFFcHJrbzdWK1J4Z2M2c1J1ejcwMDg5YnA5RngybzZ4NEhvNnhJamFSQTFQMVRZU3NQazFUNEFGaWFsenN2YVRBNjhRU2JvSHhpdTlhU2VQa3hCdUFKZHlNMnRxb2oyN0cya3YvTHROMlN6RG52NEEvVTRKaUhzbDdJYWR6L2taT2tMYk9CZ3JBSXVLOGVERU1DS2VwMXdaUWdXZ0NiUUhYdjRJakFaVm9VdG5tcjdGM3cvRXMrMFl3QjdUN3d3RDhuY0pYOTA2M2NGWUFYaHMwV2tTM0hLZHYxQUJrUGk4Q29ScllRMHlQOGN0d3FzWlREMnNLSnJtdWV5SW15alVmd0IyUzhCMUtyL2padkJhL2I1QzRGYUNQTDJCanpUZExOTmZtRVg3c0U5aks2dGlBUXozOHhUdHNFWi93ZUdjUXYwNkRKMFptb1Q4QzhIdDdvVXNscmFMQXJ0UzNHYjlESmhwZElJTm1zWG1kVU1nY3NVQ2NMOFZEZ2VnK1AwOHgycTdZa0JCSnFLMXRCcC9pdk5mbUtDVHRGMVVvTnM4SzhybEttZ1VLeFlBQ1EzYUtiZ1ZRcnhqL0lHc2dUUHljdE1OTEJ5WTF3M1NOTlAyMlRWNWZCQWZmT3IzRlFJM2IrUzV4azZKT1RVdHlHdUhlY2J2WHJFSlVCVkdFU0JpMEk0TkxwK3AxaURJVHAwQkc4UG9JYnRxMjVxbkFHRWN4SUQ0Tm9LNFRZN2lZUUpFRE5xcmFmaHRkODlRcnRVOHpiSVBFNGNBL05zOXg1cGdQeDZNK0V3ZWhaaHRGMEF0c0puTHYxa29CSkRtZ1k2blVaY1BMNXp2L0VrQnNFYmZPMnJROEg5ZWtBOEJZMno1ME5tNDNhT3Axa0xJaEFoUUxxUUFtRTFPRjBIMzZ3SlpqZ3Bhdzd0RXdReGw3Zi9oRXlGVXl0ZDVmQlZrVzRMTzE3NWpGUUQ4V3hmQ1k1Syt4OTk1ZVFzVUF0VDgzUzQvM3JHMkxVV1hHVHNRTWpGcnZJKy9MNFV5U1E5cW54NU12QUxrQk0xcHBRU3Q0WTB6dVFIN3Y5RWF5dDRHeHlwQUZZS1c0QVVhL0c1UzRtN2pWYXEyall3NEJRaWJCU29CYXZzV0pjQmNiVk1TNmswQXUxc05CTURnMmFsdFNrS2NBb0Q5ZkxqQlp3bzhEV3JiVXFGbUE4Zmh2Tk5iVk1Rc2dHUkZZdWoxQVBpYStOM0haeGs2VHlURUxBQ2Y3V2toeWhLRHp4UmNmbDRSWnBOMG5aSFRvTDh1V0JWRzNsekpCVnNBRTZNQVhwUDF6d1NiN2R5dmhZZ2tSbnVHempZalMvUEJ6dWwwc2oxNDBiNEtrbGUyMm5mc0FzaTBxR0tnTnE5eVl0Z0RrQzhERzNzNmJPcGhLYXdGa0lnZ3hrYXZaWWpUWXRpK0ZlU1Blek5VTHFJS0lCR0lrYUlmUkZsR0VjSGU3bHFHR1VzQ1NHQnd1OUFVRm1PajhXK1lZamtRMmVVQ09NaHpCUk8ycWFxR0FKZ2ViaFFPbjlEcHBZQ25HUlM4TzNoaGdxWm9teWhROXdQcitYNkFXNFk5ajhocEdSVUxzS0NSampMeW03MGtyVURCVTZWOGlzSUZ4SXRtZ210VjRiWVlkYXhkREZGdWlHdzNxVTRYWVBEZ1luS3ZySms4NzM0QkxqVjhDbVN2dzVqNFBjZld4bkl6OGhtYnBQYlY3STZ5aXNINFI5OSs4QVh1Q0UyMUJrR0hqZ1JkWXZ4Vmt3Nm1GQTV6Ri9CT2psTTAyNGc3QXA3Q1docnBVUDFlQ2VSSkNGOTkyUDRlckcwY3pNZzZvSWNEQ3lOdmxwelBnZ0k0R1AraTVFa1U1azNqajdnNlNFaytyKzlGMEsveUJ3cjhDYXowcFplcjREZll1NThoYlJ6dy9FamozekY2UW1ZemRJVzJrVERWV2dnVkF3OXMzbjFBaGlZNVZYbmU1bWY4MFlPMjErQjdmQ092dWxMMEI1cnREZG9PejE4Uk5sbWRyZ0diVDNTQVJUamNOcFZPMVg1MkN1ekE5b1lzRFBpdXNSOUFRSkNmVkdGL2NXa0IwL1M0OUlrOEUzbUR4RitPeUx4NHZ0bzd3Yzc5T09McFlpMHFkbmpiV2Y5R1I5ZE1WUFpMZi9aNFRONUM3K0NCbWEvbXBWM05BWVdjNFUyUEl3WG5ZL0ZWQmVqdUVJS1BwTHlqOWhUOUpueHNSazBuNVh0cUduSzA1K2xWcDBzWThaa2M3d1BzU3RNdGtuaDMrQm1QUnpwZlRhT2NEeVhCSVo3elJhMXo4RjI4WGRaNWFoNWxDaUM1aVZlcjJyWnVVS0VBSDdjazZIaHRWMWNvVXdEdTk4MWh4MloxaFRJRjJPMy93OFRZRk1Ec2p2OXB5bjd0TFFlMktCdzdBdkFCaXNuZEpVYmhlOXBQWFlPL0lOZDc5ekNpSzF4ZTl2My9PTWFSRi84RDlXdGJUOHJUVmlzQUFBQUFTVVZPUks1Q1lJST0iIHk9IjEzOTUuNDc2NiIvPjx0ZXh0IGZpbGw9IiMwMDAwMDAiIGZvbnQtZmFtaWx5PSJzYW5zLXNlcmlmIiBmb250LXNpemU9IjEyIiBsZW5ndGhBZGp1c3Q9InNwYWNpbmciIHRleHRMZW5ndGg9Ijc4IiB4PSIxMzcyLjUiIHk9IjE0NzAuODIwMyI+W0RhdGFicmlja3NdPC90ZXh0PjxwYXRoIGQ9Ik0xMCwxNzkuNzk2OSBMMTczLDE3OS43OTY5IEwxNzMsMTg1LjcxMDkgTDE2MywxOTUuNzEwOSBMMTAsMTk1LjcxMDkgTDEwLDE3OS43OTY5ICIgZmlsbD0iI0ZGRDcwMCIgc3R5bGU9InN0cm9rZTojMDAwMDAwO3N0cm9rZS13aWR0aDoxLjU7Ii8+PHJlY3QgZmlsbD0ibm9uZSIgaGVpZ2h0PSIxMTYyLjcxMDkiIHN0eWxlPSJzdHJva2U6IzdEODk5ODtzdHJva2Utd2lkdGg6MS41OyIgd2lkdGg9IjE0OTMuNSIgeD0iMTAiIHk9IjE3OS43OTY5Ii8+PHRleHQgZmlsbD0iIzAwMDAwMCIgZm9udC1mYW1pbHk9InNhbnMtc2VyaWYiIGZvbnQtc2l6ZT0iMTMiIGZvbnQtd2VpZ2h0PSJib2xkIiBsZW5ndGhBZGp1c3Q9InNwYWNpbmciIHRleHRMZW5ndGg9IjExOCIgeD0iMjUiIHk9IjE5My4wODU5Ij5QREUgQ3ljbGUgUHJvY2VzczwvdGV4dD48cGF0aCBkPSJNNDAsMjAyLjcxMDkgTDI4MCwyMDIuNzEwOSBMMjgwLDIwOC42MjUgTDI3MCwyMTguNjI1IEw0MCwyMTguNjI1IEw0MCwyMDIuNzEwOSAiIGZpbGw9IiNGRkZGMDAiIHN0eWxlPSJzdHJva2U6IzAwMDAwMDtzdHJva2Utd2lkdGg6MS41OyIvPjxyZWN0IGZpbGw9Im5vbmUiIGhlaWdodD0iMTYxLjgyMDMiIHN0eWxlPSJzdHJva2U6IzdEODk5ODtzdHJva2Utd2lkdGg6MS41OyIgd2lkdGg9IjEyNzkiIHg9IjQwIiB5PSIyMDIuNzEwOSIvPjx0ZXh0IGZpbGw9IiMwMDAwMDAiIGZvbnQtZmFtaWx5PSJzYW5zLXNlcmlmIiBmb250LXNpemU9IjEzIiBmb250LXdlaWdodD0iYm9sZCIgbGVuZ3RoQWRqdXN0PSJzcGFjaW5nIiB0ZXh0TGVuZ3RoPSIxOTUiIHg9IjU1IiB5PSIyMTYiPjEtUERFIEZpbGVzIGZyb20gUGFsbWV0dG8gLS0mZ3Q7PC90ZXh0Pjxwb2x5Z29uIGZpbGw9IiMwMDAwMDAiIHBvaW50cz0iNDUzLjUsMjQ2LjMxMjUsNDYzLjUsMjUwLjMxMjUsNDUzLjUsMjU0LjMxMjUsNDU3LjUsMjUwLjMxMjUiIHN0eWxlPSJzdHJva2U6IzAwMDAwMDtzdHJva2Utd2lkdGg6MS4wOyIvPjxsaW5lIHN0eWxlPSJzdHJva2U6IzAwMDAwMDtzdHJva2Utd2lkdGg6Mi4wO3N0cm9rZS1kYXNoYXJyYXk6Mi4wLDIuMDsiIHgxPSIxMzcuNSIgeDI9IjQ1OS41IiB5MT0iMjUwLjMxMjUiIHkyPSIyNTAuMzEyNSIvPjx0ZXh0IGZpbGw9IiMwMDAwMDAiIGZvbnQtZmFtaWx5PSJJbXBhY3QiIGZvbnQtc2l6ZT0iMTIiIGxlbmd0aEFkanVzdD0ic3BhY2luZyIgdGV4dExlbmd0aD0iMjEiIHg9IjI2NCIgeT0iMjMzLjk2ODgiPkFkZDwvdGV4dD48dGV4dCBmaWxsPSIjMDAwMDAwIiBmb250LWZhbWlseT0iSW1wYWN0IiBmb250LXNpemU9IjEyIiBsZW5ndGhBZGp1c3Q9InNwYWNpbmciIHRleHRMZW5ndGg9IjYiIHg9IjI4NSIgeT0iMjMzLjk2ODgiPiYjMTYwOzwvdGV4dD48dGV4dCBmaWxsPSIjMDAwMDAwIiBmb250LWZhbWlseT0iSW1wYWN0IiBmb250LXNpemU9IjEyIiBsZW5ndGhBZGp1c3Q9InNwYWNpbmciIHRleHRMZW5ndGg9IjQ4IiB4PSIyOTEiIHk9IjIzMy45Njg4Ij5tZXNzYWdlPC90ZXh0Pjx0ZXh0IGZpbGw9IiMwMDAwMDAiIGZvbnQtZmFtaWx5PSJJbXBhY3QiIGZvbnQtc2l6ZT0iMTIiIGxlbmd0aEFkanVzdD0ic3BhY2luZyIgdGV4dExlbmd0aD0iMzA0IiB4PSIxNDkuNSIgeT0iMjQ2LjgxMjUiPihQREVDT1BZLiopRmlsZXMoL3ByZDovbGFuZGluZy9wZGVjb3B5L0NOVEwuKik8L3RleHQ+PHBvbHlnb24gZmlsbD0iIzAwMDAwMCIgcG9pbnRzPSIxMTAzLjUsMjg2LDExMTMuNSwyOTAsMTEwMy41LDI5NCwxMTA3LjUsMjkwIiBzdHlsZT0ic3Ryb2tlOiMwMDAwMDA7c3Ryb2tlLXdpZHRoOjEuMDsiLz48bGluZSBzdHlsZT0ic3Ryb2tlOiMwMDAwMDA7c3Ryb2tlLXdpZHRoOjIuMDtzdHJva2UtZGFzaGFycmF5OjIuMCwyLjA7IiB4MT0iMTM3LjUiIHgyPSIxMTA5LjUiIHkxPSIyOTAiIHkyPSIyOTAiLz48dGV4dCBmaWxsPSIjMDAwMDAwIiBmb250LWZhbWlseT0iSW1wYWN0IiBmb250LXNpemU9IjEyIiBsZW5ndGhBZGp1c3Q9InNwYWNpbmciIHRleHRMZW5ndGg9IjQ3IiB4PSI1NzAuNSIgeT0iMjczLjY1NjMiPlRyaWdnZXI8L3RleHQ+PHRleHQgZmlsbD0iIzAwMDAwMCIgZm9udC1mYW1pbHk9IkltcGFjdCIgZm9udC1zaXplPSIxMiIgbGVuZ3RoQWRqdXN0PSJzcGFjaW5nIiB0ZXh0TGVuZ3RoPSI2IiB4PSI2MTcuNSIgeT0iMjczLjY1NjMiPiYjMTYwOzwvdGV4dD48dGV4dCBmaWxsPSIjMDAwMDAwIiBmb250LWZhbWlseT0iSW1wYWN0IiBmb250LXNpemU9IjEyIiBsZW5ndGhBZGp1c3Q9InNwYWNpbmciIHRleHRMZW5ndGg9IjQwIiB4PSI2MjMuNSIgeT0iMjczLjY1NjMiPkxhbWJkYTwvdGV4dD48dGV4dCBmaWxsPSIjMDAwMDAwIiBmb250LWZhbWlseT0iSW1wYWN0IiBmb250LXNpemU9IjEyIiBsZW5ndGhBZGp1c3Q9InNwYWNpbmciIHRleHRMZW5ndGg9IjYiIHg9IjY2My41IiB5PSIyNzMuNjU2MyI+JiMxNjA7PC90ZXh0Pjx0ZXh0IGZpbGw9IiMwMDAwMDAiIGZvbnQtZmFtaWx5PSJJbXBhY3QiIGZvbnQtc2l6ZT0iMTIiIGxlbmd0aEFkanVzdD0ic3BhY2luZyIgdGV4dExlbmd0aD0iMTMiIHg9IjY2OS41IiB5PSIyNzMuNjU2MyI+dG88L3RleHQ+PHRleHQgZmlsbD0iIzAwMDAwMCIgZm9udC1mYW1pbHk9IkltcGFjdCIgZm9udC1zaXplPSIxMiIgbGVuZ3RoQWRqdXN0PSJzcGFjaW5nIiB0ZXh0TGVuZ3RoPSIzNCIgeD0iNTU1IiB5PSIyODYuNSI+YnJpbmc8L3RleHQ+PHRleHQgZmlsbD0iIzAwMDAwMCIgZm9udC1mYW1pbHk9IkltcGFjdCIgZm9udC1zaXplPSIxMiIgbGVuZ3RoQWRqdXN0PSJzcGFjaW5nIiB0ZXh0TGVuZ3RoPSI2IiB4PSI1ODkiIHk9IjI4Ni41Ij4mIzE2MDs8L3RleHQ+PHRleHQgZmlsbD0iIzAwMDAwMCIgZm9udC1mYW1pbHk9IkltcGFjdCIgZm9udC1zaXplPSIxMiIgbGVuZ3RoQWRqdXN0PSJzcGFjaW5nIiB0ZXh0TGVuZ3RoPSIxNCIgeD0iNTk1IiB5PSIyODYuNSI+dXA8L3RleHQ+PHRleHQgZmlsbD0iIzAwMDAwMCIgZm9udC1mYW1pbHk9IkltcGFjdCIgZm9udC1zaXplPSIxMiIgbGVuZ3RoQWRqdXN0PSJzcGFjaW5nIiB0ZXh0TGVuZ3RoPSI2IiB4PSI2MDkiIHk9IjI4Ni41Ij4mIzE2MDs8L3RleHQ+PHRleHQgZmlsbD0iIzAwMDAwMCIgZm9udC1mYW1pbHk9IkltcGFjdCIgZm9udC1zaXplPSIxMiIgbGVuZ3RoQWRqdXN0PSJzcGFjaW5nIiB0ZXh0TGVuZ3RoPSIxOSIgeD0iNjE1IiB5PSIyODYuNSI+RUMyPC90ZXh0Pjx0ZXh0IGZpbGw9IiMwMDAwMDAiIGZvbnQtZmFtaWx5PSJJbXBhY3QiIGZvbnQtc2l6ZT0iMTIiIGxlbmd0aEFkanVzdD0ic3BhY2luZyIgdGV4dExlbmd0aD0iNiIgeD0iNjM0IiB5PSIyODYuNSI+JiMxNjA7PC90ZXh0Pjx0ZXh0IGZpbGw9IiMwMDAwMDAiIGZvbnQtZmFtaWx5PSJJbXBhY3QiIGZvbnQtc2l6ZT0iMTIiIGxlbmd0aEFkanVzdD0ic3BhY2luZyIgdGV4dExlbmd0aD0iMTIiIHg9IjY0MCIgeT0iMjg2LjUiPmlmPC90ZXh0Pjx0ZXh0IGZpbGw9IiMwMDAwMDAiIGZvbnQtZmFtaWx5PSJJbXBhY3QiIGZvbnQtc2l6ZT0iMTIiIGxlbmd0aEFkanVzdD0ic3BhY2luZyIgdGV4dExlbmd0aD0iNiIgeD0iNjUyIiB5PSIyODYuNSI+JiMxNjA7PC90ZXh0Pjx0ZXh0IGZpbGw9IiMwMDAwMDAiIGZvbnQtZmFtaWx5PSJJbXBhY3QiIGZvbnQtc2l6ZT0iMTIiIGxlbmd0aEFkanVzdD0ic3BhY2luZyIgdGV4dExlbmd0aD0iMjAiIHg9IjY1OCIgeT0iMjg2LjUiPm5vdDwvdGV4dD48dGV4dCBmaWxsPSIjMDAwMDAwIiBmb250LWZhbWlseT0iSW1wYWN0IiBmb250LXNpemU9IjEyIiBsZW5ndGhBZGp1c3Q9InNwYWNpbmciIHRleHRMZW5ndGg9IjYiIHg9IjY3OCIgeT0iMjg2LjUiPiYjMTYwOzwvdGV4dD48dGV4dCBmaWxsPSIjMDAwMDAwIiBmb250LWZhbWlseT0iSW1wYWN0IiBmb250LXNpemU9IjEyIiBsZW5ndGhBZGp1c3Q9InNwYWNpbmciIHRleHRMZW5ndGg9IjE0IiB4PSI2ODQiIHk9IjI4Ni41Ij51cDwvdGV4dD48cG9seWdvbiBmaWxsPSIjMDAwMDAwIiBwb2ludHM9IjEyNDcuNSwzMTIuODQzOCwxMjU3LjUsMzE2Ljg0MzgsMTI0Ny41LDMyMC44NDM4LDEyNTEuNSwzMTYuODQzOCIgc3R5bGU9InN0cm9rZTojMDAwMDAwO3N0cm9rZS13aWR0aDoxLjA7Ii8+PGxpbmUgc3R5bGU9InN0cm9rZTojMDAwMDAwO3N0cm9rZS13aWR0aDoyLjA7c3Ryb2tlLWRhc2hhcnJheToyLjAsMi4wOyIgeDE9IjExMTUuNSIgeDI9IjEyNTMuNSIgeTE9IjMxNi44NDM4IiB5Mj0iMzE2Ljg0MzgiLz48dGV4dCBmaWxsPSIjMDAwMDAwIiBmb250LWZhbWlseT0iSW1wYWN0IiBmb250LXNpemU9IjEyIiBsZW5ndGhBZGp1c3Q9InNwYWNpbmciIHRleHRMZW5ndGg9IjMzIiB4PSIxMTMzLjUiIHk9IjMxMy4zNDM4Ij5TdGFydDwvdGV4dD48dGV4dCBmaWxsPSIjMDAwMDAwIiBmb250LWZhbWlseT0iSW1wYWN0IiBmb250LXNpemU9IjEyIiBsZW5ndGhBZGp1c3Q9InNwYWNpbmciIHRleHRMZW5ndGg9IjYiIHg9IjExNjYuNSIgeT0iMzEzLjM0MzgiPiYjMTYwOzwvdGV4dD48dGV4dCBmaWxsPSIjMDAwMDAwIiBmb250LWZhbWlseT0iSW1wYWN0IiBmb250LXNpemU9IjEyIiBsZW5ndGhBZGp1c3Q9InNwYWNpbmciIHRleHRMZW5ndGg9IjIxIiB4PSIxMTcyLjUiIHk9IjMxMy4zNDM4Ij5BcHA8L3RleHQ+PHRleHQgZmlsbD0iIzAwMDAwMCIgZm9udC1mYW1pbHk9IkltcGFjdCIgZm9udC1zaXplPSIxMiIgbGVuZ3RoQWRqdXN0PSJzcGFjaW5nIiB0ZXh0TGVuZ3RoPSI2IiB4PSIxMTkzLjUiIHk9IjMxMy4zNDM4Ij4mIzE2MDs8L3RleHQ+PHRleHQgZmlsbD0iIzAwMDAwMCIgZm9udC1mYW1pbHk9IkltcGFjdCIgZm9udC1zaXplPSIxMiIgbGVuZ3RoQWRqdXN0PSJzcGFjaW5nIiB0ZXh0TGVuZ3RoPSI0MiIgeD0iMTE5OS41IiB5PSIzMTMuMzQzOCI+U2VydmVyPC90ZXh0Pjxwb2x5Z29uIGZpbGw9IiMwMDAwMDAiIHBvaW50cz0iNjE5LDM1Mi41MzEzLDYwOSwzNTYuNTMxMyw2MTksMzYwLjUzMTMsNjE1LDM1Ni41MzEzIiBzdHlsZT0ic3Ryb2tlOiMwMDAwMDA7c3Ryb2tlLXdpZHRoOjEuMDsiLz48bGluZSBzdHlsZT0ic3Ryb2tlOiMwMDAwMDA7c3Ryb2tlLXdpZHRoOjIuMDtzdHJva2UtZGFzaGFycmF5OjIuMCwyLjA7IiB4MT0iNjEzIiB4Mj0iNzgwIiB5MT0iMzU2LjUzMTMiIHkyPSIzNTYuNTMxMyIvPjx0ZXh0IGZpbGw9IiMwMDAwMDAiIGZvbnQtZmFtaWx5PSJJbXBhY3QiIGZvbnQtc2l6ZT0iMTIiIGxlbmd0aEFkanVzdD0ic3BhY2luZyIgdGV4dExlbmd0aD0iNTIiIHg9IjYyMCIgeT0iMzQwLjE4NzUiPkFjdGl2YXRlPC90ZXh0Pjx0ZXh0IGZpbGw9IiMwMDAwMDAiIGZvbnQtZmFtaWx5PSJJbXBhY3QiIGZvbnQtc2l6ZT0iMTIiIGxlbmd0aEFkanVzdD0ic3BhY2luZyIgdGV4dExlbmd0aD0iNiIgeD0iNjcyIiB5PSIzNDAuMTg3NSI+JiMxNjA7PC90ZXh0Pjx0ZXh0IGZpbGw9IiMwMDAwMDAiIGZvbnQtZmFtaWx5PSJJbXBhY3QiIGZvbnQtc2l6ZT0iMTIiIGxlbmd0aEFkanVzdD0ic3BhY2luZyIgdGV4dExlbmd0aD0iMzMiIHg9IjY3OCIgeT0iMzQwLjE4NzUiPkFsYXJtPC90ZXh0Pjx0ZXh0IGZpbGw9IiMwMDAwMDAiIGZvbnQtZmFtaWx5PSJJbXBhY3QiIGZvbnQtc2l6ZT0iMTIiIGxlbmd0aEFkanVzdD0ic3BhY2luZyIgdGV4dExlbmd0aD0iNiIgeD0iNzExIiB5PSIzNDAuMTg3NSI+JiMxNjA7PC90ZXh0Pjx0ZXh0IGZpbGw9IiMwMDAwMDAiIGZvbnQtZmFtaWx5PSJJbXBhY3QiIGZvbnQtc2l6ZT0iMTIiIGxlbmd0aEFkanVzdD0ic3BhY2luZyIgdGV4dExlbmd0aD0iMjciIHg9IjcxNyIgeT0iMzQwLjE4NzUiPndoZW48L3RleHQ+PHRleHQgZmlsbD0iIzAwMDAwMCIgZm9udC1mYW1pbHk9IkltcGFjdCIgZm9udC1zaXplPSIxMiIgbGVuZ3RoQWRqdXN0PSJzcGFjaW5nIiB0ZXh0TGVuZ3RoPSI2IiB4PSI3NDQiIHk9IjM0MC4xODc1Ij4mIzE2MDs8L3RleHQ+PHRleHQgZmlsbD0iIzAwMDAwMCIgZm9udC1mYW1pbHk9IkltcGFjdCIgZm9udC1zaXplPSIxMiIgbGVuZ3RoQWRqdXN0PSJzcGFjaW5nIiB0ZXh0TGVuZ3RoPSIxOSIgeD0iNzUwIiB5PSIzNDAuMTg3NSI+RUMyPC90ZXh0Pjx0ZXh0IGZpbGw9IiMwMDAwMDAiIGZvbnQtZmFtaWx5PSJJbXBhY3QiIGZvbnQtc2l6ZT0iMTIiIGxlbmd0aEFkanVzdD0ic3BhY2luZyIgdGV4dExlbmd0aD0iMjEiIHg9IjY0MC41IiB5PSIzNTMuMDMxMyI+YXBwPC90ZXh0Pjx0ZXh0IGZpbGw9IiMwMDAwMDAiIGZvbnQtZmFtaWx5PSJJbXBhY3QiIGZvbnQtc2l6ZT0iMTIiIGxlbmd0aEFkanVzdD0ic3BhY2luZyIgdGV4dExlbmd0aD0iNiIgeD0iNjYxLjUiIHk9IjM1My4wMzEzIj4mIzE2MDs8L3RleHQ+PHRleHQgZmlsbD0iIzAwMDAwMCIgZm9udC1mYW1pbHk9IkltcGFjdCIgZm9udC1zaXplPSIxMiIgbGVuZ3RoQWRqdXN0PSJzcGFjaW5nIiB0ZXh0TGVuZ3RoPSI0MiIgeD0iNjY3LjUiIHk9IjM1My4wMzEzIj5zZXJ2ZXI8L3RleHQ+PHRleHQgZmlsbD0iIzAwMDAwMCIgZm9udC1mYW1pbHk9IkltcGFjdCIgZm9udC1zaXplPSIxMiIgbGVuZ3RoQWRqdXN0PSJzcGFjaW5nIiB0ZXh0TGVuZ3RoPSI2IiB4PSI3MDkuNSIgeT0iMzUzLjAzMTMiPiYjMTYwOzwvdGV4dD48dGV4dCBmaWxsPSIjMDAwMDAwIiBmb250LWZhbWlseT0iSW1wYWN0IiBmb250LXNpemU9IjEyIiBsZW5ndGhBZGp1c3Q9InNwYWNpbmciIHRleHRMZW5ndGg9IjEzIiB4PSI3MTUuNSIgeT0iMzUzLjAzMTMiPmlzPC90ZXh0Pjx0ZXh0IGZpbGw9IiMwMDAwMDAiIGZvbnQtZmFtaWx5PSJJbXBhY3QiIGZvbnQtc2l6ZT0iMTIiIGxlbmd0aEFkanVzdD0ic3BhY2luZyIgdGV4dExlbmd0aD0iNiIgeD0iNzI4LjUiIHk9IjM1My4wMzEzIj4mIzE2MDs8L3RleHQ+PHRleHQgZmlsbD0iIzAwMDAwMCIgZm9udC1mYW1pbHk9IkltcGFjdCIgZm9udC1zaXplPSIxMiIgbGVuZ3RoQWRqdXN0PSJzcGFjaW5nIiB0ZXh0TGVuZ3RoPSIxNCIgeD0iNzM0LjUiIHk9IjM1My4wMzEzIj51cDwvdGV4dD48cGF0aCBkPSJNMjAsMzc4LjUzMTMgTDM5OSwzNzguNTMxMyBMMzk5LDM4NC40NDUzIEwzODksMzk0LjQ0NTMgTDIwLDM5NC40NDUzIEwyMCwzNzguNTMxMyAiIGZpbGw9IiNGRkZGMDAiIHN0eWxlPSJzdHJva2U6IzAwMDAwMDtzdHJva2Utd2lkdGg6MS41OyIvPjxyZWN0IGZpbGw9Im5vbmUiIGhlaWdodD0iMzYzLjkyMTkiIHN0eWxlPSJzdHJva2U6IzdEODk5ODtzdHJva2Utd2lkdGg6MS41OyIgd2lkdGg9IjEzNTYuNSIgeD0iMjAiIHk9IjM3OC41MzEzIi8+PHRleHQgZmlsbD0iIzAwMDAwMCIgZm9udC1mYW1pbHk9InNhbnMtc2VyaWYiIGZvbnQtc2l6ZT0iMTMiIGZvbnQtd2VpZ2h0PSJib2xkIiBsZW5ndGhBZGp1c3Q9InNwYWNpbmciIHRleHRMZW5ndGg9IjMzNCIgeD0iMzUiIHk9IjM5MS44MjAzIj4yLVRyaWdnZXJMYW1iZGEtcG9sbCBTUVMtSW52b2tlIFBERSBDeWNsZSBTY3JpcHRzPC90ZXh0PjxwYXRoIGQ9Ik0zMCw0MDEuNDQ1MyBMMTcwLDQwMS40NDUzIEwxNzAsNDA3LjM1OTQgTDE2MCw0MTcuMzU5NCBMMzAsNDE3LjM1OTQgTDMwLDQwMS40NDUzICIgZmlsbD0iI0ZGRDcwMCIgc3R5bGU9InN0cm9rZTojMDAwMDAwO3N0cm9rZS13aWR0aDoxLjU7Ii8+PHJlY3QgZmlsbD0ibm9uZSIgaGVpZ2h0PSIxOTQuODA0NyIgc3R5bGU9InN0cm9rZTojN0Q4OTk4O3N0cm9rZS13aWR0aDoxLjU7IiB3aWR0aD0iMTE0Ni41IiB4PSIzMCIgeT0iNDAxLjQ0NTMiLz48dGV4dCBmaWxsPSIjMDAwMDAwIiBmb250LWZhbWlseT0ic2Fucy1zZXJpZiIgZm9udC1zaXplPSIxMyIgZm9udC13ZWlnaHQ9ImJvbGQiIGxlbmd0aEFkanVzdD0ic3BhY2luZyIgdGV4dExlbmd0aD0iOTUiIHg9IjQ1IiB5PSI0MTQuNzM0NCI+VHJpZ2dlciBMYW1iZGE8L3RleHQ+PHBhdGggZD0iTTU0Niw0MjQuMzU5NCBMNzc2LDQyNC4zNTk0IEw3NzYsNDMwLjI3MzQgTDc2Niw0NDAuMjczNCBMNTQ2LDQ0MC4yNzM0IEw1NDYsNDI0LjM1OTQgIiBmaWxsPSIjRkZENzAwIiBzdHlsZT0ic3Ryb2tlOiMwMDAwMDA7c3Ryb2tlLXdpZHRoOjEuNTsiLz48cmVjdCBmaWxsPSJub25lIiBoZWlnaHQ9Ijk1LjI4OTEiIHN0eWxlPSJzdHJva2U6IzdEODk5ODtzdHJva2Utd2lkdGg6MS41OyIgd2lkdGg9IjYyMC41IiB4PSI1NDYiIHk9IjQyNC4zNTk0Ii8+PHRleHQgZmlsbD0iIzAwMDAwMCIgZm9udC1mYW1pbHk9InNhbnMtc2VyaWYiIGZvbnQtc2l6ZT0iMTMiIGZvbnQtd2VpZ2h0PSJib2xkIiBsZW5ndGhBZGp1c3Q9InNwYWNpbmciIHRleHRMZW5ndGg9IjE4NSIgeD0iNTYxIiB5PSI0MzcuNjQ4NCI+VHJpZ2dlciBMYW1iZGEgYnkgU05TIGV2ZW50PC90ZXh0Pjxwb2x5Z29uIGZpbGw9IiMwMDAwMDAiIHBvaW50cz0iOTM5LjUsNDY3Ljk2MDksOTQ5LjUsNDcxLjk2MDksOTM5LjUsNDc1Ljk2MDksOTQzLjUsNDcxLjk2MDkiIHN0eWxlPSJzdHJva2U6IzAwMDAwMDtzdHJva2Utd2lkdGg6MS4wOyIvPjxsaW5lIHN0eWxlPSJzdHJva2U6IzAwMDAwMDtzdHJva2Utd2lkdGg6Mi4wO3N0cm9rZS1kYXNoYXJyYXk6Mi4wLDIuMDsiIHgxPSI2MDgiIHgyPSI5NDUuNSIgeTE9IjQ3MS45NjA5IiB5Mj0iNDcxLjk2MDkiLz48dGV4dCBmaWxsPSIjMDAwMDAwIiBmb250LWZhbWlseT0iSW1wYWN0IiBmb250LXNpemU9IjEyIiBsZW5ndGhBZGp1c3Q9InNwYWNpbmciIHRleHRMZW5ndGg9IjU1IiB4PSI3MzguNzUiIHk9IjQ1NS42MTcyIj5HZW5lcmF0ZTwvdGV4dD48dGV4dCBmaWxsPSIjMDAwMDAwIiBmb250LWZhbWlseT0iSW1wYWN0IiBmb250LXNpemU9IjEyIiBsZW5ndGhBZGp1c3Q9InNwYWNpbmciIHRleHRMZW5ndGg9IjYiIHg9Ijc5My43NSIgeT0iNDU1LjYxNzIiPiYjMTYwOzwvdGV4dD48dGV4dCBmaWxsPSIjMDAwMDAwIiBmb250LWZhbWlseT0iSW1wYWN0IiBmb250LXNpemU9IjEyIiBsZW5ndGhBZGp1c3Q9InNwYWNpbmciIHRleHRMZW5ndGg9IjIxIiB4PSI3OTkuNzUiIHk9IjQ1NS42MTcyIj5TTlM8L3RleHQ+PHRleHQgZmlsbD0iIzAwMDAwMCIgZm9udC1mYW1pbHk9IkltcGFjdCIgZm9udC1zaXplPSIxMiIgbGVuZ3RoQWRqdXN0PSJzcGFjaW5nIiB0ZXh0TGVuZ3RoPSI3NyIgeD0iNzQxLjI1IiB5PSI0NjguNDYwOSI+bm90aWZpY2F0aW9uPC90ZXh0Pjxwb2x5Z29uIGZpbGw9IiMwMDAwMDAiIHBvaW50cz0iMTEwMy41LDUwNy42NDg0LDExMTMuNSw1MTEuNjQ4NCwxMTAzLjUsNTE1LjY0ODQsMTEwNy41LDUxMS42NDg0IiBzdHlsZT0ic3Ryb2tlOiMwMDAwMDA7c3Ryb2tlLXdpZHRoOjEuMDsiLz48bGluZSBzdHlsZT0ic3Ryb2tlOiMwMDAwMDA7c3Ryb2tlLXdpZHRoOjIuMDtzdHJva2UtZGFzaGFycmF5OjIuMCwyLjA7IiB4MT0iOTUxLjUiIHgyPSIxMTA5LjUiIHkxPSI1MTEuNjQ4NCIgeTI9IjUxMS42NDg0Ii8+PHRleHQgZmlsbD0iIzAwMDAwMCIgZm9udC1mYW1pbHk9IkltcGFjdCIgZm9udC1zaXplPSIxMiIgbGVuZ3RoQWRqdXN0PSJzcGFjaW5nIiB0ZXh0TGVuZ3RoPSI0NyIgeD0iOTYzLjUiIHk9IjQ5NS4zMDQ3Ij5UcmlnZ2VyPC90ZXh0Pjx0ZXh0IGZpbGw9IiMwMDAwMDAiIGZvbnQtZmFtaWx5PSJJbXBhY3QiIGZvbnQtc2l6ZT0iMTIiIGxlbmd0aEFkanVzdD0ic3BhY2luZyIgdGV4dExlbmd0aD0iNiIgeD0iMTAxMC41IiB5PSI0OTUuMzA0NyI+JiMxNjA7PC90ZXh0Pjx0ZXh0IGZpbGw9IiMwMDAwMDAiIGZvbnQtZmFtaWx5PSJJbXBhY3QiIGZvbnQtc2l6ZT0iMTIiIGxlbmd0aEFkanVzdD0ic3BhY2luZyIgdGV4dExlbmd0aD0iNDAiIHg9IjEwMTYuNSIgeT0iNDk1LjMwNDciPkxhbWJkYTwvdGV4dD48dGV4dCBmaWxsPSIjMDAwMDAwIiBmb250LWZhbWlseT0iSW1wYWN0IiBmb250LXNpemU9IjEyIiBsZW5ndGhBZGp1c3Q9InNwYWNpbmciIHRleHRMZW5ndGg9IjYiIHg9IjEwNTYuNSIgeT0iNDk1LjMwNDciPiYjMTYwOzwvdGV4dD48dGV4dCBmaWxsPSIjMDAwMDAwIiBmb250LWZhbWlseT0iSW1wYWN0IiBmb250LXNpemU9IjEyIiBsZW5ndGhBZGp1c3Q9InNwYWNpbmciIHRleHRMZW5ndGg9IjE0IiB4PSIxMDYyLjUiIHk9IjQ5NS4zMDQ3Ij5ieTwvdGV4dD48dGV4dCBmaWxsPSIjMDAwMDAwIiBmb250LWZhbWlseT0iSW1wYWN0IiBmb250LXNpemU9IjEyIiBsZW5ndGhBZGp1c3Q9InNwYWNpbmciIHRleHRMZW5ndGg9IjYiIHg9IjEwNzYuNSIgeT0iNDk1LjMwNDciPiYjMTYwOzwvdGV4dD48dGV4dCBmaWxsPSIjMDAwMDAwIiBmb250LWZhbWlseT0iSW1wYWN0IiBmb250LXNpemU9IjEyIiBsZW5ndGhBZGp1c3Q9InNwYWNpbmciIHRleHRMZW5ndGg9IjIxIiB4PSIxMDgyLjUiIHk9IjQ5NS4zMDQ3Ij5TTlM8L3RleHQ+PHRleHQgZmlsbD0iIzAwMDAwMCIgZm9udC1mYW1pbHk9IkltcGFjdCIgZm9udC1zaXplPSIxMiIgbGVuZ3RoQWRqdXN0PSJzcGFjaW5nIiB0ZXh0TGVuZ3RoPSIzNCIgeD0iMTAxNi41IiB5PSI1MDguMTQ4NCI+ZXZlbnQ8L3RleHQ+PHBhdGggZD0iTTQwLDUzMy42NDg0IEwyNjMsNTMzLjY0ODQgTDI2Myw1MzkuNTYyNSBMMjUzLDU0OS41NjI1IEw0MCw1NDkuNTYyNSBMNDAsNTMzLjY0ODQgIiBmaWxsPSIjRkZENzAwIiBzdHlsZT0ic3Ryb2tlOiMwMDAwMDA7c3Ryb2tlLXdpZHRoOjEuNTsiLz48cmVjdCBmaWxsPSJub25lIiBoZWlnaHQ9IjU1LjYwMTYiIHN0eWxlPSJzdHJva2U6IzdEODk5ODtzdHJva2Utd2lkdGg6MS41OyIgd2lkdGg9IjExMjYuNSIgeD0iNDAiIHk9IjUzMy42NDg0Ii8+PHRleHQgZmlsbD0iIzAwMDAwMCIgZm9udC1mYW1pbHk9InNhbnMtc2VyaWYiIGZvbnQtc2l6ZT0iMTMiIGZvbnQtd2VpZ2h0PSJib2xkIiBsZW5ndGhBZGp1c3Q9InNwYWNpbmciIHRleHRMZW5ndGg9IjE3OCIgeD0iNTUiIHk9IjU0Ni45Mzc1Ij5UcmlnZ2VyIExhbWJkYSBieSBTMyBldmVudDwvdGV4dD48cG9seWdvbiBmaWxsPSIjMDAwMDAwIiBwb2ludHM9IjExMDMuNSw1NzcuMjUsMTExMy41LDU4MS4yNSwxMTAzLjUsNTg1LjI1LDExMDcuNSw1ODEuMjUiIHN0eWxlPSJzdHJva2U6IzAwMDAwMDtzdHJva2Utd2lkdGg6MS4wOyIvPjxsaW5lIHN0eWxlPSJzdHJva2U6IzAwMDAwMDtzdHJva2Utd2lkdGg6Mi4wOyIgeDE9IjEzNy41IiB4Mj0iMTEwOS41IiB5MT0iNTgxLjI1IiB5Mj0iNTgxLjI1Ii8+PHRleHQgZmlsbD0iIzAwMDAwMCIgZm9udC1mYW1pbHk9IkltcGFjdCIgZm9udC1zaXplPSIxMiIgbGVuZ3RoQWRqdXN0PSJzcGFjaW5nIiB0ZXh0TGVuZ3RoPSI0NyIgeD0iNTYwLjUiIHk9IjU2NC45MDYzIj5UcmlnZ2VyPC90ZXh0Pjx0ZXh0IGZpbGw9IiMwMDAwMDAiIGZvbnQtZmFtaWx5PSJJbXBhY3QiIGZvbnQtc2l6ZT0iMTIiIGxlbmd0aEFkanVzdD0ic3BhY2luZyIgdGV4dExlbmd0aD0iNiIgeD0iNjA3LjUiIHk9IjU2NC45MDYzIj4mIzE2MDs8L3RleHQ+PHRleHQgZmlsbD0iIzAwMDAwMCIgZm9udC1mYW1pbHk9IkltcGFjdCIgZm9udC1zaXplPSIxMiIgbGVuZ3RoQWRqdXN0PSJzcGFjaW5nIiB0ZXh0TGVuZ3RoPSI0MCIgeD0iNjEzLjUiIHk9IjU2NC45MDYzIj5MYW1iZGE8L3RleHQ+PHRleHQgZmlsbD0iIzAwMDAwMCIgZm9udC1mYW1pbHk9IkltcGFjdCIgZm9udC1zaXplPSIxMiIgbGVuZ3RoQWRqdXN0PSJzcGFjaW5nIiB0ZXh0TGVuZ3RoPSI2IiB4PSI2NTMuNSIgeT0iNTY0LjkwNjMiPiYjMTYwOzwvdGV4dD48dGV4dCBmaWxsPSIjMDAwMDAwIiBmb250LWZhbWlseT0iSW1wYWN0IiBmb250LXNpemU9IjEyIiBsZW5ndGhBZGp1c3Q9InNwYWNpbmciIHRleHRMZW5ndGg9IjE0IiB4PSI2NTkuNSIgeT0iNTY0LjkwNjMiPmJ5PC90ZXh0Pjx0ZXh0IGZpbGw9IiMwMDAwMDAiIGZvbnQtZmFtaWx5PSJJbXBhY3QiIGZvbnQtc2l6ZT0iMTIiIGxlbmd0aEFkanVzdD0ic3BhY2luZyIgdGV4dExlbmd0aD0iNiIgeD0iNjczLjUiIHk9IjU2NC45MDYzIj4mIzE2MDs8L3RleHQ+PHRleHQgZmlsbD0iIzAwMDAwMCIgZm9udC1mYW1pbHk9IkltcGFjdCIgZm9udC1zaXplPSIxMiIgbGVuZ3RoQWRqdXN0PSJzcGFjaW5nIiB0ZXh0TGVuZ3RoPSIxMyIgeD0iNjc5LjUiIHk9IjU2NC45MDYzIj5TMzwvdGV4dD48dGV4dCBmaWxsPSIjMDAwMDAwIiBmb250LWZhbWlseT0iSW1wYWN0IiBmb250LXNpemU9IjEyIiBsZW5ndGhBZGp1c3Q9InNwYWNpbmciIHRleHRMZW5ndGg9IjM0IiB4PSI2MDkuNSIgeT0iNTc3Ljc1Ij5ldmVudDwvdGV4dD48cGF0aCBkPSJNMzc1LDYxMC4yNSBMNDc0LDYxMC4yNSBMNDc0LDYxNi4xNjQxIEw0NjQsNjI2LjE2NDEgTDM3NSw2MjYuMTY0MSBMMzc1LDYxMC4yNSAiIGZpbGw9IiNGRkQ3MDAiIHN0eWxlPSJzdHJva2U6IzAwMDAwMDtzdHJva2Utd2lkdGg6MS41OyIvPjxyZWN0IGZpbGw9Im5vbmUiIGhlaWdodD0iNTUuNjAxNiIgc3R5bGU9InN0cm9rZTojN0Q4OTk4O3N0cm9rZS13aWR0aDoxLjU7IiB3aWR0aD0iNzkxLjUiIHg9IjM3NSIgeT0iNjEwLjI1Ii8+PHRleHQgZmlsbD0iIzAwMDAwMCIgZm9udC1mYW1pbHk9InNhbnMtc2VyaWYiIGZvbnQtc2l6ZT0iMTMiIGZvbnQtd2VpZ2h0PSJib2xkIiBsZW5ndGhBZGp1c3Q9InNwYWNpbmciIHRleHRMZW5ndGg9IjU0IiB4PSIzOTAiIHk9IjYyMy41MzkxIj5Qb2xsIFNRUzwvdGV4dD48cG9seWdvbiBmaWxsPSIjMDAwMDAwIiBwb2ludHM9IjQ3Ni41LDY1My44NTE2LDQ2Ni41LDY1Ny44NTE2LDQ3Ni41LDY2MS44NTE2LDQ3Mi41LDY1Ny44NTE2IiBzdHlsZT0ic3Ryb2tlOiMwMDAwMDA7c3Ryb2tlLXdpZHRoOjEuMDsiLz48bGluZSBzdHlsZT0ic3Ryb2tlOiMwMDAwMDA7c3Ryb2tlLXdpZHRoOjIuMDsiIHgxPSI0NzAuNSIgeDI9IjExMTQuNSIgeTE9IjY1Ny44NTE2IiB5Mj0iNjU3Ljg1MTYiLz48dGV4dCBmaWxsPSIjMDAwMDAwIiBmb250LWZhbWlseT0iSW1wYWN0IiBmb250LXNpemU9IjEyIiBsZW5ndGhBZGp1c3Q9InNwYWNpbmciIHRleHRMZW5ndGg9IjI2IiB4PSI3MTciIHk9IjY0MS41MDc4Ij5Qb2xsPC90ZXh0Pjx0ZXh0IGZpbGw9IiMwMDAwMDAiIGZvbnQtZmFtaWx5PSJJbXBhY3QiIGZvbnQtc2l6ZT0iMTIiIGxlbmd0aEFkanVzdD0ic3BhY2luZyIgdGV4dExlbmd0aD0iNiIgeD0iNzQzIiB5PSI2NDEuNTA3OCI+JiMxNjA7PC90ZXh0Pjx0ZXh0IGZpbGw9IiMwMDAwMDAiIGZvbnQtZmFtaWx5PSJJbXBhY3QiIGZvbnQtc2l6ZT0iMTIiIGxlbmd0aEFkanVzdD0ic3BhY2luZyIgdGV4dExlbmd0aD0iMjEiIHg9Ijc0OSIgeT0iNjQxLjUwNzgiPlNRUzwvdGV4dD48dGV4dCBmaWxsPSIjMDAwMDAwIiBmb250LWZhbWlseT0iSW1wYWN0IiBmb250LXNpemU9IjEyIiBsZW5ndGhBZGp1c3Q9InNwYWNpbmciIHRleHRMZW5ndGg9IjYiIHg9Ijc3MCIgeT0iNjQxLjUwNzgiPiYjMTYwOzwvdGV4dD48dGV4dCBmaWxsPSIjMDAwMDAwIiBmb250LWZhbWlseT0iSW1wYWN0IiBmb250LXNpemU9IjEyIiBsZW5ndGhBZGp1c3Q9InNwYWNpbmciIHRleHRMZW5ndGg9IjM1IiB4PSI3NzYiIHk9IjY0MS41MDc4Ij5RdWV1ZTwvdGV4dD48dGV4dCBmaWxsPSIjMDAwMDAwIiBmb250LWZhbWlseT0iSW1wYWN0IiBmb250LXNpemU9IjEyIiBsZW5ndGhBZGp1c3Q9InNwYWNpbmciIHRleHRMZW5ndGg9IjYiIHg9IjgxMSIgeT0iNjQxLjUwNzgiPiYjMTYwOzwvdGV4dD48dGV4dCBmaWxsPSIjMDAwMDAwIiBmb250LWZhbWlseT0iSW1wYWN0IiBmb250LXNpemU9IjEyIiBsZW5ndGhBZGp1c3Q9InNwYWNpbmciIHRleHRMZW5ndGg9IjQ3IiB4PSI4MTciIHk9IjY0MS41MDc4Ij4oU05TL1MzPC90ZXh0Pjx0ZXh0IGZpbGw9IiMwMDAwMDAiIGZvbnQtZmFtaWx5PSJJbXBhY3QiIGZvbnQtc2l6ZT0iMTIiIGxlbmd0aEFkanVzdD0ic3BhY2luZyIgdGV4dExlbmd0aD0iNDciIHg9Ijc2NyIgeT0iNjU0LjM1MTYiPmV2ZW50Uyk8L3RleHQ+PHBhdGggZD0iTTEwNjQuNSw2NzkuODUxNiBMMTM2MS41LDY3OS44NTE2IEwxMzYxLjUsNjg1Ljc2NTYgTDEzNTEuNSw2OTUuNzY1NiBMMTA2NC41LDY5NS43NjU2IEwxMDY0LjUsNjc5Ljg1MTYgIiBmaWxsPSIjRkZGRjAwIiBzdHlsZT0ic3Ryb2tlOiMwMDAwMDA7c3Ryb2tlLXdpZHRoOjEuNTsiLz48cmVjdCBmaWxsPSJub25lIiBoZWlnaHQ9IjU1LjYwMTYiIHN0eWxlPSJzdHJva2U6IzdEODk5ODtzdHJva2Utd2lkdGg6MS41OyIgd2lkdGg9IjMwMiIgeD0iMTA2NC41IiB5PSI2NzkuODUxNiIvPjx0ZXh0IGZpbGw9IiMwMDAwMDAiIGZvbnQtZmFtaWx5PSJzYW5zLXNlcmlmIiBmb250LXNpemU9IjEzIiBmb250LXdlaWdodD0iYm9sZCIgbGVuZ3RoQWRqdXN0PSJzcGFjaW5nIiB0ZXh0TGVuZ3RoPSIyNTIiIHg9IjEwNzkuNSIgeT0iNjkzLjE0MDYiPjMtSW52b2tlIFNjcmlwdHMoQnkgU1FTIG1lc3NhZ2UgVHlwZSk8L3RleHQ+PHBvbHlnb24gZmlsbD0iIzAwMDAwMCIgcG9pbnRzPSIxMjQ3LjUsNzIzLjQ1MzEsMTI1Ny41LDcyNy40NTMxLDEyNDcuNSw3MzEuNDUzMSwxMjUxLjUsNzI3LjQ1MzEiIHN0eWxlPSJzdHJva2U6IzAwMDAwMDtzdHJva2Utd2lkdGg6MS4wOyIvPjxsaW5lIHN0eWxlPSJzdHJva2U6IzAwMDAwMDtzdHJva2Utd2lkdGg6Mi4wOyIgeDE9IjExMTUuNSIgeDI9IjEyNTMuNSIgeTE9IjcyNy40NTMxIiB5Mj0iNzI3LjQ1MzEiLz48dGV4dCBmaWxsPSIjMDAwMDAwIiBmb250LWZhbWlseT0iSW1wYWN0IiBmb250LXNpemU9IjEyIiBsZW5ndGhBZGp1c3Q9InNwYWNpbmciIHRleHRMZW5ndGg9IjQ3IiB4PSIxMTI3LjUiIHk9IjcxMS4xMDk0Ij5UcmlnZ2VyPC90ZXh0Pjx0ZXh0IGZpbGw9IiMwMDAwMDAiIGZvbnQtZmFtaWx5PSJJbXBhY3QiIGZvbnQtc2l6ZT0iMTIiIGxlbmd0aEFkanVzdD0ic3BhY2luZyIgdGV4dExlbmd0aD0iNiIgeD0iMTE3NC41IiB5PSI3MTEuMTA5NCI+JiMxNjA7PC90ZXh0Pjx0ZXh0IGZpbGw9IiMwMDAwMDAiIGZvbnQtZmFtaWx5PSJJbXBhY3QiIGZvbnQtc2l6ZT0iMTIiIGxlbmd0aEFkanVzdD0ic3BhY2luZyIgdGV4dExlbmd0aD0iMjEiIHg9IjExODAuNSIgeT0iNzExLjEwOTQiPlImYW1wO0M8L3RleHQ+PHRleHQgZmlsbD0iIzAwMDAwMCIgZm9udC1mYW1pbHk9IkltcGFjdCIgZm9udC1zaXplPSIxMiIgbGVuZ3RoQWRqdXN0PSJzcGFjaW5nIiB0ZXh0TGVuZ3RoPSI2IiB4PSIxMjAxLjUiIHk9IjcxMS4xMDk0Ij4mIzE2MDs8L3RleHQ+PHRleHQgZmlsbD0iIzAwMDAwMCIgZm9udC1mYW1pbHk9IkltcGFjdCIgZm9udC1zaXplPSIxMiIgbGVuZ3RoQWRqdXN0PSJzcGFjaW5nIiB0ZXh0TGVuZ3RoPSIxNCIgeD0iMTIwNy41IiB5PSI3MTEuMTA5NCI+b3I8L3RleHQ+PHRleHQgZmlsbD0iIzAwMDAwMCIgZm9udC1mYW1pbHk9IkltcGFjdCIgZm9udC1zaXplPSIxMiIgbGVuZ3RoQWRqdXN0PSJzcGFjaW5nIiB0ZXh0TGVuZ3RoPSI2IiB4PSIxMjIxLjUiIHk9IjcxMS4xMDk0Ij4mIzE2MDs8L3RleHQ+PHRleHQgZmlsbD0iIzAwMDAwMCIgZm9udC1mYW1pbHk9IkltcGFjdCIgZm9udC1zaXplPSIxMiIgbGVuZ3RoQWRqdXN0PSJzcGFjaW5nIiB0ZXh0TGVuZ3RoPSIyMCIgeD0iMTIyNy41IiB5PSI3MTEuMTA5NCI+Qk9MPC90ZXh0Pjx0ZXh0IGZpbGw9IiMwMDAwMDAiIGZvbnQtZmFtaWx5PSJJbXBhY3QiIGZvbnQtc2l6ZT0iMTIiIGxlbmd0aEFkanVzdD0ic3BhY2luZyIgdGV4dExlbmd0aD0iNDYiIHg9IjExNjQuNSIgeT0iNzIzLjk1MzEiPnNjcmlwdHM8L3RleHQ+PHBhdGggZD0iTTMwLDc1Ni40NTMxIEwxOTAsNzU2LjQ1MzEgTDE5MCw3NjIuMzY3MiBMMTgwLDc3Mi4zNjcyIEwzMCw3NzIuMzY3MiBMMzAsNzU2LjQ1MzEgIiBmaWxsPSIjRkZGRjAwIiBzdHlsZT0ic3Ryb2tlOiMwMDAwMDA7c3Ryb2tlLXdpZHRoOjEuNTsiLz48cmVjdCBmaWxsPSJub25lIiBoZWlnaHQ9IjUyMi4yOTY5IiBzdHlsZT0ic3Ryb2tlOiM3RDg5OTg7c3Ryb2tlLXdpZHRoOjEuNTsiIHdpZHRoPSIxNDYzLjUiIHg9IjMwIiB5PSI3NTYuNDUzMSIvPjx0ZXh0IGZpbGw9IiMwMDAwMDAiIGZvbnQtZmFtaWx5PSJzYW5zLXNlcmlmIiBmb250LXNpemU9IjEzIiBmb250LXdlaWdodD0iYm9sZCIgbGVuZ3RoQWRqdXN0PSJzcGFjaW5nIiB0ZXh0TGVuZ3RoPSIxMTUiIHg9IjQ1IiB5PSI3NjkuNzQyMiI+NC1BcHBsaWNhdGlvbiBydW48L3RleHQ+PHBhdGggZD0iTTExOTAsNzc5LjM2NzIgTDEzNjgsNzc5LjM2NzIgTDEzNjgsNzg1LjI4MTMgTDEzNTgsNzk1LjI4MTMgTDExOTAsNzk1LjI4MTMgTDExOTAsNzc5LjM2NzIgIiBmaWxsPSIjRkZENzAwIiBzdHlsZT0ic3Ryb2tlOiMwMDAwMDA7c3Ryb2tlLXdpZHRoOjEuNTsiLz48cmVjdCBmaWxsPSJub25lIiBoZWlnaHQ9IjE3OC4wNDY5IiBzdHlsZT0ic3Ryb2tlOiM3RDg5OTg7c3Ryb2tlLXdpZHRoOjEuNTsiIHdpZHRoPSIyOTMuNSIgeD0iMTE5MCIgeT0iNzc5LjM2NzIiLz48dGV4dCBmaWxsPSIjMDAwMDAwIiBmb250LWZhbWlseT0ic2Fucy1zZXJpZiIgZm9udC1zaXplPSIxMyIgZm9udC13ZWlnaHQ9ImJvbGQiIGxlbmd0aEFkanVzdD0ic3BhY2luZyIgdGV4dExlbmd0aD0iMTMzIiB4PSIxMjA1IiB5PSI3OTIuNjU2MyI+KDEuMSlSZWNlaXB0JmFtcDtDb250cm9sPC90ZXh0PjxsaW5lIHN0eWxlPSJzdHJva2U6IzAwMDAwMDtzdHJva2Utd2lkdGg6Mi4wO3N0cm9rZS1kYXNoYXJyYXk6Mi4wLDIuMDsiIHgxPSIxMjU5LjUiIHgyPSIxMzAxLjUiIHkxPSI4MjYuOTY4OCIgeTI9IjgyNi45Njg4Ii8+PGxpbmUgc3R5bGU9InN0cm9rZTojMDAwMDAwO3N0cm9rZS13aWR0aDoyLjA7c3Ryb2tlLWRhc2hhcnJheToyLjAsMi4wOyIgeDE9IjEzMDEuNSIgeDI9IjEzMDEuNSIgeTE9IjgyNi45Njg4IiB5Mj0iODM5Ljk2ODgiLz48bGluZSBzdHlsZT0ic3Ryb2tlOiMwMDAwMDA7c3Ryb2tlLXdpZHRoOjIuMDtzdHJva2UtZGFzaGFycmF5OjIuMCwyLjA7IiB4MT0iMTI2MC41IiB4Mj0iMTMwMS41IiB5MT0iODM5Ljk2ODgiIHkyPSI4MzkuOTY4OCIvPjxwb2x5Z29uIGZpbGw9IiMwMDAwMDAiIHBvaW50cz0iMTI3MC41LDgzNS45Njg4LDEyNjAuNSw4MzkuOTY4OCwxMjcwLjUsODQzLjk2ODgsMTI2Ni41LDgzOS45Njg4IiBzdHlsZT0ic3Ryb2tlOiMwMDAwMDA7c3Ryb2tlLXdpZHRoOjEuMDsiLz48dGV4dCBmaWxsPSIjMDAwMDAwIiBmb250LWZhbWlseT0iSW1wYWN0IiBmb250LXNpemU9IjEyIiBsZW5ndGhBZGp1c3Q9InNwYWNpbmciIHRleHRMZW5ndGg9IjMzIiB4PSIxMjY2LjUiIHk9IjgxMC42MjUiPlN0YXJ0PC90ZXh0Pjx0ZXh0IGZpbGw9IiMwMDAwMDAiIGZvbnQtZmFtaWx5PSJJbXBhY3QiIGZvbnQtc2l6ZT0iMTIiIGxlbmd0aEFkanVzdD0ic3BhY2luZyIgdGV4dExlbmd0aD0iNiIgeD0iMTI5OS41IiB5PSI4MTAuNjI1Ij4mIzE2MDs8L3RleHQ+PHRleHQgZmlsbD0iIzAwMDAwMCIgZm9udC1mYW1pbHk9IkltcGFjdCIgZm9udC1zaXplPSIxMiIgbGVuZ3RoQWRqdXN0PSJzcGFjaW5nIiB0ZXh0TGVuZ3RoPSIyMSIgeD0iMTMwNS41IiB5PSI4MTAuNjI1Ij5SJmFtcDtDPC90ZXh0Pjx0ZXh0IGZpbGw9IiMwMDAwMDAiIGZvbnQtZmFtaWx5PSJJbXBhY3QiIGZvbnQtc2l6ZT0iMTIiIGxlbmd0aEFkanVzdD0ic3BhY2luZyIgdGV4dExlbmd0aD0iNiIgeD0iMTMyNi41IiB5PSI4MTAuNjI1Ij4mIzE2MDs8L3RleHQ+PHRleHQgZmlsbD0iIzAwMDAwMCIgZm9udC1mYW1pbHk9IkltcGFjdCIgZm9udC1zaXplPSIxMiIgbGVuZ3RoQWRqdXN0PSJzcGFjaW5nIiB0ZXh0TGVuZ3RoPSIzOSIgeD0iMTMzMi41IiB5PSI4MTAuNjI1Ij5zY3JpcHQ8L3RleHQ+PHRleHQgZmlsbD0iIzAwMDAwMCIgZm9udC1mYW1pbHk9IkltcGFjdCIgZm9udC1zaXplPSIxMiIgbGVuZ3RoQWRqdXN0PSJzcGFjaW5nIiB0ZXh0TGVuZ3RoPSI2MCIgeD0iMTI4OSIgeT0iODIzLjQ2ODgiPihQREVDT1BZKTwvdGV4dD48bGluZSBzdHlsZT0ic3Ryb2tlOiMwMDAwMDA7c3Ryb2tlLXdpZHRoOjIuMDtzdHJva2UtZGFzaGFycmF5OjIuMCwyLjA7IiB4MT0iMTI1OS41IiB4Mj0iMTMwMS41IiB5MT0iODY2LjgxMjUiIHkyPSI4NjYuODEyNSIvPjxsaW5lIHN0eWxlPSJzdHJva2U6IzAwMDAwMDtzdHJva2Utd2lkdGg6Mi4wO3N0cm9rZS1kYXNoYXJyYXk6Mi4wLDIuMDsiIHgxPSIxMzAxLjUiIHgyPSIxMzAxLjUiIHkxPSI4NjYuODEyNSIgeTI9Ijg3OS44MTI1Ii8+PGxpbmUgc3R5bGU9InN0cm9rZTojMDAwMDAwO3N0cm9rZS13aWR0aDoyLjA7c3Ryb2tlLWRhc2hhcnJheToyLjAsMi4wOyIgeDE9IjEyNjAuNSIgeDI9IjEzMDEuNSIgeTE9Ijg3OS44MTI1IiB5Mj0iODc5LjgxMjUiLz48cG9seWdvbiBmaWxsPSIjMDAwMDAwIiBwb2ludHM9IjEyNzAuNSw4NzUuODEyNSwxMjYwLjUsODc5LjgxMjUsMTI3MC41LDg4My44MTI1LDEyNjYuNSw4NzkuODEyNSIgc3R5bGU9InN0cm9rZTojMDAwMDAwO3N0cm9rZS13aWR0aDoxLjA7Ii8+PHRleHQgZmlsbD0iIzAwMDAwMCIgZm9udC1mYW1pbHk9IkltcGFjdCIgZm9udC1zaXplPSIxMiIgbGVuZ3RoQWRqdXN0PSJzcGFjaW5nIiB0ZXh0TGVuZ3RoPSIxOCIgeD0iMTI2Ni41IiB5PSI4NjMuMzEyNSI+RUZUPC90ZXh0Pjx0ZXh0IGZpbGw9IiMwMDAwMDAiIGZvbnQtZmFtaWx5PSJJbXBhY3QiIGZvbnQtc2l6ZT0iMTIiIGxlbmd0aEFkanVzdD0ic3BhY2luZyIgdGV4dExlbmd0aD0iNiIgeD0iMTI4NC41IiB5PSI4NjMuMzEyNSI+JiMxNjA7PC90ZXh0Pjx0ZXh0IGZpbGw9IiMwMDAwMDAiIGZvbnQtZmFtaWx5PSJJbXBhY3QiIGZvbnQtc2l6ZT0iMTIiIGxlbmd0aEFkanVzdD0ic3BhY2luZyIgdGV4dExlbmd0aD0iNTYiIHg9IjEyOTAuNSIgeT0iODYzLjMxMjUiPlJlc3BvbnNlPC90ZXh0Pjx0ZXh0IGZpbGw9IiMwMDAwMDAiIGZvbnQtZmFtaWx5PSJJbXBhY3QiIGZvbnQtc2l6ZT0iMTIiIGxlbmd0aEFkanVzdD0ic3BhY2luZyIgdGV4dExlbmd0aD0iNiIgeD0iMTM0Ni41IiB5PSI4NjMuMzEyNSI+JiMxNjA7PC90ZXh0Pjx0ZXh0IGZpbGw9IiMwMDAwMDAiIGZvbnQtZmFtaWx5PSJJbXBhY3QiIGZvbnQtc2l6ZT0iMTIiIGxlbmd0aEFkanVzdD0ic3BhY2luZyIgdGV4dExlbmd0aD0iMzIiIHg9IjEzNTIuNSIgeT0iODYzLjMxMjUiPmZpbGVzPC90ZXh0PjxwYXRoIGQ9Ik0xMjAwLDg5NC44MTI1IEwxNDI1LDg5NC44MTI1IEwxNDI1LDkwMC43MjY2IEwxNDE1LDkxMC43MjY2IEwxMjAwLDkxMC43MjY2IEwxMjAwLDg5NC44MTI1ICIgZmlsbD0iI0ZGRDcwMCIgc3R5bGU9InN0cm9rZTojMDAwMDAwO3N0cm9rZS13aWR0aDoxLjU7Ii8+PHJlY3QgZmlsbD0ibm9uZSIgaGVpZ2h0PSI1NS42MDE2IiBzdHlsZT0ic3Ryb2tlOiM3RDg5OTg7c3Ryb2tlLXdpZHRoOjEuNTsiIHdpZHRoPSIyNzMuNSIgeD0iMTIwMCIgeT0iODk0LjgxMjUiLz48dGV4dCBmaWxsPSIjMDAwMDAwIiBmb250LWZhbWlseT0ic2Fucy1zZXJpZiIgZm9udC1zaXplPSIxMyIgZm9udC13ZWlnaHQ9ImJvbGQiIGxlbmd0aEFkanVzdD0ic3BhY2luZyIgdGV4dExlbmd0aD0iMTgwIiB4PSIxMjE1IiB5PSI5MDguMTAxNiI+KDEuMilEYXRhYnJpY2tzIChQREUgRURJVFMpPC90ZXh0Pjxwb2x5Z29uIGZpbGw9IiMwMDAwMDAiIHBvaW50cz0iMTM5OS41LDkzOC40MTQxLDE0MDkuNSw5NDIuNDE0MSwxMzk5LjUsOTQ2LjQxNDEsMTQwMy41LDk0Mi40MTQxIiBzdHlsZT0ic3Ryb2tlOiMwMDAwMDA7c3Ryb2tlLXdpZHRoOjEuMDsiLz48bGluZSBzdHlsZT0ic3Ryb2tlOiMwMDAwMDA7c3Ryb2tlLXdpZHRoOjIuMDsiIHgxPSIxMjU5LjUiIHgyPSIxNDA1LjUiIHkxPSI5NDIuNDE0MSIgeTI9Ijk0Mi40MTQxIi8+PHRleHQgZmlsbD0iIzAwMDAwMCIgZm9udC1mYW1pbHk9IkltcGFjdCIgZm9udC1zaXplPSIxMiIgbGVuZ3RoQWRqdXN0PSJzcGFjaW5nIiB0ZXh0TGVuZ3RoPSIyMSIgeD0iMTI3MS41IiB5PSI5MjYuMDcwMyI+UiZhbXA7QzwvdGV4dD48dGV4dCBmaWxsPSIjMDAwMDAwIiBmb250LWZhbWlseT0iSW1wYWN0IiBmb250LXNpemU9IjEyIiBsZW5ndGhBZGp1c3Q9InNwYWNpbmciIHRleHRMZW5ndGg9IjYiIHg9IjEyOTIuNSIgeT0iOTI2LjA3MDMiPiYjMTYwOzwvdGV4dD48dGV4dCBmaWxsPSIjMDAwMDAwIiBmb250LWZhbWlseT0iSW1wYWN0IiBmb250LXNpemU9IjEyIiBsZW5ndGhBZGp1c3Q9InNwYWNpbmciIHRleHRMZW5ndGg9IjQ4IiB4PSIxMjk4LjUiIHk9IjkyNi4wNzAzIj5wcm9jZXNzPC90ZXh0Pjx0ZXh0IGZpbGw9IiMwMDAwMDAiIGZvbnQtZmFtaWx5PSJJbXBhY3QiIGZvbnQtc2l6ZT0iMTIiIGxlbmd0aEFkanVzdD0ic3BhY2luZyIgdGV4dExlbmd0aD0iNiIgeD0iMTM0Ni41IiB5PSI5MjYuMDcwMyI+JiMxNjA7PC90ZXh0Pjx0ZXh0IGZpbGw9IiMwMDAwMDAiIGZvbnQtZmFtaWx5PSJJbXBhY3QiIGZvbnQtc2l6ZT0iMTIiIGxlbmd0aEFkanVzdD0ic3BhY2luZyIgdGV4dExlbmd0aD0iNDciIHg9IjEzNTIuNSIgeT0iOTI2LjA3MDMiPlRyaWdnZXI8L3RleHQ+PHRleHQgZmlsbD0iIzAwMDAwMCIgZm9udC1mYW1pbHk9IkltcGFjdCIgZm9udC1zaXplPSIxMiIgbGVuZ3RoQWRqdXN0PSJzcGFjaW5nIiB0ZXh0TGVuZ3RoPSIyMCIgeD0iMTI3Ny41IiB5PSI5MzguOTE0MSI+UERFPC90ZXh0Pjx0ZXh0IGZpbGw9IiMwMDAwMDAiIGZvbnQtZmFtaWx5PSJJbXBhY3QiIGZvbnQtc2l6ZT0iMTIiIGxlbmd0aEFkanVzdD0ic3BhY2luZyIgdGV4dExlbmd0aD0iNiIgeD0iMTI5Ny41IiB5PSI5MzguOTE0MSI+JiMxNjA7PC90ZXh0Pjx0ZXh0IGZpbGw9IiMwMDAwMDAiIGZvbnQtZmFtaWx5PSJJbXBhY3QiIGZvbnQtc2l6ZT0iMTIiIGxlbmd0aEFkanVzdD0ic3BhY2luZyIgdGV4dExlbmd0aD0iMzIiIHg9IjEzMDMuNSIgeT0iOTM4LjkxNDEiPkVESVRTPC90ZXh0Pjx0ZXh0IGZpbGw9IiMwMDAwMDAiIGZvbnQtZmFtaWx5PSJJbXBhY3QiIGZvbnQtc2l6ZT0iMTIiIGxlbmd0aEFkanVzdD0ic3BhY2luZyIgdGV4dExlbmd0aD0iNiIgeD0iMTMzNS41IiB5PSI5MzguOTE0MSI+JiMxNjA7PC90ZXh0Pjx0ZXh0IGZpbGw9IiMwMDAwMDAiIGZvbnQtZmFtaWx5PSJJbXBhY3QiIGZvbnQtc2l6ZT0iMTIiIGxlbmd0aEFkanVzdD0ic3BhY2luZyIgdGV4dExlbmd0aD0iNTIiIHg9IjEzNDEuNSIgeT0iOTM4LjkxNDEiPldvcmtmbG93PC90ZXh0PjxwYXRoIGQ9Ik00MCw5NzEuNDE0MSBMMjg1LDk3MS40MTQxIEwyODUsOTc3LjMyODEgTDI3NSw5ODcuMzI4MSBMNDAsOTg3LjMyODEgTDQwLDk3MS40MTQxICIgZmlsbD0iI0ZGRDcwMCIgc3R5bGU9InN0cm9rZTojMDAwMDAwO3N0cm9rZS13aWR0aDoxLjU7Ii8+PHJlY3QgZmlsbD0ibm9uZSIgaGVpZ2h0PSI1NS42MDE2IiBzdHlsZT0ic3Ryb2tlOiM3RDg5OTg7c3Ryb2tlLXdpZHRoOjEuNTsiIHdpZHRoPSIxNDMzLjUiIHg9IjQwIiB5PSI5NzEuNDE0MSIvPjx0ZXh0IGZpbGw9IiMwMDAwMDAiIGZvbnQtZmFtaWx5PSJzYW5zLXNlcmlmIiBmb250LXNpemU9IjEzIiBmb250LXdlaWdodD0iYm9sZCIgbGVuZ3RoQWRqdXN0PSJzcGFjaW5nIiB0ZXh0TGVuZ3RoPSIyMDAiIHg9IjU1IiB5PSI5ODQuNzAzMSI+KHMzIGV2ZW50LSgxLjMpIERCWC5kb25lIGZpbGUpPC90ZXh0Pjxwb2x5Z29uIGZpbGw9IiMwMDAwMDAiIHBvaW50cz0iMTQ4LjUsMTAxNS4wMTU2LDEzOC41LDEwMTkuMDE1NiwxNDguNSwxMDIzLjAxNTYsMTQ0LjUsMTAxOS4wMTU2IiBzdHlsZT0ic3Ryb2tlOiMwMDAwMDA7c3Ryb2tlLXdpZHRoOjEuMDsiLz48bGluZSBzdHlsZT0ic3Ryb2tlOiMwMDAwMDA7c3Ryb2tlLXdpZHRoOjIuMDsiIHgxPSIxNDIuNSIgeDI9IjE0MTAuNSIgeTE9IjEwMTkuMDE1NiIgeTI9IjEwMTkuMDE1NiIvPjx0ZXh0IGZpbGw9IiMwMDAwMDAiIGZvbnQtZmFtaWx5PSJJbXBhY3QiIGZvbnQtc2l6ZT0iMTIiIGxlbmd0aEFkanVzdD0ic3BhY2luZyIgdGV4dExlbmd0aD0iMjAiIHg9IjcwMCIgeT0iMTAwMi42NzE5Ij5QdXQ8L3RleHQ+PHRleHQgZmlsbD0iIzAwMDAwMCIgZm9udC1mYW1pbHk9IkltcGFjdCIgZm9udC1zaXplPSIxMiIgbGVuZ3RoQWRqdXN0PSJzcGFjaW5nIiB0ZXh0TGVuZ3RoPSI2IiB4PSI3MjAiIHk9IjEwMDIuNjcxOSI+JiMxNjA7PC90ZXh0Pjx0ZXh0IGZpbGw9IiMwMDAwMDAiIGZvbnQtZmFtaWx5PSJJbXBhY3QiIGZvbnQtc2l6ZT0iMTIiIGxlbmd0aEFkanVzdD0ic3BhY2luZyIgdGV4dExlbmd0aD0iODUiIHg9IjcyNiIgeT0iMTAwMi42NzE5Ij5DTlRML1BERVBMUy4qPC90ZXh0Pjx0ZXh0IGZpbGw9IiMwMDAwMDAiIGZvbnQtZmFtaWx5PSJJbXBhY3QiIGZvbnQtc2l6ZT0iMTIiIGxlbmd0aEFkanVzdD0ic3BhY2luZyIgdGV4dExlbmd0aD0iNiIgeD0iODExIiB5PSIxMDAyLjY3MTkiPiYjMTYwOzwvdGV4dD48dGV4dCBmaWxsPSIjMDAwMDAwIiBmb250LWZhbWlseT0iSW1wYWN0IiBmb250LXNpemU9IjEyIiBsZW5ndGhBZGp1c3Q9InNwYWNpbmciIHRleHRMZW5ndGg9IjMyIiB4PSI4MTciIHk9IjEwMDIuNjcxOSI+ZmlsZXM8L3RleHQ+PHRleHQgZmlsbD0iIzAwMDAwMCIgZm9udC1mYW1pbHk9IkltcGFjdCIgZm9udC1zaXplPSIxMiIgbGVuZ3RoQWRqdXN0PSJzcGFjaW5nIiB0ZXh0TGVuZ3RoPSIxMyIgeD0iNzU4LjUiIHk9IjEwMTUuNTE1NiI+dG88L3RleHQ+PHRleHQgZmlsbD0iIzAwMDAwMCIgZm9udC1mYW1pbHk9IkltcGFjdCIgZm9udC1zaXplPSIxMiIgbGVuZ3RoQWRqdXN0PSJzcGFjaW5nIiB0ZXh0TGVuZ3RoPSI2IiB4PSI3NzEuNSIgeT0iMTAxNS41MTU2Ij4mIzE2MDs8L3RleHQ+PHRleHQgZmlsbD0iIzAwMDAwMCIgZm9udC1mYW1pbHk9IkltcGFjdCIgZm9udC1zaXplPSIxMiIgbGVuZ3RoQWRqdXN0PSJzcGFjaW5nIiB0ZXh0TGVuZ3RoPSIxMyIgeD0iNzc3LjUiIHk9IjEwMTUuNTE1NiI+UzM8L3RleHQ+PHBhdGggZD0iTTQwLDEwNDEuMDE1NiBMMzEzLDEwNDEuMDE1NiBMMzEzLDEwNDYuOTI5NyBMMzAzLDEwNTYuOTI5NyBMNDAsMTA1Ni45Mjk3IEw0MCwxMDQxLjAxNTYgIiBmaWxsPSIjRkZENzAwIiBzdHlsZT0ic3Ryb2tlOiMwMDAwMDA7c3Ryb2tlLXdpZHRoOjEuNTsiLz48cmVjdCBmaWxsPSJub25lIiBoZWlnaHQ9IjIzMC43MzQ0IiBzdHlsZT0ic3Ryb2tlOiM3RDg5OTg7c3Ryb2tlLXdpZHRoOjEuNTsiIHdpZHRoPSIxMzczLjUiIHg9IjQwIiB5PSIxMDQxLjAxNTYiLz48dGV4dCBmaWxsPSIjMDAwMDAwIiBmb250LWZhbWlseT0ic2Fucy1zZXJpZiIgZm9udC1zaXplPSIxMyIgZm9udC13ZWlnaHQ9ImJvbGQiIGxlbmd0aEFkanVzdD0ic3BhY2luZyIgdGV4dExlbmd0aD0iMjI4IiB4PSI1NSIgeT0iMTA1NC4zMDQ3Ij4oMS40KSBQREVQTFMgZmlsZXMgZnJvbSBEYXRhYnJpY2tzPC90ZXh0PjxwYXRoIGQ9Ik0xMjAwLDEwNjMuOTI5NyBMMTMxOSwxMDYzLjkyOTcgTDEzMTksMTA2OS44NDM4IEwxMzA5LDEwNzkuODQzOCBMMTIwMCwxMDc5Ljg0MzggTDEyMDAsMTA2My45Mjk3ICIgZmlsbD0iI0ZGRDcwMCIgc3R5bGU9InN0cm9rZTojMDAwMDAwO3N0cm9rZS13aWR0aDoxLjU7Ii8+PHJlY3QgZmlsbD0ibm9uZSIgaGVpZ2h0PSIxNjEuMTMyOCIgc3R5bGU9InN0cm9rZTojN0Q4OTk4O3N0cm9rZS13aWR0aDoxLjU7IiB3aWR0aD0iMjAzLjUiIHg9IjEyMDAiIHk9IjEwNjMuOTI5NyIvPjx0ZXh0IGZpbGw9IiMwMDAwMDAiIGZvbnQtZmFtaWx5PSJzYW5zLXNlcmlmIiBmb250LXNpemU9IjEzIiBmb250LXdlaWdodD0iYm9sZCIgbGVuZ3RoQWRqdXN0PSJzcGFjaW5nIiB0ZXh0TGVuZ3RoPSI3NCIgeD0iMTIxNSIgeT0iMTA3Ny4yMTg4Ij4oMS41KSBCIE8gTDwvdGV4dD48bGluZSBzdHlsZT0ic3Ryb2tlOiMwMDAwMDA7c3Ryb2tlLXdpZHRoOjIuMDtzdHJva2UtZGFzaGFycmF5OjIuMCwyLjA7IiB4MT0iMTI1OS41IiB4Mj0iMTMwMS41IiB5MT0iMTExMS41MzEzIiB5Mj0iMTExMS41MzEzIi8+PGxpbmUgc3R5bGU9InN0cm9rZTojMDAwMDAwO3N0cm9rZS13aWR0aDoyLjA7c3Ryb2tlLWRhc2hhcnJheToyLjAsMi4wOyIgeDE9IjEzMDEuNSIgeDI9IjEzMDEuNSIgeTE9IjExMTEuNTMxMyIgeTI9IjExMjQuNTMxMyIvPjxsaW5lIHN0eWxlPSJzdHJva2U6IzAwMDAwMDtzdHJva2Utd2lkdGg6Mi4wO3N0cm9rZS1kYXNoYXJyYXk6Mi4wLDIuMDsiIHgxPSIxMjYwLjUiIHgyPSIxMzAxLjUiIHkxPSIxMTI0LjUzMTMiIHkyPSIxMTI0LjUzMTMiLz48cG9seWdvbiBmaWxsPSIjMDAwMDAwIiBwb2ludHM9IjEyNzAuNSwxMTIwLjUzMTMsMTI2MC41LDExMjQuNTMxMywxMjcwLjUsMTEyOC41MzEzLDEyNjYuNSwxMTI0LjUzMTMiIHN0eWxlPSJzdHJva2U6IzAwMDAwMDtzdHJva2Utd2lkdGg6MS4wOyIvPjx0ZXh0IGZpbGw9IiMwMDAwMDAiIGZvbnQtZmFtaWx5PSJJbXBhY3QiIGZvbnQtc2l6ZT0iMTIiIGxlbmd0aEFkanVzdD0ic3BhY2luZyIgdGV4dExlbmd0aD0iMzMiIHg9IjEyNjYuNSIgeT0iMTA5NS4xODc1Ij5TdGFydDwvdGV4dD48dGV4dCBmaWxsPSIjMDAwMDAwIiBmb250LWZhbWlseT0iSW1wYWN0IiBmb250LXNpemU9IjEyIiBsZW5ndGhBZGp1c3Q9InNwYWNpbmciIHRleHRMZW5ndGg9IjYiIHg9IjEyOTkuNSIgeT0iMTA5NS4xODc1Ij4mIzE2MDs8L3RleHQ+PHRleHQgZmlsbD0iIzAwMDAwMCIgZm9udC1mYW1pbHk9IkltcGFjdCIgZm9udC1zaXplPSIxMiIgbGVuZ3RoQWRqdXN0PSJzcGFjaW5nIiB0ZXh0TGVuZ3RoPSIyMCIgeD0iMTMwNS41IiB5PSIxMDk1LjE4NzUiPkJPTDwvdGV4dD48dGV4dCBmaWxsPSIjMDAwMDAwIiBmb250LWZhbWlseT0iSW1wYWN0IiBmb250LXNpemU9IjEyIiBsZW5ndGhBZGp1c3Q9InNwYWNpbmciIHRleHRMZW5ndGg9IjYiIHg9IjEzMjUuNSIgeT0iMTA5NS4xODc1Ij4mIzE2MDs8L3RleHQ+PHRleHQgZmlsbD0iIzAwMDAwMCIgZm9udC1mYW1pbHk9IkltcGFjdCIgZm9udC1zaXplPSIxMiIgbGVuZ3RoQWRqdXN0PSJzcGFjaW5nIiB0ZXh0TGVuZ3RoPSIzOSIgeD0iMTMzMS41IiB5PSIxMDk1LjE4NzUiPnNjcmlwdDwvdGV4dD48dGV4dCBmaWxsPSIjMDAwMDAwIiBmb250LWZhbWlseT0iSW1wYWN0IiBmb250LXNpemU9IjEyIiBsZW5ndGhBZGp1c3Q9InNwYWNpbmciIHRleHRMZW5ndGg9IjUyIiB4PSIxMjkyLjUiIHk9IjExMDguMDMxMyI+KFBERVBMUyk8L3RleHQ+PGxpbmUgc3R5bGU9InN0cm9rZTojMDAwMDAwO3N0cm9rZS13aWR0aDoyLjA7c3Ryb2tlLWRhc2hhcnJheToyLjAsMi4wOyIgeDE9IjEyNTkuNSIgeDI9IjEzMDEuNSIgeTE9IjExNjQuMjE4OCIgeTI9IjExNjQuMjE4OCIvPjxsaW5lIHN0eWxlPSJzdHJva2U6IzAwMDAwMDtzdHJva2Utd2lkdGg6Mi4wO3N0cm9rZS1kYXNoYXJyYXk6Mi4wLDIuMDsiIHgxPSIxMzAxLjUiIHgyPSIxMzAxLjUiIHkxPSIxMTY0LjIxODgiIHkyPSIxMTc3LjIxODgiLz48bGluZSBzdHlsZT0ic3Ryb2tlOiMwMDAwMDA7c3Ryb2tlLXdpZHRoOjIuMDtzdHJva2UtZGFzaGFycmF5OjIuMCwyLjA7IiB4MT0iMTI2MC41IiB4Mj0iMTMwMS41IiB5MT0iMTE3Ny4yMTg4IiB5Mj0iMTE3Ny4yMTg4Ii8+PHBvbHlnb24gZmlsbD0iIzAwMDAwMCIgcG9pbnRzPSIxMjcwLjUsMTE3My4yMTg4LDEyNjAuNSwxMTc3LjIxODgsMTI3MC41LDExODEuMjE4OCwxMjY2LjUsMTE3Ny4yMTg4IiBzdHlsZT0ic3Ryb2tlOiMwMDAwMDA7c3Ryb2tlLXdpZHRoOjEuMDsiLz48dGV4dCBmaWxsPSIjMDAwMDAwIiBmb250LWZhbWlseT0iSW1wYWN0IiBmb250LXNpemU9IjEyIiBsZW5ndGhBZGp1c3Q9InNwYWNpbmciIHRleHRMZW5ndGg9IjI4IiB4PSIxMjcxIiB5PSIxMTQ3Ljg3NSI+QmVuZTwvdGV4dD48dGV4dCBmaWxsPSIjMDAwMDAwIiBmb250LWZhbWlseT0iSW1wYWN0IiBmb250LXNpemU9IjEyIiBsZW5ndGhBZGp1c3Q9InNwYWNpbmciIHRleHRMZW5ndGg9IjYiIHg9IjEyOTkiIHk9IjExNDcuODc1Ij4mIzE2MDs8L3RleHQ+PHRleHQgZmlsbD0iIzAwMDAwMCIgZm9udC1mYW1pbHk9IkltcGFjdCIgZm9udC1zaXplPSIxMiIgbGVuZ3RoQWRqdXN0PSJzcGFjaW5nIiB0ZXh0TGVuZ3RoPSIyNSIgeD0iMTMwNSIgeT0iMTE0Ny44NzUiPkxpbms8L3RleHQ+PHRleHQgZmlsbD0iIzAwMDAwMCIgZm9udC1mYW1pbHk9IkltcGFjdCIgZm9udC1zaXplPSIxMiIgbGVuZ3RoQWRqdXN0PSJzcGFjaW5nIiB0ZXh0TGVuZ3RoPSI2IiB4PSIxMzMwIiB5PSIxMTQ3Ljg3NSI+JiMxNjA7PC90ZXh0Pjx0ZXh0IGZpbGw9IiMwMDAwMDAiIGZvbnQtZmFtaWx5PSJJbXBhY3QiIGZvbnQtc2l6ZT0iMTIiIGxlbmd0aEFkanVzdD0ic3BhY2luZyIgdGV4dExlbmd0aD0iMjAiIHg9IjEzMzYiIHk9IjExNDcuODc1Ij5rZXk8L3RleHQ+PHRleHQgZmlsbD0iIzAwMDAwMCIgZm9udC1mYW1pbHk9IkltcGFjdCIgZm9udC1zaXplPSIxMiIgbGVuZ3RoQWRqdXN0PSJzcGFjaW5nIiB0ZXh0TGVuZ3RoPSI2IiB4PSIxMzU2IiB5PSIxMTQ3Ljg3NSI+JiMxNjA7PC90ZXh0Pjx0ZXh0IGZpbGw9IiMwMDAwMDAiIGZvbnQtZmFtaWx5PSJJbXBhY3QiIGZvbnQtc2l6ZT0iMTIiIGxlbmd0aEFkanVzdD0ic3BhY2luZyIgdGV4dExlbmd0aD0iMjUiIHg9IjEzNjIiIHk9IjExNDcuODc1Ij5maWxlPC90ZXh0Pjx0ZXh0IGZpbGw9IiMwMDAwMDAiIGZvbnQtZmFtaWx5PSJJbXBhY3QiIGZvbnQtc2l6ZT0iMTIiIGxlbmd0aEFkanVzdD0ic3BhY2luZyIgdGV4dExlbmd0aD0iMTI1IiB4PSIxMjY2LjUiIHk9IjExNjAuNzE4OCI+cHJvY2Vzc2luZykoQ3ljbGUzKTwvdGV4dD48bGluZSBzdHlsZT0ic3Ryb2tlOiMwMDAwMDA7c3Ryb2tlLXdpZHRoOjIuMDtzdHJva2UtZGFzaGFycmF5OjIuMCwyLjA7IiB4MT0iMTI1OS41IiB4Mj0iMTMwMS41IiB5MT0iMTIwNC4wNjI1IiB5Mj0iMTIwNC4wNjI1Ii8+PGxpbmUgc3R5bGU9InN0cm9rZTojMDAwMDAwO3N0cm9rZS13aWR0aDoyLjA7c3Ryb2tlLWRhc2hhcnJheToyLjAsMi4wOyIgeDE9IjEzMDEuNSIgeDI9IjEzMDEuNSIgeTE9IjEyMDQuMDYyNSIgeTI9IjEyMTcuMDYyNSIvPjxsaW5lIHN0eWxlPSJzdHJva2U6IzAwMDAwMDtzdHJva2Utd2lkdGg6Mi4wO3N0cm9rZS1kYXNoYXJyYXk6Mi4wLDIuMDsiIHgxPSIxMjYwLjUiIHgyPSIxMzAxLjUiIHkxPSIxMjE3LjA2MjUiIHkyPSIxMjE3LjA2MjUiLz48cG9seWdvbiBmaWxsPSIjMDAwMDAwIiBwb2ludHM9IjEyNzAuNSwxMjEzLjA2MjUsMTI2MC41LDEyMTcuMDYyNSwxMjcwLjUsMTIyMS4wNjI1LDEyNjYuNSwxMjE3LjA2MjUiIHN0eWxlPSJzdHJva2U6IzAwMDAwMDtzdHJva2Utd2lkdGg6MS4wOyIvPjx0ZXh0IGZpbGw9IiMwMDAwMDAiIGZvbnQtZmFtaWx5PSJJbXBhY3QiIGZvbnQtc2l6ZT0iMTIiIGxlbmd0aEFkanVzdD0ic3BhY2luZyIgdGV4dExlbmd0aD0iMTgiIHg9IjEyNjYuNSIgeT0iMTIwMC41NjI1Ij5FRlQ8L3RleHQ+PHRleHQgZmlsbD0iIzAwMDAwMCIgZm9udC1mYW1pbHk9IkltcGFjdCIgZm9udC1zaXplPSIxMiIgbGVuZ3RoQWRqdXN0PSJzcGFjaW5nIiB0ZXh0TGVuZ3RoPSI2IiB4PSIxMjg0LjUiIHk9IjEyMDAuNTYyNSI+JiMxNjA7PC90ZXh0Pjx0ZXh0IGZpbGw9IiMwMDAwMDAiIGZvbnQtZmFtaWx5PSJJbXBhY3QiIGZvbnQtc2l6ZT0iMTIiIGxlbmd0aEFkanVzdD0ic3BhY2luZyIgdGV4dExlbmd0aD0iMjAiIHg9IjEyOTAuNSIgeT0iMTIwMC41NjI1Ij5PdXQ8L3RleHQ+PHRleHQgZmlsbD0iIzAwMDAwMCIgZm9udC1mYW1pbHk9IkltcGFjdCIgZm9udC1zaXplPSIxMiIgbGVuZ3RoQWRqdXN0PSJzcGFjaW5nIiB0ZXh0TGVuZ3RoPSI2IiB4PSIxMzEwLjUiIHk9IjEyMDAuNTYyNSI+JiMxNjA7PC90ZXh0Pjx0ZXh0IGZpbGw9IiMwMDAwMDAiIGZvbnQtZmFtaWx5PSJJbXBhY3QiIGZvbnQtc2l6ZT0iMTIiIGxlbmd0aEFkanVzdD0ic3BhY2luZyIgdGV4dExlbmd0aD0iMzUiIHg9IjEzMTYuNSIgeT0iMTIwMC41NjI1Ij5ib3VuZDwvdGV4dD48dGV4dCBmaWxsPSIjMDAwMDAwIiBmb250LWZhbWlseT0iSW1wYWN0IiBmb250LXNpemU9IjEyIiBsZW5ndGhBZGp1c3Q9InNwYWNpbmciIHRleHRMZW5ndGg9IjYiIHg9IjEzNTEuNSIgeT0iMTIwMC41NjI1Ij4mIzE2MDs8L3RleHQ+PHRleHQgZmlsbD0iIzAwMDAwMCIgZm9udC1mYW1pbHk9IkltcGFjdCIgZm9udC1zaXplPSIxMiIgbGVuZ3RoQWRqdXN0PSJzcGFjaW5nIiB0ZXh0TGVuZ3RoPSIzMiIgeD0iMTM1Ny41IiB5PSIxMjAwLjU2MjUiPmZpbGVzPC90ZXh0Pjxwb2x5Z29uIGZpbGw9IiMwMDAwMDAiIHBvaW50cz0iNDUzLjUsMTI1OS43NSw0NjMuNSwxMjYzLjc1LDQ1My41LDEyNjcuNzUsNDU3LjUsMTI2My43NSIgc3R5bGU9InN0cm9rZTojMDAwMDAwO3N0cm9rZS13aWR0aDoxLjA7Ii8+PGxpbmUgc3R5bGU9InN0cm9rZTojMDAwMDAwO3N0cm9rZS13aWR0aDoyLjA7IiB4MT0iMTM3LjUiIHgyPSI0NTkuNSIgeTE9IjEyNjMuNzUiIHkyPSIxMjYzLjc1Ii8+PHRleHQgZmlsbD0iIzAwMDAwMCIgZm9udC1mYW1pbHk9IkltcGFjdCIgZm9udC1zaXplPSIxMiIgbGVuZ3RoQWRqdXN0PSJzcGFjaW5nIiB0ZXh0TGVuZ3RoPSIyMSIgeD0iMjY0IiB5PSIxMjQ3LjQwNjMiPkFkZDwvdGV4dD48dGV4dCBmaWxsPSIjMDAwMDAwIiBmb250LWZhbWlseT0iSW1wYWN0IiBmb250LXNpemU9IjEyIiBsZW5ndGhBZGp1c3Q9InNwYWNpbmciIHRleHRMZW5ndGg9IjYiIHg9IjI4NSIgeT0iMTI0Ny40MDYzIj4mIzE2MDs8L3RleHQ+PHRleHQgZmlsbD0iIzAwMDAwMCIgZm9udC1mYW1pbHk9IkltcGFjdCIgZm9udC1zaXplPSIxMiIgbGVuZ3RoQWRqdXN0PSJzcGFjaW5nIiB0ZXh0TGVuZ3RoPSI0OCIgeD0iMjkxIiB5PSIxMjQ3LjQwNjMiPm1lc3NhZ2U8L3RleHQ+PHRleHQgZmlsbD0iIzAwMDAwMCIgZm9udC1mYW1pbHk9IkltcGFjdCIgZm9udC1zaXplPSIxMiIgbGVuZ3RoQWRqdXN0PSJzcGFjaW5nIiB0ZXh0TGVuZ3RoPSIyNDEiIHg9IjE4MSIgeT0iMTI2MC4yNSI+KFBERVBMUy4qKUZpbGVzKC9wcmQ6L2xhbmRpbmcvQ05UTC4qKTwvdGV4dD48cGF0aCBkPSJNNDAsMTI5Mi43NSBMMjkxLDEyOTIuNzUgTDI5MSwxMjk4LjY2NDEgTDI4MSwxMzA4LjY2NDEgTDQwLDEzMDguNjY0MSBMNDAsMTI5Mi43NSAiIGZpbGw9IiNGRkQ3MDAiIHN0eWxlPSJzdHJva2U6IzAwMDAwMDtzdHJva2Utd2lkdGg6MS41OyIvPjxyZWN0IGZpbGw9Im5vbmUiIGhlaWdodD0iNDIuNzU3OCIgc3R5bGU9InN0cm9rZTojN0Q4OTk4O3N0cm9rZS13aWR0aDoxLjU7IiB3aWR0aD0iMTI3OSIgeD0iNDAiIHk9IjEyOTIuNzUiLz48dGV4dCBmaWxsPSIjMDAwMDAwIiBmb250LWZhbWlseT0ic2Fucy1zZXJpZiIgZm9udC1zaXplPSIxMyIgZm9udC13ZWlnaHQ9ImJvbGQiIGxlbmd0aEFkanVzdD0ic3BhY2luZyIgdGV4dExlbmd0aD0iMjA2IiB4PSI1NSIgeT0iMTMwNi4wMzkxIj4oczMgZXZlbnQgLSgxLjYpIEVGVC5kb25lIGZpbGUpPC90ZXh0Pjxwb2x5Z29uIGZpbGw9IiMwMDAwMDAiIHBvaW50cz0iMTQ4LjUsMTMyMy41MDc4LDEzOC41LDEzMjcuNTA3OCwxNDguNSwxMzMxLjUwNzgsMTQ0LjUsMTMyNy41MDc4IiBzdHlsZT0ic3Ryb2tlOiMwMDAwMDA7c3Ryb2tlLXdpZHRoOjEuMDsiLz48bGluZSBzdHlsZT0ic3Ryb2tlOiMwMDAwMDA7c3Ryb2tlLXdpZHRoOjIuMDsiIHgxPSIxNDIuNSIgeDI9IjEyNTguNSIgeTE9IjEzMjcuNTA3OCIgeTI9IjEzMjcuNTA3OCIvPjx0ZXh0IGZpbGw9IiMwMDAwMDAiIGZvbnQtZmFtaWx5PSJJbXBhY3QiIGZvbnQtc2l6ZT0iMTIiIGxlbmd0aEFkanVzdD0ic3BhY2luZyIgdGV4dExlbmd0aD0iMjAiIHg9IjYyNSIgeT0iMTMyNC4wMDc4Ij5QdXQ8L3RleHQ+PHRleHQgZmlsbD0iIzAwMDAwMCIgZm9udC1mYW1pbHk9IkltcGFjdCIgZm9udC1zaXplPSIxMiIgbGVuZ3RoQWRqdXN0PSJzcGFjaW5nIiB0ZXh0TGVuZ3RoPSI2IiB4PSI2NDUiIHk9IjEzMjQuMDA3OCI+JiMxNjA7PC90ZXh0Pjx0ZXh0IGZpbGw9IiMwMDAwMDAiIGZvbnQtZmFtaWx5PSJJbXBhY3QiIGZvbnQtc2l6ZT0iMTIiIGxlbmd0aEFkanVzdD0ic3BhY2luZyIgdGV4dExlbmd0aD0iMTgiIHg9IjY1MSIgeT0iMTMyNC4wMDc4Ij5FRlQ8L3RleHQ+PHRleHQgZmlsbD0iIzAwMDAwMCIgZm9udC1mYW1pbHk9IkltcGFjdCIgZm9udC1zaXplPSIxMiIgbGVuZ3RoQWRqdXN0PSJzcGFjaW5nIiB0ZXh0TGVuZ3RoPSI2IiB4PSI2NjkiIHk9IjEzMjQuMDA3OCI+JiMxNjA7PC90ZXh0Pjx0ZXh0IGZpbGw9IiMwMDAwMDAiIGZvbnQtZmFtaWx5PSJJbXBhY3QiIGZvbnQtc2l6ZT0iMTIiIGxlbmd0aEFkanVzdD0ic3BhY2luZyIgdGV4dExlbmd0aD0iMjgiIHg9IjY3NSIgeT0iMTMyNC4wMDc4Ij5kb25lPC90ZXh0Pjx0ZXh0IGZpbGw9IiMwMDAwMDAiIGZvbnQtZmFtaWx5PSJJbXBhY3QiIGZvbnQtc2l6ZT0iMTIiIGxlbmd0aEFkanVzdD0ic3BhY2luZyIgdGV4dExlbmd0aD0iNiIgeD0iNzAzIiB5PSIxMzI0LjAwNzgiPiYjMTYwOzwvdGV4dD48dGV4dCBmaWxsPSIjMDAwMDAwIiBmb250LWZhbWlseT0iSW1wYWN0IiBmb250LXNpemU9IjEyIiBsZW5ndGhBZGp1c3Q9InNwYWNpbmciIHRleHRMZW5ndGg9IjI1IiB4PSI3MDkiIHk9IjEzMjQuMDA3OCI+ZmlsZTwvdGV4dD48dGV4dCBmaWxsPSIjMDAwMDAwIiBmb250LWZhbWlseT0iSW1wYWN0IiBmb250LXNpemU9IjEyIiBsZW5ndGhBZGp1c3Q9InNwYWNpbmciIHRleHRMZW5ndGg9IjYiIHg9IjczNCIgeT0iMTMyNC4wMDc4Ij4mIzE2MDs8L3RleHQ+PHRleHQgZmlsbD0iIzAwMDAwMCIgZm9udC1mYW1pbHk9IkltcGFjdCIgZm9udC1zaXplPSIxMiIgbGVuZ3RoQWRqdXN0PSJzcGFjaW5nIiB0ZXh0TGVuZ3RoPSIxMyIgeD0iNzQwIiB5PSIxMzI0LjAwNzgiPnRvPC90ZXh0Pjx0ZXh0IGZpbGw9IiMwMDAwMDAiIGZvbnQtZmFtaWx5PSJJbXBhY3QiIGZvbnQtc2l6ZT0iMTIiIGxlbmd0aEFkanVzdD0ic3BhY2luZyIgdGV4dExlbmd0aD0iNiIgeD0iNzUzIiB5PSIxMzI0LjAwNzgiPiYjMTYwOzwvdGV4dD48dGV4dCBmaWxsPSIjMDAwMDAwIiBmb250LWZhbWlseT0iSW1wYWN0IiBmb250LXNpemU9IjEyIiBsZW5ndGhBZGp1c3Q9InNwYWNpbmciIHRleHRMZW5ndGg9IjEzIiB4PSI3NTkiIHk9IjEzMjQuMDA3OCI+czM8L3RleHQ+PCEtLVNSQz1bakxQalJ6aXM0RnV5X09maENqSHM0TGJ2UVZsMXcwQk9ZWHE0VEg4dEpqNEw2MzNHNFlxSmJhWURlYzl1bV94eHhZWjlma2t1UW1qSzctQThsN2xrdk5idU9rbHV2cHJVMl9nYk1JV0RGam9Nc1lwTWEya3BPQmJjMk9rUHJ2Z2FKMWh1VTNrNjhqOFlEczBLOTVub3BHbzdVUWZNNDBrTVE5UHZoUC1QZmNVNElKYkNoZU9HVld4N0d5ZlFQU204OVJyTWlIR29QdlczSkNxUWhHZ1pITUpBQkZNc0VwQ01CSEVqSVhjN0FpTG9adVYzdVUwZ1Q5cU5KQ09oQk9wWDRlbWtrVVV1MnNjdWRoRThtcHlVeDg0emc2OHpxNmViUUtfZmNFamdOTWFjNC14endvOTVBaWtMdkRYS0dYZWZRUVJZUm12ZFJfMWppOGx4eGJxX1B6NjJOcngyTTJHQjRvOVVJY1BFMjNXVXFORFFPenNuWjRFZUlZc3VfaTlvYllCd1ZYMThMMWhaU2J6WjBIazhjbW1aY3NRdlJqYWZGZ0VIUXJqbEo0Z1RmeFJFNWRvS002NTZ6UGE1WHJIODNaREVFZmNadkw3Q3oxOG81VkNaUDZjRGt1ZE5VbDVoX3pGcXB3bC1tdGx1aE1oeVl2WkZvSDdOOXFXWkI4cDlZcnVHUUJSZzlpOGlvYmJQUzFyWDBYWWRZXzQyallmSURZbGVyblV1S1ZXT3BpejlsMFdHRjlzenhQdTZpSVlDenFCOEEydFozTlkwbG81Y2g2R3Q5eWRpeHFrTWhlczhZazB6dmJJOHVlZVBEWk1RaXdtdXY5QmRnT1lpRWN5bUhwbVV6NnltNUhjc3dLRjlJcHhiLWFiNF80Vnl4dkdIeXRodFhzMjZKellyV0hQbm1sLXR2RTdqR3ZZTTFPaF9XRWFqYW9wWG5GVXJVazlRQ1hkbjg0bkw2TnpZOWJmS05ndDZoVEpmblhFUmRmVTYxc0VNcE05czBGd3haOFJYLVF3NTYtdjBDX2dKY3NpU1BJa3NGVzAtQTBrWWxOM3lLTVBmVWkxeVFsMkc5aHBjZ2R4UmZRYU1UXzVOYVNqYWUtckFyclJDLUV6aW1Rb09oUFA5eXQtV1VOVG9ULXF6MXBuWDZqYUlFUWd6RlJxT2JENkljbkN1d05aeFlqaW5fSjJyTGJrd3REci1vZEhzU2Q5YVZ1eXdkWUNScnluUFRhOC04ekFUbzdTc0NkV0xoLXZNak85bkh3TUNvRnE4cFAzUGRQWlhFSU1NdnEzT041RHM2dzZ3WGJVM3R6Nkcza21DRm1kQjBXcmZ6RU43cnBacWdnXzlFZ0JsWWJPSFNibmxWa09mM1FuWkV0RzdRT2RKc0lWUmFLWHYwTkVqQ2ZZbURFQzZsdU0tVnViSmhzYXdsR0FzakdWekU4T0M4UDRhUUFEcFUzX3Z0N3RMZ0o2UWZudGFFa3U1RUFQWTc4TDE3bEQ4dlVpV2w3aVNleDd0cFIwTXpObDBnWXh0dTU2QjlFNndWZ1VGRXBPQUxMZGNXNHE2Q0dVZjNCdnY3Z0xSTW40MHhsUWMxYmlETW5mU1lMV1pBbnJDNmRieWVsazJWT1ZMMFotbVhDeEdpeDJVODBlQW1jS0N5MW05cnZnWnB4YlZmcmxidVVTZ0pRYWpfZXJ5S2Fsa3kzY3JUdk4yOVZrQktjcXpTN1dWUGNqMGJHQWRhaG5WZ2ltajNSWk9XLWxjMmFJbHFYNHh2YnpwSXBsUkxhRmxnbTZpMXZQVkVwanZFSWZ5MWszMnpTVU82dXVGS2tudVJOQWJtM1J1cGtjZWtxak0zVjZOcks5bGtzYmQyejIxM1hoT0FIdk9JLUtrYW5TREpKS3Z4UzdROFpIb1ZicGRsRURqOHY1MlYxeVF6c3FYM296M2w1ZDF1Qnd2YXpocHYzTDV4MEh6eEpqcDZ0R2ZPUVY2emJkdGhGRjA4dXVlQnFFeUpzWUxzZnhPRnJLNmJUUVg0Wmw1aFlfMnBWN2h4RGlFSHVfbW0wa3l2bkx1SVFRcHdVckdFWDVvSVI3RkV6bEhQRjVXVTdOcEU3S0dCbTU3NjBCdEE3MVVKUWJEOHBPRXk0ZGY5THQ2RHFyZXhJZDhuZ0lXNXZ0LTdDVWExVHhldnRkMWpPand0eFQtdkRBRHlWOWdReThpUk13Tk16Y1hCYWUzRDcwMnA2cW9kZFBWTFVOSk9DNU9LQ2NZckdaVHN1elJ5dVJuTmRVVzBnYVh4RG5yLWNLdi1laF9jbXVDdTF4NlBFVW0wbXNMTV90T3JjRVdwZnhiMDh5dnRoc25TcWstamRhcTlFMkd4QkpqaUJkT1RvRi14eDRKQ3hmYkRtQk9kZDN0YjN1eHJNdGRkWHRncEowX3A3RlQwRWgwc212S0w1RWZ0cWVyLTlLZHJrMW10UG85TWZKRWp3SllkMmhVTTFGUjJEU1NvYlFUeDd5MF0tLT48L2c+PC9zdmc+;" parent="1" vertex="1">
            <mxGeometry x="-750" y="-330" width="1230" height="1210.44" as="geometry" />
          </mxCell>
        </UserObject>
      </root>
    </mxGraphModel>
  </diagram>
  <diagram id="fdCdjCCSj_t-zE95WRFo" name="Page-2">
    <mxGraphModel dx="2524" dy="1858" grid="1" gridSize="10" guides="1" tooltips="1" connect="1" arrows="1" fold="1" page="1" pageScale="1" pageWidth="850" pageHeight="1100" math="0" shadow="0">
      <root>
        <mxCell id="0" />
        <mxCell id="1" parent="0" />
        <UserObject label="" plantUmlData="{&#xa;  &quot;data&quot;: &quot;@startuml\n\n\n!includeurl &lt;aws/common.puml&gt;\n!includeurl &lt;aws/ApplicationServices/AmazonAPIGateway/AmazonAPIGateway.puml&gt;\n!includeurl &lt;aws/Compute/AWSLambda/AWSLambda.puml&gt;\n!includeurl &lt;aws/Compute/AWSLambda/LambdaFunction/LambdaFunction.puml&gt;\n!includeurl &lt;aws/Database/AmazonDynamoDB/AmazonDynamoDB.puml&gt;\n!includeurl &lt;aws/Database/AmazonDynamoDB/table/table.puml&gt;\n!includeurl &lt;aws/General/AWScloud/AWScloud.puml&gt;\n!includeurl &lt;aws/General/client/client.puml&gt;\n!includeurl &lt;aws/General/user/user.puml&gt;\n!includeurl &lt;aws/SDKs/JavaScript/JavaScript.puml&gt;\n!includeurl &lt;aws/Storage/AmazonS3/AmazonS3.puml&gt;\n!includeurl &lt;aws/Storage/AmazonS3/bucket/bucket.puml&gt;\n\nskinparam componentArrowColor Black\nskinparam componentBackgroundColor White\nskinparam nodeBackgroundColor White\nskinparam agentBackgroundColor White\nskinparam artifactBackgroundColor White\n\n\nUSER(user)\nCLIENT(browser)\nJAVASCRIPT(js,SDK)\n\nAWSCLOUD(aws) {\n\n    AMAZONS3(s3) {\n        BUCKET(site,www.insecurity.co)\n        BUCKET(logs,logs.insecurity.co)\n    }\n\n    AMAZONAPIGATEWAY(api)\n\n    AWSLAMBDA(lambda) {\n        LAMBDAFUNCTION(addComments,addComments)\n    }\n\n    AMAZONDYNAMODB(dynamo) {\n        TABLE(comments,Comments)\n    }\n}\n\nuser - browser\n\nbrowser -d-&gt; site :**1a**) get\\nstatic\\ncontent\nsite ~&gt; logs :1a\nsite .u.&gt; browser :**1b**\nbrowser - js\njs -r-&gt; comments :**2a**) get\\ncomments\ncomments ..&gt; js :**2b**\n\njs -r-&gt; api :**3**) add\\ncomment\n\napi -d-&gt; addComments :**4**\n\naddComments -&gt; comments :**5**\n\ncomments ..&gt; js :**6**) new\\ncomments\n@enduml&quot;,&#xa;  &quot;format&quot;: &quot;svg&quot;&#xa;}" id="1w1qgUeIe_BewW9f32Vm-1">
          <mxCell style="shape=image;noLabel=1;verticalAlign=top;aspect=fixed;imageAspect=0;image=data:image/svg+xml,PD94bWwgdmVyc2lvbj0iMS4wIiBlbmNvZGluZz0idXMtYXNjaWkiIHN0YW5kYWxvbmU9Im5vIj8+PHN2ZyB4bWxucz0iaHR0cDovL3d3dy53My5vcmcvMjAwMC9zdmciIHhtbG5zOnhsaW5rPSJodHRwOi8vd3d3LnczLm9yZy8xOTk5L3hsaW5rIiBjb250ZW50U3R5bGVUeXBlPSJ0ZXh0L2NzcyIgaGVpZ2h0PSI5NDVweCIgcHJlc2VydmVBc3BlY3RSYXRpbz0ibm9uZSIgc3R5bGU9IndpZHRoOjc5N3B4O2hlaWdodDo5NDVweDtiYWNrZ3JvdW5kOiNGRkZGRkY7IiB2ZXJzaW9uPSIxLjEiIHZpZXdCb3g9IjAgMCA3OTcgOTQ1IiB3aWR0aD0iNzk3cHgiIHpvb21BbmRQYW49Im1hZ25pZnkiPjxkZWZzLz48Zz48IS0tY2x1c3RlciBhd3MtLT48ZyBpZD0iY2x1c3Rlcl9hd3MiPjxwYXRoIGQ9Ik01Ni4wMjUsMTk4LjQ3MDEgQzcxLjM5MiwxNzUuNTc5NSA4OS43MzMsMTczLjY0MzUgMTA0Ljk3MzEsMTk4LjU5OTggQzExOS4wNDgxLDE3Ni4wNTk0IDEzNC45MTk4LDE3Mi4xOTQ1IDE1MS40MywxOTYuMTY3NiBDMTY1LjQyODgsMTcwLjc5NzYgMTg4LjUwMTQsMTY5LjM0MDEgMjA3LjI0MzcsMTkwLjQ3NDUgQzIyMS4xNTAzLDE2NS4wMjggMjQyLjQ4NzYsMTY2LjY4NiAyNTUuNzk4NywxOTEuMDU0OSBDMjY4Ljg4NTksMTY1LjYwNDggMjg5Ljc2ODcsMTY0LjcyMTQgMzA1LjQzNTUsMTg4LjQ1MTMgQzMxOS4wMjg3LDE2MS41MDA3IDM0Mi4xNTIzLDE2NS45MDgyIDM1Ni43NjgyLDE4Ny4zNjY5IEMzNzUuODk2MiwxNjEuNzE1NyAzOTguMDcxMiwxNjYuODgyNyA0MDguMDA3LDE5NS45NzEzIEM0MTkuMTIwNiwxNzEuNjkyNCA0NDEuMzE4MywxNjUuMjEyMyA0NTguNzQ5MywxODkuMzUwNSBDNDc4LjI0MTcsMTY1LjIyODQgNDk3LjEyNDIsMTY2Ljc0NzYgNTEyLjA5OTUsMTk0LjAzNzkgQzUyOC43NjUzLDE3Mi4zNTMgNTUwLjM0MjcsMTc0LjU0MDIgNTYwLjY3NiwyMDAuNDk1IEM1NzEuODI5NCwxNzYuNDU3NCA1OTEuMDQsMTc2LjQ4OTggNjA2LjQyNDEsMTk2LjA1NjQgQzYyNS4zMDc5LDE3NC4yNzc5IDY0OC4wMzE5LDE3My4yNDg5IDY2MS40NTg3LDIwMiBDNjY4LjA1LDE5OS40MTEzIDY3MC42OTU1LDIwMy4wODE3IDY3MC4zNDQ2LDIwOS4xMzY3IEM2OTQuNjA3OCwyMjQuMTEyOSA2ODguNjM2OSwyNDUuMTM2NCA2NjcuODE1NiwyNTcuNzY4IEM2ODcuNDEwNiwyNzIuNTQ2NSA2ODcuNDAwNywyOTEuODY2OSA2NjUuMjI0MywzMDQuMzIwMiBDNjg4LjQxOTgsMzE4LjEyOTIgNjk0Ljk2NDYsMzM5LjU0MTcgNjY3Ljc4NTYsMzU1Ljg1NDQgQzY5MC4xMDM1LDM2Ni4wNjkgNjkxLjkxMjEsMzg4LjIwNjMgNjcwLjY3Miw0MDEuMTkzOSBDNjkzLjcwNiw0MTguNjc0NiA2OTIuNTM4LDQzNC4wMDI3IDY2OC40ODIsNDQ5LjM0MTQgQzY5MC4wNDQ3LDQ2Mi4yNTQ3IDY5Mi41NDc3LDQ4MS4yMDUxIDY3Mi4wNDc2LDQ5Ny4yNDkgQzY5Mi43NzA3LDUxNC40MjQzIDY5Ny45NTIzLDUyOS43MTAyIDY3Mi4xMjMsNTQ2Ljk1NjEgQzcwMC43MDc1LDU2MS40MDk1IDY5NS4yNDg3LDU4MC41MjkgNjc0Ljk0MTksNTk3LjY5ODUgQzY5NS4wMTgsNjE0Ljg4NDUgNjk0LjI4MjcsNjM5LjgwMTYgNjY3LjE2OTIsNjQ5Ljk3MDYgQzY4OC45MzE2LDY2NS45NjQ3IDY5NC43MjI1LDY4Mi44ODUzIDY2OS43ODk1LDcwMS4yNjQ3IEM2OTEuNjg3NCw3MTUuNjY2NCA2OTEuNTQzNCw3MzIuMDEyMyA2NjguOTU4NCw3NDUuNTc5NyBDNjk3LjI1Niw3NjMuOTM5NiA2OTcuMDU4Myw3ODAuMTI1OCA2NjkuNzA0NCw3OTkuMjU5IEM2OTIuMjE0NSw4MTQuODE4NSA2ODYuNzc4Nyw4MzIuOTU5MyA2NjUuNTM4Myw4NDQuNDg4OSBDNjg3Ljg1MzUsODY3LjIyNiA2ODQuNDk3OCw4ODUuNzA1MyA2NTQuNDU4Nyw4OTcuNSBDNjU2LjIzODcsODk3LjA2NTEgNjU2LjkwNTgsODk4LjE0NSA2NTYuNTA1Nyw4OTkuNzIwMyBDNjM5LjU5MTgsOTIzLjk2OTggNjI0LjE5NzIsOTI1LjE1NDQgNjA1LjU3MDMsOTAxLjU0MzQgQzU5NC44NTA2LDkyNC4xODY1IDU3Mi4zNzk5LDkyNi45MjA2IDU1Ni42NTQ5LDkwNy4zNDIzIEM1NDEuODk3Nyw5MjkuOTA5NyA1MjcuNDg1LDkzNS40NTY0IDUwNy42NjQ5LDkxMi44MzA1IEM0OTEuMzM0Miw5MzMuNDY3MyA0NzIuNDAxNCw5MzMuMTE2MyA0NjAuMTEyLDkwOC41NzY2IEM0NDguMDc0Myw5MzYuMTkzMiA0MTkuNTA1Nyw5MzYuODM0OSA0MDIuNjIyMiw5MTQuMTEwNCBDMzg1LjQwNTUsOTMzLjcyODEgMzcwLjIwNDMsOTM1LjM5MzEgMzU0LjQwMDMsOTEyLjUwNzYgQzM0MC45ODc3LDkzMi4yMTg4IDMyMi4xMjExLDkzMS43NzE0IDMwOC4zNjE0LDkxMi45MjIxIEMyOTEuMTEwMiw5MzguMDUyMyAyNjUuOTM4LDkzMS43MiAyNTMuMDEyNyw5MDguMDE4OSBDMjQxLjg1MjEsOTI5LjkyNDYgMjIxLjM2Miw5MjcuNDU3IDIwOC45Mzc2LDkwOS40MTMzIEMxODkuNzExNCw5MzMuMzc3NyAxNjcuMjg4OCw5MzUuMTQyOSAxNTMuNDkyNCw5MDMuOTU0NiBDMTM3LjY0NzksOTI1LjU1NTkgMTE5LjcyNDcsOTI4Ljg2MzUgMTA1LjM3MzcsOTAyLjQ1NzYgQzgxLjQ4NSw5MjkuMjUzMiA1NC41NjI5LDkyNS43MDg5IDQyLjQ1ODcsODkwLjUgQzQ2LjU3OTYsODkwLjI5IDQ3Ljg2NzMsODkyLjY4ODMgNDYuNDY4OCw4OTYuMjk2NiBDMjAuNTc1NCw4ODEuMTI1MSAyMC44NjYzLDg2MS40MTkzIDQ3Ljc2NjEsODQ3LjY1NTggQzIzLjgyODgsODM4LjQ3MTIgMjAuNTgzNSw4MTYuODA2MSA0MC44OTcsODAxLjA5MzQgQzEyLjE0ODYsNzgyLjU3NzcgMTYuMDM4Myw3NTUuOTIzMyA0Ni41OTUxLDc0My4yNDk3IEMyMi40MTYyLDczMS45MTYzIDIxLjA1MDQsNzE2LjY3NjUgNDEuMTA4NCw2OTkuNzYyIEMxMi45ODY0LDY4Ni43MTg1IDE3Ljg1MDgsNjYxLjM4OTUgMzkuMzU5LDY0Ni43MDk1IEMxNC4wMzM0LDYzNC4zMzc2IDkuODQ3LDYxNy44MjY4IDMzLjY0NDcsNTk5LjUwNzkgQzYsNTg0LjQyNjcgOC4wNTg0LDU2NC4xMTY5IDMyLjM0MjgsNTQ3LjcyOTkgQzYuMDIwNSw1MzAuNTM2NCAxMi4xNDM5LDUxNC41MDM3IDMzLjgxMzksNDk4Ljc1MTcgQzEyLjcwODYsNDg1LjQ0MzcgMTYuMjUyLDQ2My41ODI3IDM4LjI3NDksNDU0LjYzNTkgQzE4LjY1OTUsNDM2LjU5MzggMTUuMzA2LDQxNy44MTA3IDQzLjIyNzksNDA0LjQ2MTMgQzE5LjkzNjMsMzg5Ljk1MiAyMC45NjIzLDM2NS44NzUxIDQ0LjI4MTMsMzUyLjMwNzIgQzE3Ljc1NTksMzM0LjE5NDIgMjMuNzM2MywzMTcuODc0IDQ2LjI2NjMsMzAxLjY4NDYgQzIwLjIyODMsMjg4LjY0NjcgMjMuNDY0NCwyNjUuMjgyMiA0Ni4yNjQsMjUyLjI0MjEgQzIzLjI1MDIsMjM2LjUzMjkgMjQuMjI2NCwyMDguMDE2NiA0OS40NTg3LDE5NSBDNTIuOTg0OSwxOTIuOTQ3OSA1NS45NzUzLDE5My45NDM2IDU2LjAyNSwxOTguNDcwMSAiIGZpbGw9Im5vbmUiIHN0eWxlPSJzdHJva2U6I0Y1ODUzNjtzdHJva2Utd2lkdGg6MS4wOyIvPjx0ZXh0IGZpbGw9IiMwMDAwMDAiIGZvbnQtZmFtaWx5PSJzYW5zLXNlcmlmIiBmb250LXNpemU9IjE0IiBmb250LXN0eWxlPSJpdGFsaWMiIGxlbmd0aEFkanVzdD0ic3BhY2luZyIgdGV4dExlbmd0aD0iNzIiIHg9IjMxNS45NTg3IiB5PSIyMTMuMjM0NCI+JiMxNzE7QVdTY2xvdWQmIzE4Nzs8L3RleHQ+PGltYWdlIGhlaWdodD0iNzAiIHdpZHRoPSI3MCIgeD0iMzE2Ljk1ODciIHhsaW5rOmhyZWY9ImRhdGE6aW1hZ2UvcG5nO2Jhc2U2NCxpVkJPUncwS0dnb0FBQUFOU1VoRVVnQUFBRVlBQUFCR0NBWUFBQUJ4THVLRUFBQURLVWxFUVZSNFh1MlpTMjdjTUJCRTUxUTVRUzZRRStRQ3VVYTJXWHJwWlc2WU9Mdkp0RHdsbEdxNkpKS1NCb25SQmg0Z2liL21ZNU1jd0pkZjN6OWRpMGN1K3FGNHA4UVlTb3loeEJoS2pLSEVHRXFNb2NRWVNveWh4QmhLaktIRUdFcU1vY1FZU295aHhCaEtqS0hFR0VxTW9jUVlkb241L2VQejllMzE2L1hQejI4ejhmNzI4aVd0QzdTc3BYeXRqc2FCR0xSZUQwTmlZc0RiMzJXTkNCQ0JhWDN0TCtEeVRHeDg0Nzd4UFo1MTdLMitXa2lEM0NKV2hBZkhTbWxRUEFIK3JpdXA0cmdkNFA0eFdSMlRNM2V0cnhiR3hOd0NtMUkyV1ExZTJRQVNXR1k4TDlxSTZFRDcxVEtWcWJJUlN4WmpDdzhCSE1GQ3dqMHd0eFVDWFhtZEtFdEEyK3pia1p3dmhyS0RKODcxdWU3OFRDdk5Vdkc5SldQMnNGdk1kQ05FeXQ0bUZjL1R1eEhEbVpFZHpQeTgxUzdBTitDMjl3akRZckp6SVlNbnVGajUrM2YrcHYyaUhkNTF5MmpXTUZGM1R4WU5pY21rNkcwQVdFeDJMcUFOM2xXVXl5THVNNHRuYmpPWVFkMWlkSld5Z2QxV0NsaGV2R3U5aFlqN0ZzWDdWZ1k0U1Z2dE1yckZyTjB1YzUwVk1Zc3k2aXM3TzZLdWlteUYyMldMdDBYWFlNSGFwTUVpS0ttakdaZE5tcmVYNjJlTGxqalg2QmREcTZ3VG1zb2xsYk9zNHZLc2pvNFI2S3J6VGFqOXEveXN6aFlQRTJ0QmczWUhyd3RNNWVtSzZzUUNqVUg3UUF3YWgwcHY1V0hBRnJJVjVVQmlZaHpnZ3hocHI5a1FMTXFUclpESlUwYWxCRU5pQXR3QVdLVjQxZ25xdTdZSFd0WlNEckNsT0dPeVdIb1pGdlBSS1RHR0R5a0cyNXpaMnBKS3M1aHBzSjM3OWt3Z1F3OWdwaWYrWmpGOGsvUU04Q3o0OE1VQnJGZDNkcnM1bXNVRWVrWCtpNEl5UnVMdEVnT3lsZWpkdzJjUmswZDh1TzRSWjArTVEyS0NiRDlQS2Z5eTc5OFdJMlRuQzM3YzhSR2c3ZGJvcXF4RVFKbzlESDVvSFMwS0Y0RWJtODhTMU9rNVg0SmRZZ0N2eWhyenIxSVM1cVNoREw5c3M4TlVpWEx0RDJYYS94YmREZFpZVzhVenlZUWduaWp2T1hUQm9XSkF0dWVQcHVVOG03SnRRRXB3aWhnR2tvN0lwQllaUjNHNkdHVStPM0RXM0tVeGVnNXBIOC9nNldMK0YwcU1vY1FZU295aHhCaEtqS0hFR0VxTW9jUVlTb3loeEJoS2pLSEVHRXFNb2NRWVNveWh4QmhLaktIRUdQNENGNVFXZitkUlJRb0FBQUFBU1VWT1JLNUNZSUk9IiB5PSIyMTQuOTg0NCIvPjwvZz48IS0tY2x1c3RlciBzMy0tPjxnIGlkPSJjbHVzdGVyX3MzIj48cmVjdCBmaWxsPSIjRkZGRkZGIiBoZWlnaHQ9IjI1NiIgcng9IjM1IiByeT0iMzUiIHN0eWxlPSJzdHJva2U6IzE4MTgxODtzdHJva2Utd2lkdGg6MS4wOyIgd2lkdGg9IjQwNSIgeD0iMjQwLjQ1ODciIHk9IjI5OCIvPjx0ZXh0IGZpbGw9IiMwMDAwMDAiIGZvbnQtZmFtaWx5PSJzYW5zLXNlcmlmIiBmb250LXNpemU9IjE0IiBmb250LXN0eWxlPSJpdGFsaWMiIGxlbmd0aEFkanVzdD0ic3BhY2luZyIgdGV4dExlbmd0aD0iNzMiIHg9IjQwNi40NTg3IiB5PSIzMTYuMjM0NCI+JiMxNzE7QW1hem9uUzMmIzE4Nzs8L3RleHQ+PGltYWdlIGhlaWdodD0iODMiIHdpZHRoPSI2OCIgeD0iNDA4Ljk1ODciIHhsaW5rOmhyZWY9ImRhdGE6aW1hZ2UvcG5nO2Jhc2U2NCxpVkJPUncwS0dnb0FBQUFOU1VoRVVnQUFBRVFBQUFCVENBWUFBQUFtd0tHUkFBQURWa2xFUVZSNFh1M2JzWXBVUVJDRjRYMDRYMENNeFh3ZllITXhGbE1EUTRQTmpJeDhHVUZFUkVURUJ4anBnY2IycjY3YjU5NnA3cG1nZ2crMHVOMTF6MkVjTjltNzArbDBsLzR4ZzVXK3ZIaDZxcjYvZkRqak02dVp3UXB0RVN6azJzV1l3VXdzWWF1UWF4VmpCak13ZkErTElONDVpeGxFWTNBUEMvRHcvbWhtRUlXQlJ4aDhoUHVpbUVFRWhsVXdzSUo3STVoQkJJWlZNS3lDZXlPWVFRU0dWVENzZ25zam1FRUVobFV3cklKN0k1aEJCSVpWTUt5Q2V5T1lRUVNHVlRDc2duc2ptRUVFaGxVd3JJSjdJNWhCQklaVk1LeUNleVA4OTVmNmN0OGU3aTlhekxBS2hsVnc3NGkzcjMzR1BGaXdFT0lpNG4wSzdsQndMM0ZIcTVleG5Pa2U2ajI4WmMrTGVIaW40cEtkWHNidVJkN0RxcS8zejgyZEk3eER3VHYyOERKT0thU2M1NTBqdkdQa3lJNldsekVMZ1N3RXJsckk1MmRQalBMOW8reFhkM2k4SFVzTFlYaUZWNUMzUTlXN3M1aGFDTU5GcUFVZCtaOU15VGlsa0lvdnpuQkg4RjJQOGpKT0xhU24zTjBXeGNEUndUMWV4dVdGOUZ6NmZYQ0VsekVMZ1N3RXNoQzRlaUh0bDJ6Rjk1bkJ5emk5a0JxNERjMTlaY1p6M3RuZStTTzhqRk1LMmZ0UHdDdGt5OTRkNUdYTVFpQUxnU3dFc2hESVFpQUxnU3dFc2hESVFpQUxnU3dFc2hESVFpQUxnU3dFc2hESVFtQktJYTF5VjFXQ0Y5em5GZEtlM1RwL2hKZHhlaUZiWmdZZThUSmV0WkNxN09NN3pPWmx6RUlnQzRHYktLUlk5ZDFSZVJtWEYvTGo5YXZUejdkdnpuNS9lRHo3OCtualdmbnpyL2Z2enMrVVoyZCtjcnlNVXd1cDRVdklOdmhlNVh5NXA5eFozaTNpMCtSbG5GSklQVjhLS1dFWThLajZDU3JsWFBycDhUSk9LNlM5ci83Z3RiZWd0b0RSanIyOGpFc0tJYStnclFKb3RHUEV5M2lWUXNqNzBYM0wzaDNrWmJ5SlFncmVNWEprUjh2TG1JWEFsRUo0bjRKM0tIakhIbDdHa0VKdTRSZUk5dTcxTW5Zdjh4NzJYb1M0WE1FZEN1NGw3bWd4WXozVHZjUjdXTVhsQ29aVmNPOUl1NjltNURQbVVBU0dWVENzZ25zam1FRUVobFV3cklKN0k1aEJCSVpWTUt5Q2V5T1lRUVNHVlRDc2duc2ptRUVFaGxVd3JJSjdJNWhCQklaVk1LeUNleU9ZUVFTR1ZUQ3NnbnNqbUVFRWhsVXdySUo3STVoQkJJWlZNS3lDZXlPWVFTU0czc0t3Vzdnbmtobk13UEE5RE4zRGUyY3dnNWxZZ2xvSTc1bkpERlpnR2IxQ2VHWVZNMWlwVndpZldlMHZicnV4OXo5a0Z0MEFBQUFBU1VWT1JLNUNZSUk9IiB5PSIzMTkuOTg0NCIvPjwvZz48IS0tY2x1c3RlciBsYW1iZGEtLT48ZyBpZD0iY2x1c3Rlcl9sYW1iZGEiPjxwb2x5Z29uIGZpbGw9IiNGRkZGRkYiIHBvaW50cz0iMTYzLjQ1ODcsNjI3LjUsMTczLjQ1ODcsNjE3LjUsMzUxLjQ1ODcsNjE3LjUsMzUxLjQ1ODcsODY5LjUsMzQxLjQ1ODcsODc5LjUsMTYzLjQ1ODcsODc5LjUsMTYzLjQ1ODcsNjI3LjUiIHN0eWxlPSJzdHJva2U6IzE4MTgxODtzdHJva2Utd2lkdGg6MS4wOyIvPjxsaW5lIHN0eWxlPSJzdHJva2U6IzE4MTgxODtzdHJva2Utd2lkdGg6MS4wOyIgeDE9IjM0MS40NTg3IiB4Mj0iMzUxLjQ1ODciIHkxPSI2MjcuNSIgeTI9IjYxNy41Ii8+PGxpbmUgc3R5bGU9InN0cm9rZTojMTgxODE4O3N0cm9rZS13aWR0aDoxLjA7IiB4MT0iMTYzLjQ1ODciIHgyPSIzNDEuNDU4NyIgeTE9IjYyNy41IiB5Mj0iNjI3LjUiLz48bGluZSBzdHlsZT0ic3Ryb2tlOiMxODE4MTg7c3Ryb2tlLXdpZHRoOjEuMDsiIHgxPSIzNDEuNDU4NyIgeDI9IjM0MS40NTg3IiB5MT0iNjI3LjUiIHkyPSI4NzkuNSIvPjx0ZXh0IGZpbGw9IiMwMDAwMDAiIGZvbnQtZmFtaWx5PSJzYW5zLXNlcmlmIiBmb250LXNpemU9IjE0IiBmb250LXN0eWxlPSJpdGFsaWMiIGxlbmd0aEFkanVzdD0ic3BhY2luZyIgdGV4dExlbmd0aD0iODAiIHg9IjIxMy40NTg3IiB5PSI2NDMuNzM0NCI+JiMxNzE7QVdTTGFtYmRhJiMxODc7PC90ZXh0PjxpbWFnZSBoZWlnaHQ9Ijg0IiB3aWR0aD0iNzAiIHg9IjIxOC40NTg3IiB4bGluazpocmVmPSJkYXRhOmltYWdlL3BuZztiYXNlNjQsaVZCT1J3MEtHZ29BQUFBTlNVaEVVZ0FBQUVZQUFBQlVDQVlBQUFBL01FRVVBQUFER1VsRVFWUjRYdTJaUFk0VU1SU0U5MVNjZ0F0d0FpN0FCVGdBSWlOQ0V4SVFFRzVJdU9tZWlKK0ZvTUd0OGF4VjVWby9kOXZkN2JhRFQwakZlN2JyRXlQTkxuZlROTjBkZ2QvZjNrMVA5KzhuelBlQ2dxMzVkWGt6elh4NU80dng0TnpXVUxBVk55RkN6TjZDS0tnTkNVbUkyVXNRQmJVZ0VVaEN6TmFDS0NnTkNWQVl4V3dsaUlMU2tBQkZwcGphZ2lnb0RRbFFMQlJUU3hBRnBTRUJpcFZpUEhqL1VpaklKZlhGakFRb0Nvbng0RHR5b2NES1M0V2ljeWtpNTVRQTMyMkZnaFM1aFdoZWtUaG5MZGdqQlFVS0ttSXM1RDVxdEJNamNVNHBzSmVDQWdVVk1SWTZtaGdQOWtNb1VGQVJZNkdqaXZGZ1R3OEY3cEd4SlNwaUxIUjBNUjcwRUMyT1N3NHFZaXpVaWhqUFRRdzk4Q0xFL0g4NHpsa0t0U2JHTThRSWhoaEJrMkw4anlFMWFWTE16MCt2cHg4ZlhzMS91cjBhb3BvV2c3aHpTa2xxVW95YlJ5bEk3cGxJazJJYzdyc0d5bEFzK2NnMUxRWkJJUXAzWDByU3FjUWdLQVJ4LzVLVW9GT0xRZWFQRk54N2VqSHVESGNYNWppRG5FcU1lb3N2aVVLR21LQWtTaGxpcmpNb1pZZ0o1b2FZSzdHU1E4eEZseHhpUkVuSEVCT1p2KzFsN0F3eFlxY3JNYkczcUoydXhNUjIxVTUzWXVaOXcwNlhZdVl6RWp0RGpOanBVa3k0cjNhNkU0TzdhcWNyTWJHM3FKMnV4T0Q4U3p0RGpOanBSc3o0SVRJeVAzN3RFQ2s1ZmxGMTRaS2hsQ0VtbUJ0aXJvUWxVY29RY3grWDBvVVlSNnkwdXd0em5FRk9MOFpDckVPWFl2NCtmcDBVZng0K1QwL2ZQOUs1bmxPSndmS0tsQlJIODJLd3RNSWlJNlJKTWE0a0ZrZHVJakpraERRcEJpV1FqTWhPTHMyTEtTa2pwRWt4YXo0aVZ0b1Vzd0ZEakdDSUVUeC9YUTRlaVVNT0ttSXMxSm9ZNzRPK1BZWmlNSStTS05TS0dQUkFZaFJVeEZqbzZHS3dwNGNDQlJVeEZqcXFHT3lIVUtDZ0lzWkNSeE9EdlJRVXBNZ3RSUE9LeERscndSNHBLTENpQ3NtNUZKWEU0SHVzVUpDTEs0VVovcjJKd21Md0hibFFVQm9Tb0Nna0J1OWZDZ1dsSVFHS2xXTHczclZRVUJvU29GZ29CdThyQlFXbElRR0tUREY0VDJrb3FBV0pRSXhpOE54YVVGQWJFbUlVZytmVWhvS3RzSXJCdmEyZ1lHdVVHSnpiR2dyMnd2OVhLZVo3OFEvOVlTcU1qVkZjbmdBQUFBQkpSVTVFcmtKZ2dnPT0iIHk9IjY0NS40ODQ0Ii8+PC9nPjwhLS1jbHVzdGVyIGR5bmFtby0tPjxnIGlkPSJjbHVzdGVyX2R5bmFtbyI+PHBhdGggZD0iTTQ4MS40NTg3LDYyNS41IEM0ODEuNDU4Nyw2MTUuNSA1NDcuNDU4Nyw2MTUuNSA1NDcuNDU4Nyw2MTUuNSBDNTQ3LjQ1ODcsNjE1LjUgNjEzLjQ1ODcsNjE1LjUgNjEzLjQ1ODcsNjI1LjUgTDYxMy40NTg3LDg3MS41IEM2MTMuNDU4Nyw4ODEuNSA1NDcuNDU4Nyw4ODEuNSA1NDcuNDU4Nyw4ODEuNSBDNTQ3LjQ1ODcsODgxLjUgNDgxLjQ1ODcsODgxLjUgNDgxLjQ1ODcsODcxLjUgTDQ4MS40NTg3LDYyNS41ICIgZmlsbD0iI0ZGRkZGRiIgc3R5bGU9InN0cm9rZTojMTgxODE4O3N0cm9rZS13aWR0aDoxLjA7Ii8+PHBhdGggZD0iTTQ4MS40NTg3LDYyNS41IEM0ODEuNDU4Nyw2MzUuNSA1NDcuNDU4Nyw2MzUuNSA1NDcuNDU4Nyw2MzUuNSBDNTQ3LjQ1ODcsNjM1LjUgNjEzLjQ1ODcsNjM1LjUgNjEzLjQ1ODcsNjI1LjUgIiBmaWxsPSJub25lIiBzdHlsZT0ic3Ryb2tlOiMxODE4MTg7c3Ryb2tlLXdpZHRoOjEuMDsiLz48dGV4dCBmaWxsPSIjMDAwMDAwIiBmb250LWZhbWlseT0ic2Fucy1zZXJpZiIgZm9udC1zaXplPSIxNCIgZm9udC1zdHlsZT0iaXRhbGljIiBsZW5ndGhBZGp1c3Q9InNwYWNpbmciIHRleHRMZW5ndGg9IjExNiIgeD0iNDg5LjQ1ODciIHk9IjY1MC43MzQ0Ij4mIzE3MTtBbWF6b25EeW5hbW9EQiYjMTg3OzwvdGV4dD48aW1hZ2UgaGVpZ2h0PSI3NCIgd2lkdGg9IjY1IiB4PSI1MTQuOTU4NyIgeGxpbms6aHJlZj0iZGF0YTppbWFnZS9wbmc7YmFzZTY0LGlWQk9SdzBLR2dvQUFBQU5TVWhFVWdBQUFFRUFBQUJLQ0FZQUFBRGtNRG1HQUFBQy9rbEVRVlI0WHUyWFBaTFVRQXhHOTBhY2dCUHNDVGdCRjRCMFU5S0pTYmtFQ2NrbUJDVGN5SlNtU2xQaTlaKzYxVFBqYWp0NHdXcHRTOS96dU4xKzJiYnRaVGF2Mzk2M1Q1ZmZVL244L2MvR1ByTklDaEVrdk1JUVVVVEMxeDkvcjdCdmxLUXdnZzMvQ0FtelpTU0ZIaGo4MFJKbXlVZ0tIaGc0QjBORXFVbUl5a2dLTlJpMEJrTkU4VWdZbFpFVWNqQ2dCNGFJMGlPaFYwWlNzSHg4KzVXRTg4SVFVVVlrZUdVa0JlWERsNS9iQ2hMa1BEbWYrWm9TUk1CcUVnVG1QS1FFZ1ZtekVsVEFxaElFWmk0S09LUUVDbGhaZ3BCSVlQaFJDWEs4d210RmtXdU95Q2hKc0NMQ0V1NFp2SVRPNVJGU2s2QWlpZ0pzTS9LTTRDVmFRbG9TQkxlRVBRVXZvZk5Lc0trUzloNjhoQlhTb2lwaEZVUUlnOTlWZ3Y1eXVJN01ndjI4MUg0WllRbjJrYkhEc2xFVXUvRHBjeTU5ZWgvVjNHeGRFbXhnaGlac0ZLVzArbzlJNGVOUmxkQVRtakJFbEpvRTRwRmlINCttQkliendoQlJlaVJRU0V2R29iNGRySXk3ZlR2c1hZS2k4OTBrTVBnUkpKQlR3dVdVY09XVWNEa2xYRGtsWEU0SlY1b1M5Z1JGZTJXM2pxOUtXQjBWVTkwMnIweXliVDY4QlA3elNPZzZVNVhBaGNuQ1k1OE5GODdjb2ppME1QTENKU2pJZTE0dk1yQzg4aFMrRG5OTWVVVnlFQzlzRk1VYm1wd1NUZ21uaEZQQ0tXRkVRbTIzdUtvRU8xOXoyN3lhQkpsTE4zcnViZk1xRW14NEl2V3FCRDFvWkNmSUVGRjZKT2pkYjRYWE9ac1NpRmNLUTBRcFNiQ0JCYzZiUSthMjErNldrQ01uaGlHaXFBVFBYUzVSbW0yS0JFSXBzMkNmSHVSOGhyK3JoRDBoNFhOMzN5MWgxbDE0QnEzZ1hSSjB3ZG03RUh2SGN3dG5EYmNFc2djcHBlRGRFa3E3UmR1a3hTT0Y2RXlsVnlacFNiaHRtOW1JRFh0UUdheEhrWUc5d2IwU2J0dm1JMzA3V1A3N2RyQi9IRVdDelp4SW9JakRTckFpVnBUQXJJZVR3SnhWQ1NwaUpRbk01NUlnTUZnUERCRmxWSUxBWENRcDVHQkFEd3dSWlVRQ2M1UklDalVZdEFaRFJPbVJ3TGxiSkFVUERKeURJYUo0SkhCT0wwbWhCd1ovbGdUTzFVdFNHSUVDSGlXQmM0eVNGQ0k4U2dMN1Jra0tNN2lYQlBhWnhUK0hrOEJzaWdjbDlRQUFBQUJKUlU1RXJrSmdnZz09IiB5PSI2NTIuNDg0NCIvPjwvZz48IS0tZW50aXR5IGFwaS0tPjxnIGlkPSJlbGVtX2FwaSI+PHBvbHlnb24gZmlsbD0iI0ZGRkZGRiIgcG9pbnRzPSI1MC40NTg3LDQyMS41LDYwLjQ1ODcsNDExLjUsMjIwLjQ1ODcsNDExLjUsMjIwLjQ1ODcsNTMwLjQ4NDQsMjEwLjQ1ODcsNTQwLjQ4NDQsNTAuNDU4Nyw1NDAuNDg0NCw1MC40NTg3LDQyMS41IiBzdHlsZT0ic3Ryb2tlOiMxODE4MTg7c3Ryb2tlLXdpZHRoOjAuNTsiLz48bGluZSBzdHlsZT0ic3Ryb2tlOiMxODE4MTg7c3Ryb2tlLXdpZHRoOjAuNTsiIHgxPSIyMTAuNDU4NyIgeDI9IjIyMC40NTg3IiB5MT0iNDIxLjUiIHkyPSI0MTEuNSIvPjxsaW5lIHN0eWxlPSJzdHJva2U6IzE4MTgxODtzdHJva2Utd2lkdGg6MC41OyIgeDE9IjUwLjQ1ODciIHgyPSIyMTAuNDU4NyIgeTE9IjQyMS41IiB5Mj0iNDIxLjUiLz48bGluZSBzdHlsZT0ic3Ryb2tlOiMxODE4MTg7c3Ryb2tlLXdpZHRoOjAuNTsiIHgxPSIyMTAuNDU4NyIgeDI9IjIxMC40NTg3IiB5MT0iNDIxLjUiIHkyPSI1NDAuNDg0NCIvPjx0ZXh0IGZpbGw9IiMwMDAwMDAiIGZvbnQtZmFtaWx5PSJzYW5zLXNlcmlmIiBmb250LXNpemU9IjE0IiBmb250LXN0eWxlPSJpdGFsaWMiIGxlbmd0aEFkanVzdD0ic3BhY2luZyIgdGV4dExlbmd0aD0iMTMwIiB4PSI2NS40NTg3IiB5PSI0NDQuNzM0NCI+JiMxNzE7QW1hem9uQVBJR2F0ZXdheSYjMTg3OzwvdGV4dD48aW1hZ2UgaGVpZ2h0PSI4NCIgd2lkdGg9IjcwIiB4PSI5NS40NTg3IiB4bGluazpocmVmPSJkYXRhOmltYWdlL3BuZztiYXNlNjQsaVZCT1J3MEtHZ29BQUFBTlNVaEVVZ0FBQUVZQUFBQlVDQVlBQUFBL01FRVVBQUFEL1VsRVFWUjRYdTNhc1kxVFFSREc4YXVOQm1pQUFtaUFBbWlBQmlnQUlxS0xpRWlJTGlKQ1NDQ0VoSkFRRXFJRG55WVlhL25QenVkOXovUGVjN0RCTDJEc25kbjV6bWNmQjNlbjArbnVGbnkvZjNiNi9mRHF4UHBSUW1GdkZvaXpZQnlmdDdkUTJFc2JTQytZb3dNS2hhMHhqRXZCSEJWUUtHeUZJZlF3akI3MjNVb29WT1B5Q2tOUU9LZGFLRlRqOGdxWFZ6aW5XaWhVNC9JS2wxYzRwMW9vVk9QeUNwZFhPS2RhS0ZUajhncVhWemluV2loVTQvSUtsMWM0cDFvb1ZPUHlDcGRYT0tkYUtGVGo4Z3FYVnppbldpaVFYL3JYeDVlckxzYmxGUzZ2Y0U2bTdmL2ovZlBoODZIUWEyZ1lEUEY4MWtkaFQ0VnpSdWExd1Z6cUV3cHM1aTRGUTVmNjliQ0hzcVovTHhqMkM4R3dDUzBOeHYzODhDTDB5dkJzWmtuUGxnckduWVBoNGN6YVlPd2NlMlY0Tm1NTDh1eUlrV0RjcHNIWW1TVkw4SHhtYVY5M2FEQnJMMjNZYTRUTkcvM1cyajJZYThKb3NlOVNsMExhTFpnbDd4OGoyUDhhdlMvVURPWmhCcE9hd1NSbU1Ja1pUR0lHazVqQkpHNDJtSy92bnA3eHNRejdaM3hwKzJHdWQ2LzJPYTFkZzJrRCtQTDJTYkJGTVBiY2JJNHRiNEVkR295eng0d05iaSswMVN1bTdiM2tsYmw3TUlyNmRpT2V6ZlJlRFNObU1Ja1pUR0lHa3lnTnBuMWo4emRYNXgrWExRNDRLaGkrTWJ2ZTNkbmZuSU94US93SXJERHlhZUY0dVl3dHhqa1YybGRVK09lVGFseGVZUUFLNTFRTGhXcGNYdUh5Q3VkVUM0VnFYRjdoOGdyblZBdUZhbHhlNGZJSzUxUUxoV3BjWHVIeUN1ZFVDNFZxWEY3aDhncm5WQXVGYWx4ZTRmSUs1MVFMaFdwY1h1SHlDdWRVQzRWLzMrNVBsYmI0eWZmUHA5ZGh6cldZdy9rcmFqOGk4emRpZGdIejkvT2IvNXJZbnhVL1o2d1BBOGd3Z0l6ZmxmZmx2VWZ2ei91YTRaZDY3d0lqdG5qRmpQeGRxYWYwTDVGdUJwT1l3U1JtTUluUllObzNQR00xOXNxdzF3aC9FeDRKYTlkZ2V1LzZMWHVjdlRMc25WSHovRk9tRjlSdXdiVGZKdTF2eGV3eHU5eld3ZkRqdG4zT3pRU1Q2VjB3dy83WDZNMjlxV0NXWVA5cnpHQVNNNWpFRENZeGcwbk1ZQkl6bU1TaHdSaXI5eTZ4Qm51dllmZkovdHY4cnNHMHJnMkovVWFwTUZxSEJkTWF2V3lMUFpRMVg0U2JDTVl0ZVIvaTJjelNRTnlpWVB5WHYyeEN0eFRNMGxlaUd3a20vVmNDTm5OcmdsSDllbmhlV2RyYnFHQ1lRd2dtR3pnU0RQdGt2VExzcDNET3lLeGVNT3poUWlFYmxBWERNOFRMS2V5dGNBNnh0Mm1ENGZNcEZIcXNxUWZEeHk3aDVSUXVyM0RPSlI0TTY1bFFxTWJsRlM2dmNFNjFVS2pHNVJVdXIzQk90VkNveHVVVkxxOXdUclZRcU1ibEZTNnZjRTYxVUtqRzVSVXVyM0JPdFZDb3h1VVZMcTl3VHJWUXFNYmxGUzZ2Y0U2MVVOZ0tRK2poOGozc3U1VlEyQnJER0EyR2ZiWVdDbnRoS0Zrd1BMZVhVTmhiRmd5ZnQ3ZFFPSW9Idy9wUkhnRnFNVkFsWG9STmZBQUFBQUJKUlU1RXJrSmdnZz09IiB5PSI0NDYuNDg0NCIvPjwvZz48IS0tZW50aXR5IHNpdGUtLT48ZyBpZD0iZWxlbV9zaXRlIj48cGF0aCBkPSJNMjU4LjQ1ODcsNDE0IEwyOTkuNDU4Nyw0MTQgQTMuNzUsMy43NSAwIDAgMSAzMDEuOTU4Nyw0MTYuNSBMMzA4Ljk1ODcsNDM1IEw0MTIuNDU4Nyw0MzUgQTIuNSwyLjUgMCAwIDEgNDE0Ljk1ODcsNDM3LjUgTDQxNC45NTg3LDUzNS40Njg4IEEyLjUsMi41IDAgMCAxIDQxMi40NTg3LDUzNy45Njg4IEwyNTguNDU4Nyw1MzcuOTY4OCBBMi41LDIuNSAwIDAgMSAyNTUuOTU4Nyw1MzUuNDY4OCBMMjU1Ljk1ODcsNDE2LjUgQTIuNSwyLjUgMCAwIDEgMjU4LjQ1ODcsNDE0ICIgZmlsbD0iI0Y5REZEQyIgc3R5bGU9InN0cm9rZTojMTgxODE4O3N0cm9rZS13aWR0aDowLjU7Ii8+PGxpbmUgc3R5bGU9InN0cm9rZTojMTgxODE4O3N0cm9rZS13aWR0aDowLjU7IiB4MT0iMjU1Ljk1ODciIHgyPSIzMDguOTU4NyIgeTE9IjQzNSIgeTI9IjQzNSIvPjx0ZXh0IGZpbGw9IiMwMDAwMDAiIGZvbnQtZmFtaWx5PSJzYW5zLXNlcmlmIiBmb250LXNpemU9IjE0IiBmb250LXN0eWxlPSJpdGFsaWMiIGxlbmd0aEFkanVzdD0ic3BhY2luZyIgdGV4dExlbmd0aD0iNTgiIHg9IjMwMS40NTg3IiB5PSI0NTUuMjM0NCI+JiMxNzE7YnVja2V0JiMxODc7PC90ZXh0PjxpbWFnZSBoZWlnaHQ9IjU2IiB3aWR0aD0iNTQiIHg9IjMwMy40NTg3IiB4bGluazpocmVmPSJkYXRhOmltYWdlL3BuZztiYXNlNjQsaVZCT1J3MEtHZ29BQUFBTlNVaEVVZ0FBQURZQUFBQTRDQVlBQUFDMlR3dXRBQUFCM1VsRVFWUjRYdTJXUVU3RU1BeEZlemoyTEZpeFlJWEVsZ3NqZ1JBY2doWG9SM0xrL3JoMU9sVm43SWJGazBhWnhQR2I1TGN6L2J5L1RaZnkvZnI4ZXlTODN4YWFBUXZlOE5ad2Z4Yk5RRVFSRCs1L0pzYVRzeklUNHkrelU4UjQ4Q3ljVit6cjViRVp6QTZjcG8rSHUvS0J2OHdLWE9CVXhNRG4wMzFxUWZRT0IvR3BZbG93aTZUSWFLRXFoZ2s4eUtJb0VFRlUrckJFTkpoYkh4NTQ5dk9FSmVSWDB0SWFic2lEMSt1VDhDUTA4azdHK2drTDlTYnk1dVpGVWJIK09jR3BDUEF2eUpLUlJIVlAzSytBZVpzZjk3cndFZUpjMTVOZzRJSTZaUkZmeDcxd1V4NjhmZzl3UWMxRHhHN0pUQXhIeHhPeUl0ZTVpbTNKV1ZRa1gxWHNMTmRScnVFWVltZkltWDVkek1ReTUwem5hd3d4a0Rsbk9sK05XT2FjOGQreFJpempkZVJyT0k0WXlKZ3p6cGNwbGpGbmZGcmppV1hLbVpVdlV3eGt5cG1Wci9IRU11WE11b2FyWWhseXRwU3ZSVEdRNFRvdVhjTXh4VExrYk9rYXVtS1JjN2FXcnpIRlFPU2NyZVhMRll1Y3M3WFRHbHNzWXM2OGZMbGlJR0xPdkh4MWlVVzhqdDVwL1l0RnlsbFB2cnJFQUFwRnlCcDY2SkVDellBRmlna29EcTV4aXRoRDl0TTljSDhXellDRkxzckl4aUxMY0xPNmFVYlg0bjBPRVJONGcydkQvYXpSRFBUQ214NEY3OXRMTTdBWGJxd1hyck9YUDI2MXIyYkNncU1QQUFBQUFFbEZUa1N1UW1DQyIgeT0iNDU2Ljk4NDQiLz48dGV4dCBmaWxsPSIjMDAwMDAwIiBmb250LWZhbWlseT0ic2Fucy1zZXJpZiIgZm9udC1zaXplPSIxNCIgbGVuZ3RoQWRqdXN0PSJzcGFjaW5nIiB0ZXh0TGVuZ3RoPSIxMjIiIHg9IjI3Mi45NTg3IiB5PSI1MjYuMjE4OCI+d3d3Lmluc2VjdXJpdHkuY288L3RleHQ+PC9nPjwhLS1lbnRpdHkgbG9ncy0tPjxnIGlkPSJlbGVtX2xvZ3MiPjxwYXRoIGQ9Ik00NjguNDU4Nyw0MTQgTDUwOS40NTg3LDQxNCBBMy43NSwzLjc1IDAgMCAxIDUxMS45NTg3LDQxNi41IEw1MTguOTU4Nyw0MzUgTDYyNi40NTg3LDQzNSBBMi41LDIuNSAwIDAgMSA2MjguOTU4Nyw0MzcuNSBMNjI4Ljk1ODcsNTM1LjQ2ODggQTIuNSwyLjUgMCAwIDEgNjI2LjQ1ODcsNTM3Ljk2ODggTDQ2OC40NTg3LDUzNy45Njg4IEEyLjUsMi41IDAgMCAxIDQ2NS45NTg3LDUzNS40Njg4IEw0NjUuOTU4Nyw0MTYuNSBBMi41LDIuNSAwIDAgMSA0NjguNDU4Nyw0MTQgIiBmaWxsPSIjRjlERkRDIiBzdHlsZT0ic3Ryb2tlOiMxODE4MTg7c3Ryb2tlLXdpZHRoOjAuNTsiLz48bGluZSBzdHlsZT0ic3Ryb2tlOiMxODE4MTg7c3Ryb2tlLXdpZHRoOjAuNTsiIHgxPSI0NjUuOTU4NyIgeDI9IjUxOC45NTg3IiB5MT0iNDM1IiB5Mj0iNDM1Ii8+PHRleHQgZmlsbD0iIzAwMDAwMCIgZm9udC1mYW1pbHk9InNhbnMtc2VyaWYiIGZvbnQtc2l6ZT0iMTQiIGZvbnQtc3R5bGU9Iml0YWxpYyIgbGVuZ3RoQWRqdXN0PSJzcGFjaW5nIiB0ZXh0TGVuZ3RoPSI1OCIgeD0iNTEzLjQ1ODciIHk9IjQ1NS4yMzQ0Ij4mIzE3MTtidWNrZXQmIzE4Nzs8L3RleHQ+PGltYWdlIGhlaWdodD0iNTYiIHdpZHRoPSI1NCIgeD0iNTE1LjQ1ODciIHhsaW5rOmhyZWY9ImRhdGE6aW1hZ2UvcG5nO2Jhc2U2NCxpVkJPUncwS0dnb0FBQUFOU1VoRVVnQUFBRFlBQUFBNENBWUFBQUMyVHd1dEFBQUIzVWxFUVZSNFh1MldRVTdFTUF4RmV6ajJMRml4WUlYRWxnc2pnUkFjZ2hYb1IzTGsvcmgxT2xWbjdJYkZrMGFaeFBHYjVMY3ovYnkvVFpmeS9mcjhleVM4M3hhYUFRdmU4Tlp3ZnhiTlFFUVJEKzUvSnNhVHN6SVQ0eSt6VThSNDhDeWNWK3pyNWJFWnpBNmNwbytIdS9LQnY4d0tYT0JVeE1EbjAzMXFRZlFPQi9HcFlsb3dpNlRJYUtFcWhnazh5S0lvRUVGVStyQkVOSmhiSHg1NDl2T0VKZVJYMHRJYWJzaUQxK3VUOENRMDhrN0crZ2tMOVNieTV1WkZVYkgrT2NHcENQQXZ5SktSUkhWUDNLK0FlWnNmOTdyd0VlSmMxNU5nNElJNlpSRmZ4NzF3VXg2OGZnOXdRYzFEeEc3SlRBeEh4eE95SXRlNWltM0pXVlFrWDFYc0xOZFJydUVZWW1mSW1YNWR6TVF5NTB6bmF3d3hrRGxuT2wrTldPYWM4ZCt4Uml6amRlUnJPSTRZeUpnenpwY3BsakZuZkZyamlXWEttWlV2VXd4a3lwbVZyL0hFTXVYTXVvYXJZaGx5dHBTdlJUR1E0VG91WGNNeHhUTGtiT2thdW1LUmM3YVdyekhGUU9TY3JlWExGWXVjczdYVEdsc3NZczY4ZkxsaUlHTE92SHgxaVVXOGp0NXAvWXRGeWxsUHZyckVBQXBGeUJwNjZKRUN6WUFGaWdrb0RxNXhpdGhEOXRNOWNIOFd6WUNGTHNySXhpTExjTE82YVViWDRuME9FUk40ZzJ2RC9helJEUFRDbXg0Rjc5dExNN0FYYnF3WHJyT1hQMjYxcjJiQ2dxTVBBQUFBQUVsRlRrU3VRbUNDIiB5PSI0NTYuOTg0NCIvPjx0ZXh0IGZpbGw9IiMwMDAwMDAiIGZvbnQtZmFtaWx5PSJzYW5zLXNlcmlmIiBmb250LXNpemU9IjE0IiBsZW5ndGhBZGp1c3Q9InNwYWNpbmciIHRleHRMZW5ndGg9IjEyNiIgeD0iNDgyLjk1ODciIHk9IjUyNi4yMTg4Ij5sb2dzLmluc2VjdXJpdHkuY288L3RleHQ+PC9nPjwhLS1lbnRpdHkgYWRkQ29tbWVudHMtLT48ZyBpZD0iZWxlbV9hZGRDb21tZW50cyI+PHJlY3QgZmlsbD0iI0ZFRURFMiIgaGVpZ2h0PSIxMjMuOTY4OCIgcng9IjIuNSIgcnk9IjIuNSIgc3R5bGU9InN0cm9rZTojMDAwMDAwO3N0cm9rZS13aWR0aDowLjU7IiB3aWR0aD0iMTU1IiB4PSIxNzkuOTU4NyIgeT0iNzM5LjUiLz48cmVjdCBmaWxsPSIjRkVFREUyIiBoZWlnaHQ9IjEwIiBzdHlsZT0ic3Ryb2tlOiMwMDAwMDA7c3Ryb2tlLXdpZHRoOjAuNTsiIHdpZHRoPSIxNSIgeD0iMzE0Ljk1ODciIHk9Ijc0NC41Ii8+PHJlY3QgZmlsbD0iI0ZFRURFMiIgaGVpZ2h0PSIyIiBzdHlsZT0ic3Ryb2tlOiMwMDAwMDA7c3Ryb2tlLXdpZHRoOjAuNTsiIHdpZHRoPSI0IiB4PSIzMTIuOTU4NyIgeT0iNzQ2LjUiLz48cmVjdCBmaWxsPSIjRkVFREUyIiBoZWlnaHQ9IjIiIHN0eWxlPSJzdHJva2U6IzAwMDAwMDtzdHJva2Utd2lkdGg6MC41OyIgd2lkdGg9IjQiIHg9IjMxMi45NTg3IiB5PSI3NTAuNSIvPjx0ZXh0IGZpbGw9IiMwMDAwMDAiIGZvbnQtZmFtaWx5PSJzYW5zLXNlcmlmIiBmb250LXNpemU9IjE0IiBmb250LXN0eWxlPSJpdGFsaWMiIGxlbmd0aEFkanVzdD0ic3BhY2luZyIgdGV4dExlbmd0aD0iMTE1IiB4PSIxOTQuOTU4NyIgeT0iNzcyLjczNDQiPiYjMTcxO0xhbWJkYUZ1bmN0aW9uJiMxODc7PC90ZXh0PjxpbWFnZSBoZWlnaHQ9IjY0IiB3aWR0aD0iNjIiIHg9IjIyMS40NTg3IiB4bGluazpocmVmPSJkYXRhOmltYWdlL3BuZztiYXNlNjQsaVZCT1J3MEtHZ29BQUFBTlNVaEVVZ0FBQUQ0QUFBQkFDQVlBQUFCQzZjVDFBQUFEZUVsRVFWUjRYdFdaTVhaVU1ReEZaMVVzZ0Q0TG9HY0I5TlE1TkZUUTBkR2xvNk5qTS9TVWtKQ0NNTytmY2VKNXNpM0p0dnhuaWx1TXZpM3BXYko4VG5MNDkrdm5JWkw3TDIrZWVtQS9zeEdHVVZqQUxEak9LTUxRQ3ljYUJjZnRSUmk4Y0dLcjREeThDSU1WVG1Rdk9DOHJ3bUNCZys4TjUyZEJHRnB3d0V1RDgyMGhERFU0eUtYQ2VkY1FoaExzL05MaC9Fc0lBOE5PTlI2K3ZuMzYrKzI5Q2F6bC9iTmdIWXd3aklnR0QzZnYxS0FKaU9mOU0rRjRPY0tRWUNkV1BNSkg0bGpoZUFsaEdFM0lLeHpyMmNkTU9GNUNHQUJ2OXVBVi92ajlnL0F4RzQ0SmhJRTNlZkVLQjVGRExzRXhSUks4d1V1UDhPZ2hCemptMlE5ZTNBT3FCL0hNNDQ5UEluZ0MzOWhQQktIQ2EyaWRFRDNrUUZFNEw0cUF4ZWFzR0hKZ0YrRzR5eXc0aDlkSHNJdHczSDhXbTdPeTNaZUpCcHJ3bFVOdXFYRGNZeGJMckhyVGx3blhwbnBpMVp1K1RIanJIV2Q0NzJ3MjRXeU13RnJ0eElvaHQwUTRDOU5ZOGFhSEM5ZmU3aHJSUXk1VXVQWjh0WWdlY3FIQ0xjOVhqZWczUFV5NHBkcmEwSXRzOXpEaDJ2T1ZKamZiY3lLSFhJaHdyWko1RzJ2WGdYM1BJc1N4V3Uyc2hiVXJFZldtSCs0LzN3ampDTnJ6VldyZjFrR0ZETG1qNXFuQ3RlcUIwc0RTRHF1MFp3Z0kvMzM3U243b1JCTlFlNXUxQTZ2dDZ3V2Fwd25Ya2dldHlxMGNjaS9DSjdTN2xyaFdOZTBsbURia2psbzM0WEQ2NStOcnVjQ0JsclIxUVBHK014ODBGTkU5NmIrdTdLY0Z0TUxmNW5TMDNWdFRHVmlycGMwSXJObitSay9kMWJwQ0RMUml6NHZ3em5hZlZlM05sMkZPbERCWC9kVG0yTE50eEkvZXFuTVNqS2NhUU91ZUV0YkRUVHF4NTNselQ5VzExalJYSWtQcm9CcnFBV2ZWQnM4YllmUU1PVXRicXNsVVlEOFdlUGd4MEZZVjdxazZEeGltcDlwVzN5V2E3WDZxZGxFNHNONTFTN1Y1andlTC93UU9TWHMxV0RRNGMyS3R1amFBdEVRc3RHTGdHenJLZEpVSzFRYkNxVloxYmZnMFc4NUJhWEJhcXN1VVJBT1JPR2lKeHlramVCVkxGUXlrZGsvVjVlOFdhcUpWNFo0cEg4SElJYVlwN2hKK1NlSjcwRVEzaFYrcmVJdG9zL0JyRVorTEhoSitUZUk5b2szQ1FlNFFhTy84VXJKMzJpb2FDRU1OZG40SjFlY3FXMFVEWWREZ1FMdFV2N1BLT2NKZ2dZTXVPNENDNEI3UlFCaXNjUERFZGdWbUhzTFJWNm1sUjBRRFlmRENpUlFQd1hNUXAvVXRzU09DRThMUUN5ZldBcUp5K0hzTGp0dUxNTXlBa3gyRi9jOUFHR2JESXF5d245bjhCMTdDZ1hMbkNRWjlBQUFBQUVsRlRrU3VRbUNDIiB5PSI3NzQuNDg0NCIvPjx0ZXh0IGZpbGw9IiMwMDAwMDAiIGZvbnQtZmFtaWx5PSJzYW5zLXNlcmlmIiBmb250LXNpemU9IjE0IiBsZW5ndGhBZGp1c3Q9InNwYWNpbmciIHRleHRMZW5ndGg9Ijc5IiB4PSIyMTYuNDU4NyIgeT0iODUxLjcxODgiPmFkZENvbW1lbnRzPC90ZXh0PjwvZz48IS0tZW50aXR5IGNvbW1lbnRzLS0+PGcgaWQ9ImVsZW1fY29tbWVudHMiPjxwYXRoIGQ9Ik01MDIuNDU4Nyw3MzcuNSBMNTQzLjQ1ODcsNzM3LjUgQTMuNzUsMy43NSAwIDAgMSA1NDUuOTU4Nyw3NDAgTDU1Mi45NTg3LDc1OC41IEw1OTIuNDU4Nyw3NTguNSBBMi41LDIuNSAwIDAgMSA1OTQuOTU4Nyw3NjEgTDU5NC45NTg3LDg2Mi45Njg4IEEyLjUsMi41IDAgMCAxIDU5Mi40NTg3LDg2NS40Njg4IEw1MDIuNDU4Nyw4NjUuNDY4OCBBMi41LDIuNSAwIDAgMSA0OTkuOTU4Nyw4NjIuOTY4OCBMNDk5Ljk1ODcsNzQwIEEyLjUsMi41IDAgMCAxIDUwMi40NTg3LDczNy41ICIgZmlsbD0iI0FFQ0NFQSIgc3R5bGU9InN0cm9rZTojMTgxODE4O3N0cm9rZS13aWR0aDowLjU7Ii8+PGxpbmUgc3R5bGU9InN0cm9rZTojMTgxODE4O3N0cm9rZS13aWR0aDowLjU7IiB4MT0iNDk5Ljk1ODciIHgyPSI1NTIuOTU4NyIgeTE9Ijc1OC41IiB5Mj0iNzU4LjUiLz48dGV4dCBmaWxsPSIjMDAwMDAwIiBmb250LWZhbWlseT0ic2Fucy1zZXJpZiIgZm9udC1zaXplPSIxNCIgZm9udC1zdHlsZT0iaXRhbGljIiBsZW5ndGhBZGp1c3Q9InNwYWNpbmciIHRleHRMZW5ndGg9IjUxIiB4PSI1MTYuOTU4NyIgeT0iNzc4LjczNDQiPiYjMTcxO3RhYmxlJiMxODc7PC90ZXh0PjxpbWFnZSBoZWlnaHQ9IjYwIiB3aWR0aD0iNjEiIHg9IjUxMS45NTg3IiB4bGluazpocmVmPSJkYXRhOmltYWdlL3BuZztiYXNlNjQsaVZCT1J3MEtHZ29BQUFBTlNVaEVVZ0FBQUQwQUFBQThDQVlBQUFEVlBySk1BQUFBL2tsRVFWUjRYdTNac1FrQ1FSU0VZVHV5QlZQN3NRQWp5ekUyRTR5dHhDWk9YQkFlczIrWmw4NjlDYjVraHdYL3hPTzR3L24yMmlydTc4L2hEemNsdjk5ZkRuQjBzcXR3Tk9Qb1pGZmhhTWJSeWE2aWIvVHArdHdxWWpSdVNrYjA4ZkxZS21JMGJrcjZSc2VZTHFhRERxYUREc3FQbjNnSk55V09aaHlkN0NvY3pUZzYyVlU0bW5GMHNxc1kwZmdXc2hLamNWUGlhR1pYMFRHbWkrbWdnL0kvY2J5RW14SkhNNDVPZGhXT1poeWQ3Q29jelRnNjJWV01hUHlVdVJLamNWTXlvdkV0WkNWRzQ2YWtiM1NNNldJNjZHQTY2S0Q4K0ltWGNGUGlhTWJSeWE3QzBZeWprMTJGb3hsSEo3dUtFWTF2SVNzeEdqY2xqbWIyRlAwRjJ6T3M3dmdETGM4QUFBQUFTVVZPUks1Q1lJST0iIHk9Ijc4MC40ODQ0Ii8+PHRleHQgZmlsbD0iIzAwMDAwMCIgZm9udC1mYW1pbHk9InNhbnMtc2VyaWYiIGZvbnQtc2l6ZT0iMTQiIGxlbmd0aEFkanVzdD0ic3BhY2luZyIgdGV4dExlbmd0aD0iNTgiIHg9IjUxNi45NTg3IiB5PSI4NTMuNzE4OCI+Q29tbWVudHM8L3RleHQ+PC9nPjwhLS1lbnRpdHkgdXNlci0tPjxnIGlkPSJlbGVtX3VzZXIiPjxyZWN0IGZpbGw9IiNGRkZGRkYiIGhlaWdodD0iOTAuOTg0NCIgcng9IjIuNSIgcnk9IjIuNSIgc3R5bGU9InN0cm9rZTpub25lO3N0cm9rZS13aWR0aDowLjU7IiB3aWR0aD0iNjQiIHg9IjI4Ni40NTg3IiB5PSI3Ii8+PHRleHQgZmlsbD0iIzAwMDAwMCIgZm9udC1mYW1pbHk9InNhbnMtc2VyaWYiIGZvbnQtc2l6ZT0iMTQiIGZvbnQtc3R5bGU9Iml0YWxpYyIgbGVuZ3RoQWRqdXN0PSJzcGFjaW5nIiB0ZXh0TGVuZ3RoPSI0NCIgeD0iMjk2LjQ1ODciIHk9IjMwLjIzNDQiPiYjMTcxO3VzZXImIzE4Nzs8L3RleHQ+PGltYWdlIGhlaWdodD0iNTYiIHdpZHRoPSI0MiIgeD0iMjk3LjQ1ODciIHhsaW5rOmhyZWY9ImRhdGE6aW1hZ2UvcG5nO2Jhc2U2NCxpVkJPUncwS0dnb0FBQUFOU1VoRVVnQUFBQ29BQUFBNENBWUFBQUNMM1dyTEFBQUJwRWxFUVZSNFh1M1lVWXFEUUJDRVllOS93SUFRQ0FIQlk3ajBnaUIvOVdpUHR1NHN6TVAzVWh1N0s4WmswV0ZabHVHS2VaNlhDQjVYUzRJb0ZvbmluQ2dKSXJpOEZ1ZEZTSENFUzgvaTNDTVM3T0d5cXpoL2p3UWxYSktGZTBva0tPR0NMTnhUSW9HSHc3TnhuMGNDRHdkbjR6NlBCQjRPenNaOUhnazhISnlOK3p3U2VEZzRHL2Q1SlBCd2NEYnU4MGpnbWFaSmhtZmlQbzhFbnUvM0s4T3oyR3p1ODBqZ2ViL2ZzaUNMemVZK2p3U2VjUnlYT3o1K20vbDZ2UmJ1ODBqZ3NXR2Z6MGNXWFdWbk03Mm95VHlyZG0ydWM3blBJMEdKRGN5NkJHeUd6WXFXTkJLVXJPLythdGx0eVZ1S21tM1pNejlaZHAyZktXa2tPTEl1TWZabGlCUzIxNnhmbkRNbGpRUVIyNFhyR2JZaWRzYTJXTzVzU1NOQkZKZEhjVTZVQkxWWXBJVEgxWkpnRDYrOXF6aC9qd1JiSEh3MzdqOHN5Z0ZQWXBkaVVSNzRWOWlyeVpJcnR5aGYxSXIvV1pSL2JFMHZtdTIzS01OVzlhTFpldEZzdldpMlVORTduejNadlZYazlqdFUxRzRsbUdXSjNzazJVVFR0akxid2J6WlVvQmV0RUNyUWkxWUlGZWhGS3d4OEF1ZXhvc3llRm5ySVpVV1pQUzFVb0lXaVAza3FGcmpWK1o1K0FBQUFBRWxGVGtTdVFtQ0MiIHk9IjMxLjk4NDQiLz48L2c+PCEtLWVudGl0eSBicm93c2VyLS0+PGcgaWQ9ImVsZW1fYnJvd3NlciI+PHJlY3QgZmlsbD0iI0ZGRkZGRiIgaGVpZ2h0PSI5MC45ODQ0IiByeD0iMi41IiByeT0iMi41IiBzdHlsZT0ic3Ryb2tlOiMxODE4MTg7c3Ryb2tlLXdpZHRoOjAuNTsiIHdpZHRoPSI3OCIgeD0iMzg1LjQ1ODciIHk9IjciLz48dGV4dCBmaWxsPSIjMDAwMDAwIiBmb250LWZhbWlseT0ic2Fucy1zZXJpZiIgZm9udC1zaXplPSIxNCIgZm9udC1zdHlsZT0iaXRhbGljIiBsZW5ndGhBZGp1c3Q9InNwYWNpbmciIHRleHRMZW5ndGg9IjU4IiB4PSIzOTUuNDU4NyIgeT0iMzAuMjM0NCI+JiMxNzE7Y2xpZW50JiMxODc7PC90ZXh0PjxpbWFnZSBoZWlnaHQ9IjU2IiB3aWR0aD0iNTYiIHg9IjM5Ni40NTg3IiB4bGluazpocmVmPSJkYXRhOmltYWdlL3BuZztiYXNlNjQsaVZCT1J3MEtHZ29BQUFBTlNVaEVVZ0FBQURnQUFBQTRDQVlBQUFDb2hqc2VBQUFCTEVsRVFWUjRYdTNZc1E2Q01CU0ZZVjRjUnh4eHd4RkhSbnpCbXR2a0VqaTFtbUNDbnVNZC9rUmJKZjFDUUV1VFVtcTgrenduaGRZbU9aeTNBZUtrU2htSWcycjlMM0I5b1RLRTYzOEp4Qyt6aEk0QXNvV09BTEtGamdDeWhZNEFzb1dPQUxLRmpnQ3loWTRBc29XT0FMS0ZqZ0N5aFk0QXNvV09BTEtGamdDeWhZNE12STFqTWNpSXhQVXZ3T3N3RklNcTJjbHJ6bDFYVENnMFRWTXlXM05xMjZSNEZpOTluOHlXZ1dwSXgyV2dYYUQreGs2cFFXczNubC9PMW14ck40Tjd6TFlCcXJVQUZaSHVLbjVQOElOc29hY0Fxclc4d0l1V3ZRMFFKMVhLUUJ4VUs0RHNmUjJJZDcyOTRYRzk2c1FSNFNJL0RZOXZQUjA4TWx6azN2QzRYblZDcGVvakM0WHlqdDcyVGppaGt0bnluMnRGWkxHajk4MnVRdXROTC8zMjZGMzVGb3VES3BudEFVaWJjYW93MkJTZ0FBQUFBRWxGVGtTdVFtQ0MiIHk9IjMxLjk4NDQiLz48L2c+PCEtLWVudGl0eSBqcy0tPjxnIGlkPSJlbGVtX2pzIj48cmVjdCBmaWxsPSIjRkZGRkZGIiBoZWlnaHQ9IjEyNS45Njg4IiByeD0iMi41IiByeT0iMi41IiBzdHlsZT0ic3Ryb2tlOiMwMDAwMDA7c3Ryb2tlLXdpZHRoOjAuNTsiIHdpZHRoPSIxMDciIHg9IjY4NC45NTg3IiB5PSI3MzguNSIvPjx0ZXh0IGZpbGw9IiMwMDAwMDAiIGZvbnQtZmFtaWx5PSJzYW5zLXNlcmlmIiBmb250LXNpemU9IjE0IiBmb250LXN0eWxlPSJpdGFsaWMiIGxlbmd0aEFkanVzdD0ic3BhY2luZyIgdGV4dExlbmd0aD0iODciIHg9IjY5NC45NTg3IiB5PSI3NjEuNzM0NCI+JiMxNzE7SmF2YVNjcmlwdCYjMTg3OzwvdGV4dD48aW1hZ2UgaGVpZ2h0PSI3NiIgd2lkdGg9IjY2IiB4PSI3MDUuNDU4NyIgeGxpbms6aHJlZj0iZGF0YTppbWFnZS9wbmc7YmFzZTY0LGlWQk9SdzBLR2dvQUFBQU5TVWhFVWdBQUFFSUFBQUJNQ0FZQUFBRFpYbUdZQUFBRUswbEVRVlI0WHUyYlBZNFVNUkNGOXp6Y2dCUHNCU0JISWlVaEpDTWhSU0tIQyt3QkVERUhRdndMU0l6ZXFHdGxYcFgveWovZGd6cjRkbWRmMis2cU4rMnl1MmYySm9Sd3N5ZWZiaDhFd1BwcWxMQVNNZUVJWmloaEJXd0F3KzFYb0lTWmNNTGc2N1BIRjFoZmJZZ1Nac0FKaWdHLzM5OEZhWVBYZXhxaWhKRndRdUR6bzRmaDU3dlhnZHNLT0lZMjNHKzJJVW9ZQlNjQmZyeDVHYmhkQ3JUbC9qUE5VRUl2SERqNDl1SnArUFB4UStDMkpkQUhmWG04R1lZb3dRc0hDcmdPZUZsUlA1VFFDZ2NHTU1kLzNiME4zTFlYakRtcmZpaWhCUTRHdE5RQkx6UHFoeEpxNEFBQTVqSzNtODNJK3FHRUhIeENNS29PZUJsVlA1Umd3U2NBbUt0N0dzQWdscDc2b1FTR0J3VXI2b0FYYi8xUWdzQURnZSt2bmhjSFBBcUlsZVBQR2FJRTdnZ3dCejBib3IxQnpMWDE0LzRGTndSZm50d2VxZzU0UVE3SWhmT0xEYm44NElNZ2QyTjByU0FuemxQTVVDWWN1UkNPd2lxb3V4b1JCN1RYZVpOR0NET25SdXFlWWRZOWlwQ2FHdjhZZ2VXR3Q2eWppMlZ1RnhnemVyZHFGVXZrR2kreDkwYklwV2t0T1NPV1R6YTVodDc3bDFJdThSUlJSZ2pXbHRXem9iTG1ZeXNjV3cyOG9iSnVDYXFNc0JxWDJzYmtuajE2S0QzckZGcmliVEpDcUhFWW9Oang1VGdTakcwVlZNOFY3RElDeEhNT3YvbVlwdzU0c1o2RHhySHhNUXUzRVFMYzUzY2x0elROZ3FjS1lyS3UwaFRkUnVTdzV1aG9ac1RhYlFUZUFlNXJMVnNqc0M1NW5MdmxLdUMrTW5hM0ViZ2MwZC9hRmVKdjNzaDR3QmpXMkZJYytWZ3RVNHdRckYyaGR5bTFsa3hyZDNwSUl3U3JxcmZVRDQ0bnR5b2Qyb2pVdUxtRWdNZkFxekFDV0pjNCtzV1h1TFZScXAxUzNLK1c1VVlJcVdSTEpwWGdNV3ZaelFqQnV2eEJhZHFrdUZvanJIT1c2a0NPcXpjQ3lEaXN0M0Fhc1hFYXNYRWFzWEVhc1hFYXNYRWFzWEVhc1hFSUkzakFWbVFNMW1zWkZmY1FJNEIzZXl6OVdTK1IycWEzTU1VSUFaZHB5dzJUOUdNOWhYWGo1bVdxRVFLQ3JibUZsdmFzTTlhandGNldHQ0dVNm9lMFl6MW1SV3pUalJCUzlVT09zdzU2UHdRdXNZc1J3SHJ3S3NkaXpYb0FQSVBkakJEaStpRWFYcytvQXpsTUkvRFpRZTl5MUVwcy9zbzNBaURYK0RNWE5UZExueUQvRC9Bbit4Y2pjSUJGc1BvZFdrRnFCY094KzBaOEVLUytBekVTakwvaUhLazlqYlJSbmJnaG1GbkZPYUNSV0t0VTZueXFzOEFkd1l4MVBSVllMNlY5QzZNRWhnY0NJK3RIS2NCV2NuVWdoeElzZUZBd2FzMnZEYlJFN3Q2RzIxb29JUWVmQVBUV2o1WmdMVnJxUUE0bDFNQW5CTjc2NFFsYWFLMERPWlRRQWdjQVd1dUhKM2h2SGNpaGhGWTRHR0I5RFNCRlN4SzVyd2x3MjFhVTRJVURBelgxb3lhUlVYVWdoeEo2NFVCQjd2bGlMcUhjYzFCdTI0c1NSc0dCQTZ0K3BCS2JVUWR5S0dFMG5BalhEMDR3VlFkNDNORW9ZUWFjRkpCL2lwRy84VHIxblV3ZWJ3WkttQWtuV0lMN3owUUpLK0NFR1c2L0FpV3M1QWdHQ0VwWXpSRk1BSDhCMEpsNTRFL1E5UUVBQUFBQVNVVk9SSzVDWUlJPSIgeT0iNzYzLjQ4NDQiLz48dGV4dCBmaWxsPSIjMDAwMDAwIiBmb250LWZhbWlseT0ic2Fucy1zZXJpZiIgZm9udC1zaXplPSIxNCIgbGVuZ3RoQWRqdXN0PSJzcGFjaW5nIiB0ZXh0TGVuZ3RoPSIyMSIgeD0iNzMxLjQ1ODciIHk9Ijg1Mi43MTg4Ij5TREs8L3RleHQ+PC9nPjwhLS1saW5rIHVzZXIgdG8gYnJvd3Nlci0tPjxnIGlkPSJsaW5rX3VzZXJfYnJvd3NlciI+PHBhdGggZD0iTTM1MC43NTg3LDUyLjUgQzM2Mi4yNjg3LDUyLjUgMzczLjc4ODcsNTIuNSAzODUuMzA4Nyw1Mi41ICIgZmlsbD0ibm9uZSIgaWQ9InVzZXItYnJvd3NlciIgc3R5bGU9InN0cm9rZTojMDAwMDAwO3N0cm9rZS13aWR0aDoxLjA7Ii8+PC9nPjwhLS1saW5rIGJyb3dzZXIgdG8gc2l0ZS0tPjxnIGlkPSJsaW5rX2Jyb3dzZXJfc2l0ZSI+PHBhdGggZD0iTTM4NS4zODg3LDg0LjUzIEMzNjAuNjc4NywxMDQuMjUgMzMzLjIyODcsMTI2LjM4IDMzMi40NTg3LDEyOCBDMjg5LjY0ODcsMjE3Ljc0IDMwMy4yODg3LDM0My40MzIgMzE4LjM3ODcsNDE2LjE0MiAiIGZpbGw9Im5vbmUiIGlkPSJicm93c2VyLXRvLXNpdGUiIHN0eWxlPSJzdHJva2U6IzAwMDAwMDtzdHJva2Utd2lkdGg6MS4wOyIvPjxwb2x5Z29uIGZpbGw9IiMwMDAwMDAiIHBvaW50cz0iMzE5LjQ2ODcsNDIxLjI5MiwzMjEuNTM0NCw0MTEuNjYyMiwzMTguNDQxNSw0MTYuMzk4NywzMTMuNzA1MSw0MTMuMzA1NywzMTkuNDY4Nyw0MjEuMjkyIiBzdHlsZT0ic3Ryb2tlOiMwMDAwMDA7c3Ryb2tlLXdpZHRoOjEuMDsiLz48dGV4dCBmaWxsPSIjMDAwMDAwIiBmb250LWZhbWlseT0ic2Fucy1zZXJpZiIgZm9udC1zaXplPSIxMyIgZm9udC13ZWlnaHQ9ImJvbGQiIGxlbmd0aEFkanVzdD0ic3BhY2luZyIgdGV4dExlbmd0aD0iMTQiIHg9IjMzMy40NTg3IiB5PSIxNDEuMjg5MSI+MWE8L3RleHQ+PHRleHQgZmlsbD0iIzAwMDAwMCIgZm9udC1mYW1pbHk9InNhbnMtc2VyaWYiIGZvbnQtc2l6ZT0iMTMiIGxlbmd0aEFkanVzdD0ic3BhY2luZyIgdGV4dExlbmd0aD0iMzMiIHg9IjM0Ny40NTg3IiB5PSIxNDEuMjg5MSI+KSBnZXQ8L3RleHQ+PHRleHQgZmlsbD0iIzAwMDAwMCIgZm9udC1mYW1pbHk9InNhbnMtc2VyaWYiIGZvbnQtc2l6ZT0iMTMiIGxlbmd0aEFkanVzdD0ic3BhY2luZyIgdGV4dExlbmd0aD0iMzkiIHg9IjMzNy40NTg3IiB5PSIxNTUuMjAzMSI+c3RhdGljPC90ZXh0Pjx0ZXh0IGZpbGw9IiMwMDAwMDAiIGZvbnQtZmFtaWx5PSJzYW5zLXNlcmlmIiBmb250LXNpemU9IjEzIiBsZW5ndGhBZGp1c3Q9InNwYWNpbmciIHRleHRMZW5ndGg9IjQ3IiB4PSIzMzMuNDU4NyIgeT0iMTY5LjExNzIiPmNvbnRlbnQ8L3RleHQ+PC9nPjwhLS1yZXZlcnNlIGxpbmsgYnJvd3NlciB0byBzaXRlLS0+PGcgaWQ9ImxpbmtfYnJvd3Nlcl9zaXRlIj48cGF0aCBkPSJNNDEzLjk1ODcsMTAzLjIgQzM5Ny42MDg3LDE4MC42NCAzNjYuMDk4NywzNTAuOSAzNDguMzc4Nyw0MzQuODMgIiBmaWxsPSJub25lIiBpZD0iYnJvd3Nlci1iYWNrdG8tc2l0ZSIgc3R5bGU9InN0cm9rZTojMDAwMDAwO3N0cm9rZS13aWR0aDoxLjA7c3Ryb2tlLWRhc2hhcnJheTo3LjAsNy4wOyIvPjxwb2x5Z29uIGZpbGw9IiMwMDAwMDAiIHBvaW50cz0iNDE1LjAxODcsOTguMjEsNDA5LjI1NTEsMTA2LjE5NjMsNDEzLjk5MTUsMTAzLjEwMzQsNDE3LjA4NDQsMTA3LjgzOTgsNDE1LjAxODcsOTguMjEiIHN0eWxlPSJzdHJva2U6IzAwMDAwMDtzdHJva2Utd2lkdGg6MS4wOyIvPjx0ZXh0IGZpbGw9IiMwMDAwMDAiIGZvbnQtZmFtaWx5PSJzYW5zLXNlcmlmIiBmb250LXNpemU9IjEzIiBmb250LXdlaWdodD0iYm9sZCIgbGVuZ3RoQWRqdXN0PSJzcGFjaW5nIiB0ZXh0TGVuZ3RoPSIxNCIgeD0iNDA3LjQ1ODciIHk9IjE1NS4yODkxIj4xYjwvdGV4dD48L2c+PCEtLWxpbmsgc2l0ZSB0byBsb2dzLS0+PGcgaWQ9Imxpbmtfc2l0ZV9sb2dzIj48cGF0aCBkPSJNNDE0Ljk5ODcsNDc2IEM0MjkuODg4Nyw0NzYgNDQ1LjUxODcsNDc2IDQ2MC42MDg3LDQ3NiAiIGZpbGw9Im5vbmUiIGlkPSJzaXRlLXRvLWxvZ3MiIHN0eWxlPSJzdHJva2U6IzAwMDAwMDtzdHJva2Utd2lkdGg6MS4wO3N0cm9rZS1kYXNoYXJyYXk6MS4wLDMuMDsiLz48cG9seWdvbiBmaWxsPSIjMDAwMDAwIiBwb2ludHM9IjQ2NS42OTg3LDQ3Niw0NTYuNjk4Nyw0NzIsNDYwLjY5ODcsNDc2LDQ1Ni42OTg3LDQ4MCw0NjUuNjk4Nyw0NzYiIHN0eWxlPSJzdHJva2U6IzAwMDAwMDtzdHJva2Utd2lkdGg6MS4wOyIvPjx0ZXh0IGZpbGw9IiMwMDAwMDAiIGZvbnQtZmFtaWx5PSJzYW5zLXNlcmlmIiBmb250LXNpemU9IjEzIiBsZW5ndGhBZGp1c3Q9InNwYWNpbmciIHRleHRMZW5ndGg9IjE0IiB4PSI0MzMuNDU4NyIgeT0iNDcxLjI4OTEiPjFhPC90ZXh0PjwvZz48IS0tbGluayBicm93c2VyIHRvIGpzLS0+PGcgaWQ9ImxpbmtfYnJvd3Nlcl9qcyI+PHBhdGggZD0iTTQ2My43MDg3LDY0LjEyIEM1MTQuNTM4Nyw4MC4wNyA2MDEuNzY4NywxMTUuMzMgNjQ1LjQ1ODcsMTc5IEM3NjQuNzU4NywzNTIuODQgNzU2LjkzODcsNjE4LjM4IDc0NS45Mzg3LDczOC4xMiAiIGZpbGw9Im5vbmUiIGlkPSJicm93c2VyLWpzIiBzdHlsZT0ic3Ryb2tlOiMwMDAwMDA7c3Ryb2tlLXdpZHRoOjEuMDsiLz48L2c+PCEtLWxpbmsganMgdG8gY29tbWVudHMtLT48ZyBpZD0ibGlua19qc19jb21tZW50cyI+PHBhdGggZD0iTTY4NC42Mjg3LDgwMS41IEM2NTguMjQ4Nyw4MDEuNSA2MjYuNTg4Nyw4MDEuNSA2MDAuMzM4Nyw4MDEuNSAiIGZpbGw9Im5vbmUiIGlkPSJqcy10by1jb21tZW50cyIgc3R5bGU9InN0cm9rZTojMDAwMDAwO3N0cm9rZS13aWR0aDoxLjA7Ii8+PHBvbHlnb24gZmlsbD0iIzAwMDAwMCIgcG9pbnRzPSI1OTUuMTU4Nyw4MDEuNSw2MDQuMTU4Nyw4MDUuNSw2MDAuMTU4Nyw4MDEuNSw2MDQuMTU4Nyw3OTcuNSw1OTUuMTU4Nyw4MDEuNSIgc3R5bGU9InN0cm9rZTojMDAwMDAwO3N0cm9rZS13aWR0aDoxLjA7Ii8+PHRleHQgZmlsbD0iIzAwMDAwMCIgZm9udC1mYW1pbHk9InNhbnMtc2VyaWYiIGZvbnQtc2l6ZT0iMTMiIGZvbnQtd2VpZ2h0PSJib2xkIiBsZW5ndGhBZGp1c3Q9InNwYWNpbmciIHRleHRMZW5ndGg9IjE0IiB4PSI2MTYuNDU4NyIgeT0iNzgyLjc4OTEiPjJhPC90ZXh0Pjx0ZXh0IGZpbGw9IiMwMDAwMDAiIGZvbnQtZmFtaWx5PSJzYW5zLXNlcmlmIiBmb250LXNpemU9IjEzIiBsZW5ndGhBZGp1c3Q9InNwYWNpbmciIHRleHRMZW5ndGg9IjMzIiB4PSI2MzAuNDU4NyIgeT0iNzgyLjc4OTEiPikgZ2V0PC90ZXh0Pjx0ZXh0IGZpbGw9IiMwMDAwMDAiIGZvbnQtZmFtaWx5PSJzYW5zLXNlcmlmIiBmb250LXNpemU9IjEzIiBsZW5ndGhBZGp1c3Q9InNwYWNpbmciIHRleHRMZW5ndGg9IjUzIiB4PSI2MTMuNDU4NyIgeT0iNzk2LjcwMzEiPmNvbW1lbnRzPC90ZXh0PjwvZz48IS0tbGluayBjb21tZW50cyB0byBqcy0tPjxnIGlkPSJsaW5rX2NvbW1lbnRzX2pzIj48cGF0aCBkPSJNNTk0Ljk5ODcsODEzLjQ1IEM2MDYuOTc4Nyw4MTUuOTYgNjE5Ljg3ODcsODE4LjIzIDYzMS45NTg3LDgxOS41IEM2NDcuNDU4Nyw4MjEuMTMgNjY0LjExODcsODE5LjgxIDY3OS41NDg3LDgxNy4yNyAiIGZpbGw9Im5vbmUiIGlkPSJjb21tZW50cy10by1qcyIgc3R5bGU9InN0cm9rZTojMDAwMDAwO3N0cm9rZS13aWR0aDoxLjA7c3Ryb2tlLWRhc2hhcnJheTo3LjAsNy4wOyIvPjxwb2x5Z29uIGZpbGw9IiMwMDAwMDAiIHBvaW50cz0iNjg0LjcyODcsODE2LjM3LDY3NS4xNzUyLDgxMy45NzU5LDY3OS44MDMsODE3LjIyOTEsNjc2LjU0OTgsODIxLjg1NjksNjg0LjcyODcsODE2LjM3IiBzdHlsZT0ic3Ryb2tlOiMwMDAwMDA7c3Ryb2tlLXdpZHRoOjEuMDsiLz48dGV4dCBmaWxsPSIjMDAwMDAwIiBmb250LWZhbWlseT0ic2Fucy1zZXJpZiIgZm9udC1zaXplPSIxMyIgZm9udC13ZWlnaHQ9ImJvbGQiIGxlbmd0aEFkanVzdD0ic3BhY2luZyIgdGV4dExlbmd0aD0iMTQiIHg9IjYzMi45NTg3IiB5PSI4MTcuNzg5MSI+MmI8L3RleHQ+PC9nPjwhLS1saW5rIGNvbW1lbnRzIHRvIGpzLS0+PGcgaWQ9ImxpbmtfY29tbWVudHNfanMiPjxwYXRoIGQ9Ik01OTUuMTU4Nyw4MDEuNSBDNjIwLjc0ODcsODAxLjUgNjUyLjUwODcsODAxLjUgNjc5LjYxODcsODAxLjUgIiBmaWxsPSJub25lIiBpZD0iY29tbWVudHMtdG8tanMtMSIgc3R5bGU9InN0cm9rZTojMDAwMDAwO3N0cm9rZS13aWR0aDoxLjA7c3Ryb2tlLWRhc2hhcnJheTo3LjAsNy4wOyIvPjxwb2x5Z29uIGZpbGw9IiMwMDAwMDAiIHBvaW50cz0iNjg0LjYyODcsODAxLjUsNjc1LjYyODcsNzk3LjUsNjc5LjYyODcsODAxLjUsNjc1LjYyODcsODA1LjUsNjg0LjYyODcsODAxLjUiIHN0eWxlPSJzdHJva2U6IzAwMDAwMDtzdHJva2Utd2lkdGg6MS4wOyIvPjx0ZXh0IGZpbGw9IiMwMDAwMDAiIGZvbnQtZmFtaWx5PSJzYW5zLXNlcmlmIiBmb250LXNpemU9IjEzIiBmb250LXdlaWdodD0iYm9sZCIgbGVuZ3RoQWRqdXN0PSJzcGFjaW5nIiB0ZXh0TGVuZ3RoPSI3IiB4PSI2MTkuOTU4NyIgeT0iNzgyLjc4OTEiPjY8L3RleHQ+PHRleHQgZmlsbD0iIzAwMDAwMCIgZm9udC1mYW1pbHk9InNhbnMtc2VyaWYiIGZvbnQtc2l6ZT0iMTMiIGxlbmd0aEFkanVzdD0ic3BhY2luZyIgdGV4dExlbmd0aD0iMzMiIHg9IjYyNi45NTg3IiB5PSI3ODIuNzg5MSI+KSBuZXc8L3RleHQ+PHRleHQgZmlsbD0iIzAwMDAwMCIgZm9udC1mYW1pbHk9InNhbnMtc2VyaWYiIGZvbnQtc2l6ZT0iMTMiIGxlbmd0aEFkanVzdD0ic3BhY2luZyIgdGV4dExlbmd0aD0iNTMiIHg9IjYxMy40NTg3IiB5PSI3OTYuNzAzMSI+Y29tbWVudHM8L3RleHQ+PC9nPjwhLS1saW5rIGpzIHRvIGFwaS0tPjxnIGlkPSJsaW5rX2pzX2FwaSI+PHBhdGggZD0iTTcxNC4zMzg3LDczOC4xIEM2OTMuODY4Nyw2OTQuMDMgNjYwLjAyODcsNjM3LjY0IDYxMS40NTg3LDYwNy41IEM0NzAuMzA4Nyw1MTkuOSAzOTMuMzg4Nyw2MjYuODkgMjQwLjQ1ODcsNTYyIEMyMjkuMDE4Nyw1NTcuMTUgMjE3LjgxODcsNTUwLjY2IDIwNy4yNDg3LDU0My40MyAiIGZpbGw9Im5vbmUiIGlkPSJqcy10by1hcGkiIHN0eWxlPSJzdHJva2U6IzAwMDAwMDtzdHJva2Utd2lkdGg6MS4wOyIvPjxwb2x5Z29uIGZpbGw9IiMwMDAwMDAiIHBvaW50cz0iMjAzLjA3ODcsNTQwLjUyLDIwOC4xNzU3LDU0OC45NDc0LDIwNy4xODA5LDU0My4zNzg3LDIxMi43NDk1LDU0Mi4zODM5LDIwMy4wNzg3LDU0MC41MiIgc3R5bGU9InN0cm9rZTojMDAwMDAwO3N0cm9rZS13aWR0aDoxLjA7Ii8+PHRleHQgZmlsbD0iIzAwMDAwMCIgZm9udC1mYW1pbHk9InNhbnMtc2VyaWYiIGZvbnQtc2l6ZT0iMTMiIGZvbnQtd2VpZ2h0PSJib2xkIiBsZW5ndGhBZGp1c3Q9InNwYWNpbmciIHRleHRMZW5ndGg9IjciIHg9IjU5Ny45NTg3IiB5PSI1ODMuNzg5MSI+MzwvdGV4dD48dGV4dCBmaWxsPSIjMDAwMDAwIiBmb250LWZhbWlseT0ic2Fucy1zZXJpZiIgZm9udC1zaXplPSIxMyIgbGVuZ3RoQWRqdXN0PSJzcGFjaW5nIiB0ZXh0TGVuZ3RoPSIzNCIgeD0iNjA0Ljk1ODciIHk9IjU4My43ODkxIj4pIGFkZDwvdGV4dD48dGV4dCBmaWxsPSIjMDAwMDAwIiBmb250LWZhbWlseT0ic2Fucy1zZXJpZiIgZm9udC1zaXplPSIxMyIgbGVuZ3RoQWRqdXN0PSJzcGFjaW5nIiB0ZXh0TGVuZ3RoPSI0NiIgeD0iNTk1LjQ1ODciIHk9IjU5Ny43MDMxIj5jb21tZW50PC90ZXh0PjwvZz48IS0tbGluayBhcGkgdG8gYWRkQ29tbWVudHMtLT48ZyBpZD0ibGlua19hcGlfYWRkQ29tbWVudHMiPjxwYXRoIGQ9Ik0xNTkuNDE4Nyw1NDAuNTMgQzE4MC41Mzg3LDU5Ni41NSAyMTEuMjA4Nyw2NzcuODYgMjMyLjU5ODcsNzM0LjU5ICIgZmlsbD0ibm9uZSIgaWQ9ImFwaS10by1hZGRDb21tZW50cyIgc3R5bGU9InN0cm9rZTojMDAwMDAwO3N0cm9rZS13aWR0aDoxLjA7Ii8+PHBvbHlnb24gZmlsbD0iIzAwMDAwMCIgcG9pbnRzPSIyMzQuMzc4Nyw3MzkuMzEsMjM0Ljk2MzksNzI5LjQ3ODUsMjMyLjYyMyw3MzQuNjI4NCwyMjcuNDczMiw3MzIuMjg3NSwyMzQuMzc4Nyw3MzkuMzEiIHN0eWxlPSJzdHJva2U6IzAwMDAwMDtzdHJva2Utd2lkdGg6MS4wOyIvPjx0ZXh0IGZpbGw9IiMwMDAwMDAiIGZvbnQtZmFtaWx5PSJzYW5zLXNlcmlmIiBmb250LXNpemU9IjEzIiBmb250LXdlaWdodD0iYm9sZCIgbGVuZ3RoQWRqdXN0PSJzcGFjaW5nIiB0ZXh0TGVuZ3RoPSI3IiB4PSIxNzkuNDU4NyIgeT0iNTkwLjc4OTEiPjQ8L3RleHQ+PC9nPjwhLS1saW5rIGFkZENvbW1lbnRzIHRvIGNvbW1lbnRzLS0+PGcgaWQ9ImxpbmtfYWRkQ29tbWVudHNfY29tbWVudHMiPjxwYXRoIGQ9Ik0zMzUuMTY4Nyw4MDEuNSBDMzg1LjU3ODcsODAxLjUgNDQ5LjkxODcsODAxLjUgNDk0LjQ4ODcsODAxLjUgIiBmaWxsPSJub25lIiBpZD0iYWRkQ29tbWVudHMtdG8tY29tbWVudHMiIHN0eWxlPSJzdHJva2U6IzAwMDAwMDtzdHJva2Utd2lkdGg6MS4wOyIvPjxwb2x5Z29uIGZpbGw9IiMwMDAwMDAiIHBvaW50cz0iNDk5LjU0ODcsODAxLjUsNDkwLjU0ODcsNzk3LjUsNDk0LjU0ODcsODAxLjUsNDkwLjU0ODcsODA1LjUsNDk5LjU0ODcsODAxLjUiIHN0eWxlPSJzdHJva2U6IzAwMDAwMDtzdHJva2Utd2lkdGg6MS4wOyIvPjx0ZXh0IGZpbGw9IiMwMDAwMDAiIGZvbnQtZmFtaWx5PSJzYW5zLXNlcmlmIiBmb250LXNpemU9IjEzIiBmb250LXdlaWdodD0iYm9sZCIgbGVuZ3RoQWRqdXN0PSJzcGFjaW5nIiB0ZXh0TGVuZ3RoPSI3IiB4PSI0MTMuOTU4NyIgeT0iNzk2Ljc4OTEiPjU8L3RleHQ+PC9nPjwhLS1TUkM9W2JMSFRSdmltNTd0dGh0M1YwRUwzTlJPekw1Q2Ewc2NMRGFzZ0dYUHJ3ZWpabDhtNFI2SVJlY3BRVmxqaTgwYllHVWJ1Q0RWdGRkRmt6R2RFTFNuOGFhU3E1bWR5V1dpdjkzbkRFSGphVVBnQ21MTXhZaDhpWUdiTUNNUzE1TXluZUpnTnVmLVNlUVZmN0xRcW1Gal80YnJZN2EtcE5ENFhNV0twZEF1WlY4aFVKd2JVanBhWlBnWk1qYWw2bm1nbGlRSnJnRndVdVBKeFJjbHhsc29USk1ZclRiN2xBQUMyOXNQLWFsMHlFV1FOMjJJOUFMRnJ3bjh1YnJJS0luU215MV9heTF3X3VPMjhFNUVEaTlFWGtDMlJtdjYzcUo1dURzNlRhbnJMelFqYzBSY0JNT081Smc3LXhaQkV6RTZHNEJwbVVDODVUMURDVGtTbWhpdmwxQ3pQTDA1TkZzOTU2cTM2OHRlOWV1VXhCOEk1WWh6WnFlNDNPMWJDZFl0Wmowc3lzTkdvM3dzcmRoeFN0d0VsQUYyVWZxLVhqUEt6eFJXRFdGd3JsVGJZd0xsUThIbC0wVzNnMXBzWVJ1anZDQkJhb0VIV19SWEJ4czRJTWI4dHdYTDVDT1lQZjJHTmlUZUYyQlZSaThIbFBDeWl2dDJfY3V0Q2xLSlhQOExVQjlwNVRidEl6bWF6a1p3b2FsODJER1VmMmhWQmtIVEU1dENCSHpnM0RETmNvTHVaRmpGOVZ2Y1pudU5sTWI1dkd2Z1E4TjlkNHVpU1REZVlNaVFPMmxrbWpYRTBFZTN6ZzMtNm5YSHV1cFpOczc1aWtBN2diS2NiX3ZOOEFvRVNBSXE1SWlZVkNKSVVtOWpoTjJLNi1NMXlxMm01cmV2cGFlUFIyUk9JemVMa1NQWkRlM3dTc1hwSXU1V1ZRQ0xqMUpEWUhtNWpoYWNFMzVOeFRBRzJPMmhiQ0hoczZVWDdHc19jTWNEeUNsS3BWSi1SNWVtTWYtZC0wVzAwXS0tPjwvZz48L3N2Zz4=;" vertex="1" parent="1">
            <mxGeometry x="-120" y="-80" width="800" height="948.55" as="geometry" />
          </mxCell>
        </UserObject>
      </root>
    </mxGraphModel>
  </diagram>
</mxfile>
